<svg width="26" height="26" viewBox="0 0 26 26" fill="none" xmlns="http://www.w3.org/2000/svg">
<path fill-rule="evenodd" clip-rule="evenodd" d="M13.1827 5.01758V10.3544C13.1827 11.0346 13.7341 11.586 14.4143 11.586H19.7511V19.7965C19.7511 20.7035 19.0159 21.4386 18.109 21.4386H8.25636C7.34945 21.4386 6.61426 20.7035 6.61426 19.7965V6.65968C6.61426 5.75277 7.34945 5.01758 8.25636 5.01758H13.1827ZM13.1827 12.4071C12.7292 12.4071 12.3616 12.7746 12.3616 13.2281V15.4518L12.0215 15.1118C11.7009 14.7911 11.181 14.7911 10.8604 15.1118C10.5398 15.4324 10.5398 15.9523 10.8604 16.2729L12.6021 18.0147C12.9227 18.3353 13.4426 18.3353 13.7632 18.0147L15.5049 16.2729C15.8256 15.9523 15.8256 15.4324 15.5049 15.1118C15.1843 14.7911 14.6644 14.7911 14.3438 15.1118L14.0037 15.4518V13.2281C14.0037 12.7746 13.6361 12.4071 13.1827 12.4071ZM14.8248 5.05318C15.1334 5.11853 15.4193 5.27203 15.6458 5.49854L19.2701 9.12284C19.4967 9.34935 19.6502 9.63523 19.7155 9.94389H14.8248V5.05318Z" fill="white"/>
<circle cx="13" cy="13" r="12.5" stroke="#CFDCFD"/>
</svg>
