<svg width="20" height="20" viewBox="0 0 20 20" fill="none" xmlns="http://www.w3.org/2000/svg">
<g clip-path="url(#clip0_1206_801)">
<path d="M17.7078 3.32378C17.7078 2.59484 17.1168 2.00394 16.3879 2.00394H15.5287C14.9972 2.00394 4.49109 2.00394 4.13996 2.00394C3.81828 2.00394 1.7373 2.00394 1.31988 2.00394C0.591016 2.00394 0 2.59487 0 3.32378V18.3917C0 18.7689 0.158555 19.1089 0.412344 19.3495H16.3879V19.7116H18.6998C19.2679 19.7116 19.7521 19.3526 19.9382 18.8492C20.0924 18.4416 20.1469 19.2209 17.7078 3.32378Z" fill="#BABABA"/>
<path d="M18.5124 18.3917V8.57687L17.7064 3.32378C17.7064 2.59484 17.1154 2.00394 16.3865 2.00394C15.9543 2.00394 5.54641 2.00394 4.94461 2.00394H4.13863H3.81625C3.06969 2.00394 3.32082 2.00394 2.12457 2.00394C1.3957 2.00394 0.804688 2.59484 0.804688 3.32378V18.3917C0.804688 18.7689 0.963242 19.1089 1.21703 19.3495H16.3866V19.7116H17.1925C17.9214 19.7116 18.5124 19.1207 18.5124 18.3917Z" fill="#A8A8A8"/>
<path d="M16.3878 2.00394C15.926 2.00394 4.90059 2.00394 4.13996 2.00394C3.68457 2.00394 1.62777 2.00394 1.31988 2.00394C0.591016 2.00394 0 2.59487 0 3.32378V18.3917C0 19.1207 0.591016 19.7116 1.31988 19.7116H16.3878C17.1168 19.7116 17.7077 19.1207 17.7077 18.3917V3.32378C17.7078 2.59487 17.1168 2.00394 16.3878 2.00394Z" fill="#E6E6E6"/>
<path d="M0.805977 18.3917V3.32378C0.805977 2.59484 1.39699 2.00394 2.12586 2.00394C1.67156 2.00394 1.77562 2.00394 1.31988 2.00394C0.591016 2.00394 0 2.59487 0 3.32378V18.3917C0 19.1207 0.591016 19.7116 1.31988 19.7116H2.12586C1.39703 19.7116 0.805977 19.1207 0.805977 18.3917Z" fill="#CCCBCA"/>
<path d="M16.3879 2.00394C15.8635 2.00394 5.01516 2.00394 4.13996 2.00394C1.01508 2.00394 4.24504 2.00394 1.31988 2.00394C0.591016 2.00394 0 2.59487 0 3.32378V6.71425H17.7078V3.32378C17.7078 2.59487 17.1168 2.00394 16.3879 2.00394Z" fill="#EA473B"/>
<path d="M0.805977 3.32378C0.805977 2.59484 1.39699 2.00394 2.12586 2.00394C1.67156 2.00394 1.77562 2.00394 1.31988 2.00394C0.591016 2.00394 0 2.59487 0 3.32378V6.71425H0.805977V3.32378Z" fill="#D63322"/>
<path d="M14.1375 3.18396V3.45873C14.1375 3.72583 13.921 3.74083 13.6539 3.74083H13.4927C13.2256 3.74083 13.0091 3.72583 13.0091 3.45873V3.184C12.7534 3.36244 12.5859 3.65861 12.5859 3.99408C12.5859 4.53939 13.028 4.98142 13.5733 4.98142C14.5404 4.98138 14.9245 3.73318 14.1375 3.18396Z" fill="#414356"/>
<path d="M9.1375 3.18396V3.45873C9.1375 3.72583 8.92102 3.70052 8.65391 3.70052H8.4927C8.22562 3.70052 8.0091 3.72583 8.0091 3.45873V3.184C7.7534 3.36244 7.58594 3.65861 7.58594 3.99408C7.58594 4.53939 8.02801 4.98142 8.57328 4.98142C9.11859 4.98142 9.56063 4.53939 9.56063 3.99408C9.56063 3.65861 9.39316 3.3624 9.1375 3.18396Z" fill="#414356"/>
<path d="M4.14065 3.18396V3.45873C4.14065 3.77013 3.84756 3.74083 3.49584 3.74083C3.22877 3.74083 3.01225 3.72583 3.01225 3.45873V3.184C2.22447 3.73376 2.61061 4.98142 3.57643 4.98142C4.12174 4.98142 4.56377 4.53939 4.56377 3.99408C4.56377 3.65861 4.39631 3.3624 4.14065 3.18396Z" fill="#414356"/>
<path d="M13.4323 3.99407C13.4323 3.97536 13.433 3.95684 13.434 3.9384C13.1946 3.90938 13.0091 3.7059 13.0091 3.45872V3.18399C12.7534 3.36243 12.5859 3.6586 12.5859 3.99407C12.5859 4.53938 13.028 4.98141 13.5733 4.98141C13.7247 4.98141 13.8682 4.94723 13.9964 4.88626C13.6629 4.72778 13.4323 4.3879 13.4323 3.99407Z" fill="#2F3242"/>
<path d="M8.43227 3.99407C8.43227 3.97536 8.43297 3.95684 8.43398 3.9384C8.19465 3.90938 8.0091 3.7059 8.0091 3.45872V3.18399C7.7534 3.36243 7.58594 3.6586 7.58594 3.99407C7.58594 4.53938 8.02801 4.98141 8.57328 4.98141C8.72473 4.98141 8.86816 4.94723 8.99645 4.88626C8.66289 4.72778 8.43227 4.3879 8.43227 3.99407Z" fill="#2F3242"/>
<path d="M3.43789 3.9384C3.19855 3.90938 3.01301 3.7059 3.01301 3.45872V3.18399C2.7573 3.36243 2.58984 3.6586 2.58984 3.99407C2.58984 4.72126 3.34938 5.19559 4.00031 4.88626C3.64664 4.71817 3.415 4.35079 3.43789 3.9384Z" fill="#2F3242"/>
<path d="M17.7078 6.71411H0V7.84251H17.7078V6.71411Z" fill="#F77C79"/>
<path d="M0.805977 6.71411H0V7.84251H0.805977V6.71411Z" fill="#DD6464"/>
<path d="M3.65652 0.288483C3.92363 0.288483 4.14012 0.505006 4.14012 0.772076V3.45872C4.14012 3.72583 3.92363 3.94231 3.65652 3.94231H3.49531C3.22824 3.94231 3.01172 3.72583 3.01172 3.45872V0.772076C3.01172 0.505006 3.22824 0.288483 3.49531 0.288483H3.65652Z" fill="#585A60"/>
<path d="M8.65262 0.288483C8.91973 0.288483 9.13621 0.505006 9.13621 0.772076V3.45872C9.13621 3.72583 8.91973 3.94231 8.65262 3.94231H8.49141C8.22434 3.94231 8.00781 3.72583 8.00781 3.45872V0.772076C8.00781 0.505006 8.22434 0.288483 8.49141 0.288483H8.65262Z" fill="#585A60"/>
<path d="M13.6526 0.288483C13.9197 0.288483 14.1362 0.505006 14.1362 0.772076V3.45872C14.1362 3.72583 13.9197 3.94231 13.6526 3.94231H13.4914C13.2243 3.94231 13.0078 3.72583 13.0078 3.45872V0.772076C13.0078 0.505006 13.2243 0.288483 13.4914 0.288483H13.6526Z" fill="#585A60"/>
<path d="M3.65652 0.288483C3.92363 0.288483 4.14012 0.505006 4.14012 0.772076V3.45872C4.14012 3.72583 3.92363 3.94231 3.65652 3.94231H3.49531C3.22824 3.94231 3.01172 3.72583 3.01172 3.45872V0.772076C3.01172 0.505006 3.22824 0.288483 3.49531 0.288483H3.65652Z" fill="#585A60"/>
<path d="M8.65262 0.288483C8.91973 0.288483 9.13621 0.505006 9.13621 0.772076V3.45872C9.13621 3.72583 8.91973 3.94231 8.65262 3.94231H8.49141C8.22434 3.94231 8.00781 3.72583 8.00781 3.45872V0.772076C8.00781 0.505006 8.22434 0.288483 8.49141 0.288483H8.65262Z" fill="#585A60"/>
<path d="M13.6526 0.288483C13.9197 0.288483 14.1362 0.505006 14.1362 0.772076V3.45872C14.1362 3.72583 13.9197 3.94231 13.6526 3.94231H13.4914C13.2243 3.94231 13.0078 3.72583 13.0078 3.45872V0.772076C13.0078 0.505006 13.2243 0.288483 13.4914 0.288483H13.6526Z" fill="#585A60"/>
<path d="M3.5759 3.45872V0.772076C3.5759 0.576998 3.69168 0.409342 3.85801 0.332858C3.7966 0.304655 3.72852 0.288483 3.65652 0.288483H3.49531C3.22824 0.288483 3.01172 0.505006 3.01172 0.772076V3.45872C3.01172 3.72583 3.22824 3.94231 3.49531 3.94231H3.65652C3.72855 3.94231 3.79664 3.92614 3.85801 3.89794C3.69168 3.82149 3.5759 3.65379 3.5759 3.45872Z" fill="#414356"/>
<path d="M8.57199 3.45872V0.772076C8.57199 0.576998 8.68777 0.409342 8.8541 0.332858C8.7927 0.304655 8.72461 0.288483 8.65262 0.288483H8.49141C8.22434 0.288483 8.00781 0.505006 8.00781 0.772076V3.45872C8.00781 3.72583 8.22434 3.94231 8.49141 3.94231H8.65262C8.72465 3.94231 8.79273 3.92614 8.8541 3.89794C8.68777 3.82149 8.57199 3.65379 8.57199 3.45872Z" fill="#414356"/>
<path d="M13.572 3.45872V0.772076C13.572 0.576998 13.6878 0.409342 13.8541 0.332858C13.7927 0.304655 13.7246 0.288483 13.6526 0.288483H13.4914C13.2243 0.288483 13.0078 0.505006 13.0078 0.772076V3.45872C13.0078 3.72583 13.2243 3.94231 13.4914 3.94231H13.6526C13.7246 3.94231 13.7927 3.92614 13.8541 3.89794C13.6878 3.82149 13.572 3.65379 13.572 3.45872Z" fill="#414356"/>
<path d="M6.58641 9.69449H5.59133C5.42441 9.69449 5.28906 9.8298 5.28906 9.99675C5.28906 10.1637 5.42441 10.299 5.59133 10.299H6.58641C6.75336 10.299 6.88867 10.1637 6.88867 9.99675C6.88867 9.82984 6.75336 9.69449 6.58641 9.69449Z" fill="#585A60"/>
<path d="M9.35215 9.69449H8.35695C8.19004 9.69449 8.05469 9.8298 8.05469 9.99675C8.05469 10.1637 8.19004 10.299 8.35695 10.299H9.35215C9.5191 10.299 9.65441 10.1637 9.65441 9.99675C9.65437 9.82984 9.5191 9.69449 9.35215 9.69449Z" fill="#585A60"/>
<path d="M12.1217 9.69449H11.1265C10.9596 9.69449 10.8242 9.8298 10.8242 9.99675C10.8242 10.1637 10.9596 10.299 11.1265 10.299H12.1217C12.2886 10.299 12.424 10.1637 12.424 9.99675C12.424 9.82984 12.2886 9.69449 12.1217 9.69449Z" fill="#585A60"/>
<path d="M14.8873 9.69449H13.8921C13.7252 9.69449 13.5898 9.8298 13.5898 9.99675C13.5898 10.1637 13.7252 10.299 13.8921 10.299H14.8873C15.0543 10.299 15.1896 10.1637 15.1896 9.99675C15.1895 9.82984 15.0543 9.69449 14.8873 9.69449Z" fill="#585A60"/>
<path d="M3.8209 12.1296H2.8257C2.65879 12.1296 2.52344 12.265 2.52344 12.4319C2.52344 12.5988 2.65879 12.7342 2.8257 12.7342H3.8209C3.98785 12.7342 4.12316 12.5989 4.12316 12.4319C4.12313 12.265 3.98785 12.1296 3.8209 12.1296Z" fill="#585A60"/>
<path d="M6.58641 12.1296H5.59133C5.42441 12.1296 5.28906 12.265 5.28906 12.4319C5.28906 12.5988 5.42441 12.7342 5.59133 12.7342H6.58641C6.75336 12.7342 6.88867 12.5989 6.88867 12.4319C6.88867 12.265 6.75336 12.1296 6.58641 12.1296Z" fill="#585A60"/>
<path d="M9.35215 12.1296H8.35695C8.19004 12.1296 8.05469 12.265 8.05469 12.4319C8.05469 12.5988 8.19004 12.7342 8.35695 12.7342H9.35215C9.5191 12.7342 9.65441 12.5989 9.65441 12.4319C9.65437 12.265 9.5191 12.1296 9.35215 12.1296Z" fill="#585A60"/>
<path d="M12.1217 12.1296H11.1265C10.9596 12.1296 10.8242 12.265 10.8242 12.4319C10.8242 12.5988 10.9596 12.7342 11.1265 12.7342H12.1217C12.2886 12.7342 12.424 12.5989 12.424 12.4319C12.424 12.265 12.2886 12.1296 12.1217 12.1296Z" fill="#585A60"/>
<path d="M14.8873 12.1296H13.8921C13.7252 12.1296 13.5898 12.265 13.5898 12.4319C13.5898 12.5988 13.7252 12.7342 13.8921 12.7342H14.8873C15.0543 12.7342 15.1896 12.5989 15.1896 12.4319C15.1895 12.265 15.0543 12.1296 14.8873 12.1296Z" fill="#585A60"/>
<path d="M3.8209 14.5648H2.8257C2.65879 14.5648 2.52344 14.7001 2.52344 14.8671C2.52344 15.034 2.65879 15.1693 2.8257 15.1693H3.8209C3.98785 15.1693 4.12316 15.034 4.12316 14.8671C4.12316 14.7001 3.98785 14.5648 3.8209 14.5648Z" fill="#585A60"/>
<path d="M6.58641 14.5648H5.59133C5.42441 14.5648 5.28906 14.7001 5.28906 14.8671C5.28906 15.034 5.42441 15.1693 5.59133 15.1693H6.58641C6.75336 15.1693 6.88867 15.034 6.88867 14.8671C6.88867 14.7001 6.75336 14.5648 6.58641 14.5648Z" fill="#585A60"/>
<path d="M9.35215 14.5648H8.35695C8.19004 14.5648 8.05469 14.7001 8.05469 14.8671C8.05469 15.034 8.19004 15.1693 8.35695 15.1693H9.35215C9.5191 15.1693 9.65441 15.034 9.65441 14.8671C9.65441 14.7001 9.5191 14.5648 9.35215 14.5648Z" fill="#585A60"/>
<path d="M12.1217 14.5648H11.1265C10.9596 14.5648 10.8242 14.7001 10.8242 14.8671C10.8242 15.034 10.9596 15.1693 11.1265 15.1693H12.1217C12.2886 15.1693 12.424 15.034 12.424 14.8671C12.424 14.7001 12.2886 14.5648 12.1217 14.5648Z" fill="#585A60"/>
<path d="M14.8873 14.5648H13.8921C13.7252 14.5648 13.5898 14.7001 13.5898 14.8671C13.5898 15.034 13.7252 15.1693 13.8921 15.1693H14.8873C15.0543 15.1693 15.1896 15.034 15.1896 14.8671C15.1896 14.7001 15.0543 14.5648 14.8873 14.5648Z" fill="#585A60"/>
<path d="M3.8209 17H2.8257C2.65879 17 2.52344 17.1353 2.52344 17.3023C2.52344 17.4692 2.65879 17.6045 2.8257 17.6045H3.8209C3.98785 17.6045 4.12316 17.4692 4.12316 17.3023C4.12313 17.1353 3.98785 17 3.8209 17Z" fill="#585A60"/>
<path d="M6.58641 17H5.59133C5.42441 17 5.28906 17.1353 5.28906 17.3023C5.28906 17.4692 5.42441 17.6045 5.59133 17.6045H6.58641C6.75336 17.6045 6.88867 17.4692 6.88867 17.3023C6.88867 17.1353 6.75336 17 6.58641 17Z" fill="#585A60"/>
<path d="M9.35215 17H8.35695C8.19004 17 8.05469 17.1353 8.05469 17.3023C8.05469 17.4692 8.19004 17.6045 8.35695 17.6045H9.35215C9.5191 17.6045 9.65441 17.4692 9.65441 17.3023C9.65437 17.1353 9.5191 17 9.35215 17Z" fill="#585A60"/>
<path d="M12.1217 17H11.1265C10.9596 17 10.8242 17.1353 10.8242 17.3023C10.8242 17.4692 10.9596 17.6045 11.1265 17.6045H12.1217C12.2886 17.6045 12.424 17.4692 12.424 17.3023C12.424 17.1353 12.2886 17 12.1217 17Z" fill="#585A60"/>
</g>
<defs>
<clipPath id="clip0_1206_801">
<rect width="20" height="20" fill="white"/>
</clipPath>
</defs>
</svg>
