<svg width="30" height="30" viewBox="0 0 30 30" fill="none" xmlns="http://www.w3.org/2000/svg">
<path d="M10.2179 26.961L10.0887 26.7411C7.87152 22.9637 1.98102 14.9488 1.92177 14.868L1.84619 14.7654L3.83081 12.8043L10.1847 17.2408C14.1876 12.0446 17.9222 8.47666 20.3576 6.39351C23.0186 4.11732 24.7508 3.07043 24.768 3.05982L24.803 3.03882H28.1539L27.8646 3.29647C23.4962 7.18736 18.9661 13.3522 15.9349 17.8392C12.6482 22.7045 10.3668 26.6996 10.3441 26.7394L10.2179 26.961Z" fill="#00AAB3"/>
<path d="M24.8031 3.03882L24.7681 3.05982C24.7508 3.07015 23.0188 4.11732 20.3577 6.39351C17.9223 8.47666 14.1877 12.0446 10.185 17.2411L10.0889 26.7411L10.218 26.961L10.3442 26.7394C10.3669 26.6996 12.6483 22.7045 15.9351 17.8392C18.9662 13.3525 23.4963 7.18736 27.8647 3.29647L28.154 3.03882H24.8031Z" fill="black"/>
</svg>
