<svg width="30" height="30" viewBox="0 0 30 30" fill="none" xmlns="http://www.w3.org/2000/svg">
<path fill-rule="evenodd" clip-rule="evenodd" d="M11.1693 1.97134C13.0467 -0.657115 16.9532 -0.657115 18.8307 1.97134L19.1297 2.3898C19.46 2.8524 20.0148 3.10009 20.5798 3.03733L21.912 2.88929C24.9104 2.55615 27.4439 5.08962 27.1107 8.08794L26.9628 9.42022C26.9 9.9852 27.1476 10.54 27.6102 10.8704L28.0287 11.1693C30.6571 13.0467 30.6571 16.9532 28.0287 18.8307L27.6102 19.1297C27.1476 19.46 26.9 20.0148 26.9628 20.5798L27.1107 21.912C27.4439 24.9104 24.9104 27.4439 21.912 27.1107L20.5798 26.9628C20.0148 26.9 19.46 27.1476 19.1297 27.6102L18.8307 28.0287C16.9532 30.6571 13.0469 30.6571 11.1693 28.0287L10.8704 27.6102C10.54 27.1476 9.9852 26.9 9.4202 26.9628L8.08794 27.1107C5.08962 27.4439 2.55615 24.9104 2.88929 21.912L3.03733 20.5798C3.10009 20.0148 2.8524 19.46 2.3898 19.1297L1.97134 18.8307C-0.657115 16.9532 -0.657115 13.0469 1.97134 11.1693L2.3898 10.8704C2.8524 10.54 3.10009 9.9852 3.03733 9.4202L2.88929 8.08794C2.55615 5.08962 5.08962 2.55615 8.08794 2.88929L9.42022 3.03733C9.9852 3.10009 10.54 2.8524 10.8704 2.3898L11.1693 1.97134ZM20.8172 10.752C21.4299 11.3649 21.4299 12.3584 20.8172 12.9712L14.8246 18.9638C14.0549 19.7336 12.8068 19.7336 12.0371 18.9638L9.18286 16.1096C8.57006 15.4968 8.57006 14.5032 9.18286 13.8904C9.79568 13.2777 10.7892 13.2777 11.402 13.8904L13.4308 15.9193L18.598 10.752C19.2108 10.1392 20.2044 10.1392 20.8172 10.752Z" fill="#CFDCFD"/>
</svg>
