<svg width="76" height="78" viewBox="0 0 76 78" fill="none" xmlns="http://www.w3.org/2000/svg">
<g clip-path="url(#clip0_1068_732)">
<path d="M56.7521 28.5103L55.3537 29.3151C54.9737 29.5135 54.5177 29.2589 54.5177 28.806V13.2652C54.5177 12.9957 54.3847 12.7449 54.1643 12.5914L38.1815 3.69436C37.8927 3.49599 37.5089 3.49599 37.2201 3.69436L21.2867 12.5877C21.0663 12.7412 20.9333 12.9919 20.9333 13.2614V28.7536C20.9333 29.2065 20.5115 29.5621 20.0973 29.3113L18.7749 28.5665C18.2733 28.2783 17.9883 28.0312 17.9883 27.5783V11.7567C17.9883 11.4873 18.1213 11.2402 18.3417 11.083L37.2201 0.14976C37.5089 -0.0486179 37.8927 -0.0486179 38.1815 0.14976L57.1093 11.083C57.3335 11.2365 57.4627 11.4873 57.4627 11.7567L57.5843 27.0693C57.5843 27.6607 57.4779 28.0761 56.7483 28.5103" fill="white"/>
<path d="M50.6278 19.4037L48.9444 18.322C48.4618 18.0038 48.4504 17.3114 48.914 16.9745L50.5898 15.7618C50.909 15.4474 51.3498 15.5896 51.3498 16.05L51.3802 19.0706C51.3802 19.4224 51.0268 19.6096 50.624 19.3999" fill="white"/>
<path d="M24.1288 17.9403V15.4251C24.1288 15.0844 24.2618 14.931 24.5012 14.7962L37.615 7.3215C37.9152 7.14932 38.109 7.14558 38.4168 7.32899L40.5524 8.54545C40.921 8.7588 40.883 9.0283 40.5296 9.1855L24.7862 18.1687C24.4632 18.3334 24.125 18.2847 24.125 17.9403" fill="white"/>
<path d="M51.3082 26.2231V23.7078C51.3082 23.3672 51.1752 23.2138 50.9358 23.079L38.7948 16.1433C38.4946 15.9711 38.3008 15.9674 37.9892 16.1508L35.8536 17.3672C35.485 17.5806 35.523 17.8501 35.8764 18.0073L50.647 26.4514C50.9662 26.6161 51.3082 26.5675 51.3082 26.2231Z" fill="white"/>
<path d="M27.2242 33.4098L25.2482 32.2719C24.9898 32.1222 24.872 31.7517 25.1798 31.5645L37.4842 24.5427C37.7844 24.3705 37.9782 24.3668 38.2898 24.5502L40.4254 25.7666C40.794 25.98 40.756 26.2495 40.4026 26.4067L28.1666 33.3612C27.8056 33.5633 27.5738 33.6157 27.2204 33.4136" fill="white"/>
<path d="M37.5484 24.5018L35.5724 25.6396C35.314 25.7894 35.1962 26.1599 35.504 26.3471L47.6944 33.3128C47.9946 33.4849 48.1884 33.4887 48.5 33.3053L50.6356 32.0888C51.0042 31.8754 50.9662 31.6059 50.6128 31.4487L38.4946 24.5504C38.1336 24.3483 37.9018 24.2959 37.5484 24.498" fill="white"/>
<path d="M24.1289 26.4292V24.0712C24.1365 23.7567 24.2391 23.5097 24.4747 23.375L45.1011 11.607C45.4013 11.4349 45.6179 11.4236 45.9257 11.5995L48.1639 12.8909C48.3083 12.9882 48.3995 13.2951 48.0423 13.5122L24.8281 26.7624C24.5431 26.8971 24.1289 26.8148 24.1289 26.4255" fill="white"/>
<path d="M38.1036 39.1815L42.352 36.8271C42.922 36.5127 42.9296 35.708 42.3634 35.3823L38.2252 32.9906C37.963 32.8371 37.64 32.8371 37.374 32.9906L33.1484 35.3973C32.586 35.7192 32.586 36.5165 33.1484 36.8384L37.2638 39.1777C37.5222 39.3237 37.8414 39.3275 38.0998 39.1815" fill="white"/>
<path d="M8.69831 58.6752C8.93391 58.5667 9.15051 58.3907 9.35191 58.1437C9.55331 57.9116 9.70151 57.6683 9.79651 57.4063C9.90671 57.1743 9.95991 56.9085 9.95991 56.6016C9.95991 56.0476 9.75091 55.5723 9.32911 55.1718C8.92251 54.79 8.32971 54.5954 7.55071 54.5954H3.99771C3.79631 54.5954 3.62151 54.6627 3.48471 54.8012C3.34411 54.9397 3.27571 55.1081 3.27571 55.3065V58.1624C3.27571 58.3608 3.34791 58.533 3.48471 58.6677C3.62531 58.8062 3.79631 58.8736 3.99771 58.8736H7.90411C8.20051 58.8736 8.46651 58.8062 8.69831 58.6677M3.99771 51.7357H7.29611C7.62291 51.7357 7.91171 51.6758 8.16251 51.5523C8.37911 51.4438 8.58431 51.2828 8.77051 51.0695C8.92631 50.8861 9.05171 50.654 9.14291 50.3808C9.22271 50.1674 9.26071 49.9129 9.26071 49.6209C9.26071 49.3776 9.21511 49.1381 9.12011 48.906C9.00991 48.644 8.88451 48.4456 8.74391 48.3072C8.60331 48.1537 8.42471 48.0152 8.20431 47.8917C8.00291 47.7831 7.77491 47.7307 7.52791 47.7307H3.99771C3.79631 47.7307 3.62151 47.7981 3.48471 47.9366C3.34411 48.0751 3.27571 48.2435 3.27571 48.4419V51.0208C3.27571 51.2192 3.34791 51.3914 3.48471 51.5261C3.62531 51.6646 3.79631 51.732 3.99771 51.732M12.3235 50.6503C12.1677 51.0508 11.9815 51.4026 11.7611 51.7095C11.5255 52.0314 11.2291 52.3009 10.8719 52.5143C10.7161 52.6228 10.5375 52.7126 10.3323 52.7912C10.1765 52.8362 10.1043 52.8736 10.1233 52.896C10.1385 52.9185 10.2335 52.9522 10.4045 53.0009C10.6211 53.0795 10.8263 53.1543 11.0125 53.2329C11.4191 53.4313 11.7839 53.7158 12.1107 54.0863C12.4527 54.4419 12.7263 54.8461 12.9277 55.3065C13.1291 55.7519 13.2317 56.2348 13.2317 56.7588C13.2317 57.6796 13.0911 58.4619 12.8099 59.1094C12.5135 59.7682 12.1335 60.2847 11.6623 60.6515C11.1949 61.052 10.6325 61.329 9.97891 61.4824C9.65211 61.561 9.31771 61.6209 8.97191 61.6659C8.62991 61.7108 8.26891 61.737 7.89651 61.737H0.725906C0.524506 61.737 0.349706 61.6659 0.212906 61.5311C0.0723063 61.3926 0.00390625 61.2242 0.00390625 61.0258V45.5935C0.00390625 45.3951 0.0723063 45.2229 0.212906 45.0882C0.353506 44.9534 0.524506 44.8823 0.725906 44.8823H7.52791C7.88511 44.8823 8.22331 44.8973 8.53491 44.9272C8.84651 44.9572 9.15811 45.0058 9.46971 45.0657C10.1081 45.2192 10.6401 45.4662 11.0581 45.8031C11.5255 46.14 11.8827 46.6191 12.1335 47.2329C12.3995 47.8018 12.5325 48.5766 12.5325 49.5611C12.5325 49.9129 12.4641 50.2834 12.3235 50.6652" fill="white"/>
<path d="M20.1116 48.4491V51.2376C20.1116 51.436 20.18 51.6044 20.3206 51.7429C20.4612 51.8814 20.6322 51.9487 20.8336 51.9487H27.6622C27.8636 51.9487 28.0384 52.0199 28.1752 52.1584C28.3158 52.2968 28.3842 52.4653 28.3842 52.6637V54.1608C28.3842 54.3592 28.312 54.5277 28.1752 54.6662C28.0346 54.8046 27.8636 54.872 27.6622 54.872H20.8336C20.6322 54.872 20.4612 54.9431 20.3206 55.0779C20.18 55.2164 20.1116 55.3848 20.1116 55.5832V58.1172C20.1116 58.3156 20.18 58.4877 20.3206 58.6225C20.4612 58.761 20.6322 58.8283 20.8336 58.8283H28.7148C28.9162 58.8283 29.0872 58.8995 29.2278 59.038C29.3684 59.1764 29.4368 59.3449 29.4368 59.5433V61.018C29.4368 61.2164 29.3684 61.3885 29.2278 61.5233C29.0872 61.6618 28.9162 61.7292 28.7148 61.7292H17.5618C17.3566 61.7292 17.1856 61.658 17.0488 61.5233C16.9082 61.3848 16.8398 61.2164 16.8398 61.018V45.5857C16.8398 45.3873 16.9082 45.2151 17.0488 45.0804C17.1894 44.9456 17.3604 44.8745 17.5618 44.8745H28.7148C28.9162 44.8745 29.0872 44.9419 29.2278 45.0804C29.3684 45.2189 29.4368 45.3873 29.4368 45.5857V47.0155C29.4368 47.2139 29.3684 47.3861 29.2278 47.5208C29.0872 47.6593 28.9162 47.7267 28.7148 47.7267H20.8336C20.6322 47.7267 20.4612 47.794 20.3206 47.9325C20.18 48.071 20.1116 48.2395 20.1116 48.4378" fill="white"/>
<path d="M45.718 59.596V61.0258C45.718 61.2242 45.6496 61.3964 45.509 61.5311C45.3684 61.6696 45.1974 61.737 44.996 61.737H34.1204C33.919 61.737 33.7442 61.6659 33.6074 61.5311C33.4668 61.3926 33.3984 61.2242 33.3984 61.0258V45.5935C33.3984 45.3951 33.4668 45.2229 33.6074 45.0882C33.748 44.9497 33.919 44.8823 34.1204 44.8823H35.9444C36.1458 44.8823 36.3168 44.9497 36.4574 45.0882C36.598 45.2267 36.6664 45.3951 36.6664 45.5935V58.1699C36.6664 58.3683 36.7386 58.5405 36.8754 58.6752C37.016 58.8137 37.187 58.8811 37.3884 58.8811H44.9884C45.1898 58.8811 45.3608 58.9522 45.5014 59.0869C45.642 59.2254 45.7104 59.3939 45.7104 59.5922" fill="white"/>
<path d="M60.6829 59.596V61.0258C60.6829 61.2242 60.6145 61.3964 60.4739 61.5311C60.3333 61.6696 60.1623 61.737 59.9609 61.737H49.0853C48.8839 61.737 48.7091 61.6659 48.5723 61.5311C48.4317 61.3926 48.3633 61.2242 48.3633 61.0258V45.5935C48.3633 45.3951 48.4317 45.2229 48.5723 45.0882C48.7129 44.9497 48.8839 44.8823 49.0853 44.8823H50.9093C51.1107 44.8823 51.2817 44.9497 51.4223 45.0882C51.5629 45.2267 51.6313 45.3951 51.6313 45.5935V58.1699C51.6313 58.3683 51.7035 58.5405 51.8403 58.6752C51.9809 58.8137 52.1519 58.8811 52.3533 58.8811H59.9533C60.1547 58.8811 60.3257 58.9522 60.4663 59.0869C60.6069 59.2254 60.6753 59.3939 60.6753 59.5922" fill="white"/>
<path d="M62.5559 58.952L63.5363 57.5222C63.6465 57.3537 63.7947 57.2527 63.9809 57.2227C64.1671 57.1928 64.3457 57.2302 64.5205 57.3388C65.2235 57.7692 65.9075 58.136 66.5763 58.4429C67.4655 58.8734 68.4231 59.0867 69.4529 59.0867C69.9811 59.0867 70.4485 59.0194 70.8551 58.8809C71.2275 58.7723 71.5733 58.6039 71.8849 58.3756C72.1661 58.1622 72.3751 57.9227 72.5157 57.6607C72.6563 57.4136 72.7247 57.1554 72.7247 56.8784C72.7247 56.5565 72.6145 56.2645 72.3979 56.0025C72.1965 55.7892 71.9153 55.5945 71.5543 55.4261C71.3833 55.3475 71.1971 55.2801 70.9919 55.2165C70.7905 55.1566 70.5625 55.093 70.3155 55.0331C70.0799 54.9732 69.8443 54.9171 69.6011 54.8721C69.3579 54.8272 69.1071 54.7786 68.8411 54.7337C68.6701 54.7037 68.4839 54.67 68.2787 54.6288C68.0773 54.5914 67.8645 54.5465 67.6479 54.5016C67.1957 54.4417 66.7283 54.3257 66.2457 54.1572C65.7479 54.0187 65.2729 53.8279 64.8207 53.5808C64.3533 53.3487 63.9315 53.0493 63.5591 52.6825C63.1829 52.3456 62.8827 51.9152 62.6471 51.3912C62.4305 50.8859 62.3203 50.302 62.3203 49.6395C62.3203 48.6738 62.5217 47.8503 62.9283 47.1766C63.3159 46.5478 63.8327 46.035 64.4711 45.6345C65.0791 45.2826 65.7821 45.0206 66.5763 44.8522C67.3097 44.6987 68.0583 44.6201 68.8221 44.6201C69.5403 44.6201 70.1787 44.665 70.7411 44.7586C71.0223 44.8035 71.2921 44.8634 71.5467 44.9308C71.8051 45.0019 72.0559 45.073 72.3067 45.1516C72.5537 45.2452 72.7969 45.3463 73.0325 45.4623C73.2681 45.5783 73.4923 45.6981 73.7089 45.8179C73.8647 45.9114 74.0129 46.0013 74.1535 46.0949C74.2941 46.1884 74.4499 46.2783 74.6209 46.3718C74.7919 46.4954 74.8945 46.6488 74.9249 46.8322C74.9553 47.0156 74.9097 47.1953 74.7843 47.3637L73.8039 48.7449C73.6785 48.9133 73.5189 49.0144 73.3251 49.0443C73.1313 49.0743 72.9489 49.0368 72.7741 48.9283C72.1661 48.5428 71.5885 48.2508 71.0451 48.0524C70.3117 47.7605 69.5251 47.6145 68.6815 47.6145C68.5409 47.6145 68.3889 47.622 68.2255 47.637C68.0621 47.6519 67.8949 47.6744 67.7239 47.7081C67.3667 47.7867 67.0247 47.899 66.6941 48.0524C66.5383 48.131 66.3939 48.2134 66.2609 48.307C66.1279 48.4005 66.0063 48.5053 65.8999 48.6289C65.6985 48.8759 65.5959 49.1678 65.5959 49.5047C65.5959 49.8416 65.7213 50.126 65.9721 50.3581C66.2229 50.5902 66.5421 50.7811 66.9297 50.9345C67.1311 51.0131 67.3401 51.0805 67.5491 51.1404C67.7619 51.2003 67.9823 51.2639 68.2141 51.3238C68.4497 51.3837 68.6777 51.4398 68.9057 51.4847C69.1299 51.5297 69.3541 51.5858 69.5707 51.6457C69.7417 51.6756 69.9203 51.7168 70.1103 51.7617C70.2965 51.8066 70.5017 51.8478 70.7183 51.8778C70.9349 51.9077 71.1629 51.9526 71.3947 52.005C71.6265 52.0574 71.8621 52.1248 72.0977 52.1997C72.2231 52.2296 72.3523 52.2708 72.4853 52.3157C72.6183 52.3606 72.7475 52.4093 72.8729 52.4542C73.0591 52.5328 73.2757 52.6301 73.5151 52.7536C73.7583 52.8771 73.9635 53.0007 74.1345 53.1242C74.2599 53.2028 74.3701 53.2814 74.4727 53.3675C74.5753 53.4498 74.6703 53.5396 74.7653 53.6332C75.1567 54.015 75.4493 54.4604 75.6545 54.9695C75.8901 55.5085 76.0041 56.1522 76.0041 56.9046C76.0041 57.7655 75.8483 58.5253 75.5367 59.1841C75.2251 59.8279 74.7805 60.3594 74.2029 60.7748C73.6101 61.2202 72.9261 61.5421 72.1433 61.7405C71.3149 61.9539 70.4371 62.0624 69.5023 62.0624C68.5675 62.0624 67.8113 61.995 67.1387 61.8565C66.5003 61.748 65.8847 61.5721 65.2919 61.325C65.0107 61.2165 64.7371 61.1005 64.4749 60.9695C64.2089 60.8385 63.9543 60.6962 63.7035 60.5428C63.5477 60.4492 63.3919 60.3556 63.2361 60.2546C63.0803 60.1535 62.9169 60.0449 62.7459 59.9214C62.5749 59.8129 62.4723 59.6669 62.4419 59.4835C62.4115 59.3001 62.4495 59.1242 62.5597 58.952" fill="white"/>
<path d="M50.6278 19.4037L48.9444 18.322C48.4618 18.0038 48.4504 17.3114 48.914 16.9745L50.5898 15.7618C50.909 15.4474 51.3498 15.5896 51.3498 16.05L51.3802 19.0706C51.3802 19.4224 51.0268 19.6096 50.624 19.3999" fill="white"/>
</g>
<defs>
<clipPath id="clip0_1068_732">
<rect width="76" height="78" fill="white"/>
</clipPath>
</defs>
</svg>
