<svg width="255" height="151" viewBox="0 0 255 151" fill="none" xmlns="http://www.w3.org/2000/svg">
<path d="M0 147.684V118.666C0 117.599 0.566781 116.612 1.48851 116.074L198.819 0.978305C199.84 0.383008 201.115 0.442229 202.076 1.12957L223.867 16.715C225.665 18.0006 225.503 20.7224 223.565 21.7853L161.301 55.9464C159.266 57.0629 159.215 59.9683 161.21 61.1549L253.534 116.07C254.443 116.611 255 117.591 255 118.649V143.924C255 146.229 252.508 147.673 250.508 146.527L129.032 76.8907C128.086 76.3488 126.922 76.362 125.989 76.9252L4.5507 150.252C2.55128 151.459 0 150.02 0 147.684Z" fill="white" fill-opacity="0.2"/>
<path d="M249.189 39.8076L225.017 58.5451C224.284 59.1133 223.855 59.9886 223.855 60.9161V61.7104C223.855 62.7288 224.372 63.6777 225.227 64.2303L249.399 79.8449C251.395 81.1344 254.027 79.7014 254.027 77.3249V42.1787C254.027 39.6845 251.16 38.2795 249.189 39.8076Z" fill="white" fill-opacity="0.2"/>
</svg>
