<svg width="179" height="135" viewBox="0 0 179 135" fill="none" xmlns="http://www.w3.org/2000/svg">
<path fill-rule="evenodd" clip-rule="evenodd" d="M0 107.347L60.9872 70.4689C61.9207 69.9044 63.0871 69.8912 64.0332 70.4343L174.506 133.854C176.506 135.002 179 133.558 179 131.252V108.711C179 107.654 178.444 106.675 177.535 106.134L93.6828 56.1857C91.6901 54.9987 91.7406 52.096 93.7735 50.9791L149.924 20.1285C151.859 19.0652 152.021 16.3461 150.226 15.0603L130.779 1.13224C129.818 0.44343 128.541 0.384097 127.519 0.98074L0 75.4649V107.347ZM151.702 53.4941L173.271 36.7506C175.242 35.2205 178.111 36.6252 178.111 39.1203V70.2824C178.111 72.6598 175.477 74.0926 173.481 72.8013L151.913 58.8484C151.058 58.2956 150.542 57.3472 150.542 56.3295V55.8639C150.542 54.9371 150.97 54.0624 151.702 53.4941Z" fill="white" fill-opacity="0.2"/>
</svg>
