<svg width="19" height="23" viewBox="0 0 19 23" fill="none" xmlns="http://www.w3.org/2000/svg">
<path d="M17.8688 9.66001L2.86875 0.285006C2.58466 0.107447 2.25818 0.00924828 1.92328 0.000621837C1.58838 -0.00800461 1.25728 0.0732572 0.964419 0.235955C0.671562 0.398653 0.427646 0.636845 0.258039 0.925755C0.088433 1.21467 -0.000667477 1.54374 3.76475e-06 1.87876V20.6288C0.00243717 20.9629 0.0941058 21.2903 0.265525 21.5771C0.436943 21.8639 0.681886 22.0996 0.975005 22.26C1.24655 22.4232 1.55819 22.5076 1.875 22.5038C2.22605 22.5049 2.57036 22.4074 2.86875 22.2225L17.8688 12.8475C18.1401 12.6794 18.364 12.4447 18.5193 12.1658C18.6745 11.8869 18.756 11.573 18.756 11.2538C18.756 10.9345 18.6745 10.6206 18.5193 10.3417C18.364 10.0628 18.1401 9.82816 17.8688 9.66001Z" fill="#CFDCFD"/>
<path d="M18.75 11.2538H0V20.6288C0.0024334 20.9629 0.094102 21.2903 0.265521 21.5771C0.43694 21.8639 0.681882 22.0996 0.975001 22.26C1.24655 22.4232 1.55819 22.5076 1.875 22.5038C2.22605 22.5049 2.57036 22.4074 2.86875 22.2225L17.8688 12.8475C18.139 12.6786 18.3617 12.4437 18.5159 12.1648C18.6701 11.886 18.7506 11.5724 18.75 11.2538Z" fill="#00AAB3"/>
</svg>
