<svg width="66" height="66" viewBox="0 0 66 66" fill="none" xmlns="http://www.w3.org/2000/svg">
<g clip-path="url(#clip0_574_534)">
<path d="M22.0325 34.3377H20.0593C19.5417 34.3377 19.0744 34.6459 18.8696 35.1206L13.4072 47.8397L26.3798 41.2141C24.8268 39.0653 23.2904 36.6953 22.0325 34.3377Z" fill="white"/>
<path d="M47.1303 35.1206C46.9258 34.6459 46.4582 34.3377 45.9409 34.3377H43.9677C41.5923 38.789 38.1317 43.389 35.9302 45.9198C34.382 47.6956 31.6165 47.6936 30.0707 45.9198C29.9126 45.7382 29.0871 44.7825 27.9501 43.3128L25.6113 44.5079L34.4582 53.3376L51.2214 44.6472L47.1303 35.1206Z" fill="white"/>
<path d="M11.8114 51.5568L11.1057 53.2C10.7405 54.0503 11.3662 55 12.2951 55H31.2917C31.4105 54.9117 31.4118 54.9171 32.0497 54.5864L23.1897 45.7449L11.8114 51.5568Z" fill="white"/>
<path d="M54.8943 53.2L52.2437 47.028L36.8662 55H53.7049C54.6318 55 55.2602 54.052 54.8943 53.2Z" fill="white"/>
<path d="M34.2943 22.6294C34.2943 21.9171 33.7135 21.338 33.0002 21.338C32.2865 21.338 31.7061 21.9171 31.7061 22.6294C31.7061 23.3414 32.2865 23.9208 33.0002 23.9208C33.7135 23.9208 34.2943 23.3414 34.2943 22.6294Z" fill="white"/>
<path d="M33.9766 44.139C34.4123 43.6388 44.6466 31.8002 44.6466 23.6624C44.6466 6.88172 21.3535 6.67694 21.3535 23.6624C21.3535 31.8002 31.5878 43.6388 32.0235 44.139C32.5395 44.7308 33.4616 44.7301 33.9766 44.139ZM29.1178 22.6294C29.1178 20.4931 30.8593 18.7552 33.0001 18.7552C35.1404 18.7552 36.882 20.4931 36.882 22.6294C36.882 24.7654 35.1404 26.5033 33.0001 26.5033C30.8593 26.5033 29.1178 24.7654 29.1178 22.6294Z" fill="white"/>
</g>
<circle cx="33" cy="33" r="32" stroke="white" stroke-width="2"/>
<defs>
<clipPath id="clip0_574_534">
<rect width="44" height="44" fill="white" transform="translate(11 11)"/>
</clipPath>
</defs>
</svg>
