<svg width="76" height="78" viewBox="0 0 76 78" fill="none" xmlns="http://www.w3.org/2000/svg">
<g clip-path="url(#clip0_1068_755)">
<path d="M56.7521 28.5102L55.3537 29.315C54.9737 29.5133 54.5177 29.2588 54.5177 28.8059V13.265C54.5177 12.9956 54.3847 12.7448 54.1643 12.5913L38.1815 3.69424C37.8927 3.49586 37.5089 3.49586 37.2201 3.69424L21.2867 12.5876C21.0663 12.741 20.9333 12.9918 20.9333 13.2613V28.7535C20.9333 29.2064 20.5115 29.562 20.0973 29.3112L18.7749 28.5664C18.2733 28.2781 17.9883 28.0311 17.9883 27.5782V11.7566C17.9883 11.4871 18.1213 11.2401 18.3417 11.0829L37.2201 0.149638C37.5089 -0.04874 37.8927 -0.04874 38.1815 0.149638L57.1093 11.0829C57.3335 11.2364 57.4627 11.4871 57.4627 11.7566L57.5843 27.0692C57.5843 27.6606 57.4779 28.076 56.7483 28.5102" fill="#00AAB3"/>
<path d="M50.6278 19.4036L48.9444 18.3218C48.4618 18.0037 48.4504 17.3112 48.914 16.9744L50.5898 15.7616C50.909 15.4472 51.3498 15.5895 51.3498 16.0499L51.3802 19.0704C51.3802 19.4223 51.0268 19.6094 50.624 19.3998" fill="#00AAB3"/>
<path d="M24.1288 17.9401V15.4248C24.1288 15.0842 24.2618 14.9307 24.5012 14.796L37.615 7.32125C37.9152 7.14908 38.109 7.14533 38.4168 7.32874L40.5524 8.54521C40.921 8.75856 40.883 9.02805 40.5296 9.18526L24.7862 18.1684C24.4632 18.3331 24.125 18.2844 24.125 17.9401" fill="#00AAB3"/>
<path d="M51.3082 26.2232V23.708C51.3082 23.3674 51.1752 23.2139 50.9358 23.0791L38.7948 16.1434C38.4946 15.9712 38.3008 15.9675 37.9892 16.1509L35.8536 17.3674C35.485 17.5807 35.523 17.8502 35.8764 18.0074L50.647 26.4516C50.9662 26.6163 51.3082 26.5676 51.3082 26.2232Z" fill="#00AAB3"/>
<path d="M27.2242 33.4098L25.2482 32.2719C24.9898 32.1222 24.872 31.7517 25.1798 31.5645L37.4842 24.5427C37.7844 24.3705 37.9782 24.3668 38.2898 24.5502L40.4254 25.7666C40.794 25.98 40.756 26.2495 40.4026 26.4067L28.1666 33.3612C27.8056 33.5633 27.5738 33.6157 27.2204 33.4136" fill="#00AAB3"/>
<path d="M37.5484 24.5015L35.5724 25.6394C35.314 25.7891 35.1962 26.1597 35.504 26.3468L47.6944 33.3125C47.9946 33.4847 48.1884 33.4884 48.5 33.305L50.6356 32.0886C51.0042 31.8752 50.9662 31.6057 50.6128 31.4485L38.4946 24.5502C38.1336 24.3481 37.9018 24.2957 37.5484 24.4978" fill="#00AAB3"/>
<path d="M24.1289 26.4291V24.071C24.1365 23.7566 24.2391 23.5096 24.4747 23.3748L45.1011 11.6069C45.4013 11.4347 45.6179 11.4235 45.9257 11.5994L48.1639 12.8908C48.3083 12.9881 48.3995 13.295 48.0423 13.5121L24.8281 26.7622C24.5431 26.897 24.1289 26.8146 24.1289 26.4254" fill="#00AAB3"/>
<path d="M38.1036 39.1815L42.352 36.8271C42.922 36.5127 42.9296 35.708 42.3634 35.3823L38.2252 32.9906C37.963 32.8371 37.64 32.8371 37.374 32.9906L33.1484 35.3973C32.586 35.7192 32.586 36.5165 33.1484 36.8384L37.2638 39.1777C37.5222 39.3237 37.8414 39.3275 38.0998 39.1815" fill="#00AAB3"/>
<path d="M26.3896 69.1264V75.8787H25.185V69.1264H23V68.0634H28.5746V69.1264H26.3896Z" fill="#00AAB3"/>
<path d="M29.9414 75.8787V68.0634H35.0144V69.1264H31.146V71.4096H34.4444V72.4651H31.146V74.812H35.0144V75.8787H29.9414Z" fill="#00AAB3"/>
<path d="M41.7065 74.5726C41.5393 74.872 41.3303 75.1265 41.0833 75.3286C40.8363 75.5308 40.5513 75.688 40.2359 75.789C39.9205 75.8901 39.5823 75.9425 39.2289 75.9425C38.8109 75.9425 38.4309 75.8714 38.0813 75.7291C37.7317 75.5869 37.4201 75.381 37.1465 75.1078C36.9527 74.9169 36.8045 74.7148 36.7019 74.5052C36.5993 74.2918 36.5233 74.0635 36.4739 73.8127C36.4245 73.5619 36.3979 73.2887 36.3903 72.9855C36.3827 72.6823 36.3789 72.3417 36.3789 71.9712C36.3789 71.6006 36.3789 71.26 36.3903 70.9568C36.3979 70.6537 36.4245 70.3767 36.4739 70.1296C36.5233 69.8789 36.5993 69.6505 36.7019 69.4372C36.8045 69.2238 36.9527 69.0255 37.1465 68.8346C37.4201 68.5651 37.7317 68.3555 38.0813 68.2132C38.4309 68.071 38.8147 67.9999 39.2289 67.9999C39.9623 67.9999 40.5855 68.2057 41.0909 68.6137C41.5963 69.0255 41.9193 69.6206 42.0599 70.4029H40.8325C40.7375 70.0061 40.5551 69.6842 40.2929 69.4372C40.0307 69.1901 39.6735 69.0629 39.2289 69.0629C38.9895 69.0629 38.7729 69.1041 38.5715 69.1901C38.3701 69.2762 38.1991 69.3885 38.0585 69.5345C37.9635 69.6356 37.8837 69.7478 37.8191 69.8676C37.7545 69.9874 37.7089 70.1371 37.6747 70.3168C37.6405 70.4964 37.6177 70.7173 37.6025 70.9793C37.5873 71.2413 37.5797 71.5707 37.5797 71.9674C37.5797 72.3642 37.5873 72.6936 37.6025 72.9556C37.6177 73.2176 37.6405 73.4422 37.6747 73.6181C37.7089 73.7978 37.7545 73.9475 37.8191 74.0672C37.8799 74.187 37.9597 74.2993 38.0585 74.4004C38.1991 74.5464 38.3701 74.6624 38.5715 74.7447C38.7729 74.8271 38.9895 74.872 39.2289 74.872C39.6735 74.872 40.0307 74.7485 40.2967 74.4977C40.5627 74.2507 40.7451 73.925 40.8439 73.532H42.0599C41.9915 73.9175 41.8775 74.2619 41.7103 74.5651" fill="#00AAB3"/>
<path d="M48.0872 75.8787V72.4651H44.8648V75.8787H43.6602V68.0634H44.8648V71.4021H48.0872V68.0634H49.288V75.8787H48.0872Z" fill="#00AAB3"/>
<path d="M8.69831 58.675C8.93391 58.5664 9.15051 58.3905 9.35191 58.1435C9.55331 57.9114 9.70151 57.6681 9.79651 57.4061C9.90671 57.174 9.95991 56.9083 9.95991 56.6014C9.95991 56.0474 9.75091 55.572 9.32911 55.1715C8.92251 54.7897 8.32971 54.5951 7.55071 54.5951H3.99771C3.79631 54.5951 3.62151 54.6625 3.48471 54.801C3.34411 54.9395 3.27571 55.1079 3.27571 55.3063V58.1622C3.27571 58.3606 3.34791 58.5327 3.48471 58.6675C3.62531 58.806 3.79631 58.8733 3.99771 58.8733H7.90411C8.20051 58.8733 8.46651 58.806 8.69831 58.6675M3.99771 51.7355H7.29611C7.62291 51.7355 7.91171 51.6756 8.16251 51.5521C8.37911 51.4435 8.58431 51.2826 8.77051 51.0692C8.92631 50.8858 9.05171 50.6538 9.14291 50.3805C9.22271 50.1672 9.26071 49.9126 9.26071 49.6207C9.26071 49.3774 9.21511 49.1379 9.12011 48.9058C9.00991 48.6438 8.88451 48.4454 8.74391 48.3069C8.60331 48.1534 8.42471 48.015 8.20431 47.8914C8.00291 47.7829 7.77491 47.7305 7.52791 47.7305H3.99771C3.79631 47.7305 3.62151 47.7979 3.48471 47.9364C3.34411 48.0748 3.27571 48.2433 3.27571 48.4417V51.0206C3.27571 51.2189 3.34791 51.3911 3.48471 51.5259C3.62531 51.6644 3.79631 51.7317 3.99771 51.7317M12.3235 50.65C12.1677 51.0505 11.9815 51.4024 11.7611 51.7093C11.5255 52.0312 11.2291 52.3007 10.8719 52.514C10.7161 52.6226 10.5375 52.7124 10.3323 52.791C10.1765 52.8359 10.1043 52.8733 10.1233 52.8958C10.1385 52.9183 10.2335 52.952 10.4045 53.0006C10.6211 53.0792 10.8263 53.1541 11.0125 53.2327C11.4191 53.431 11.7839 53.7155 12.1107 54.0861C12.4527 54.4417 12.7263 54.8459 12.9277 55.3063C13.1291 55.7517 13.2317 56.2345 13.2317 56.7586C13.2317 57.6793 13.0911 58.4616 12.8099 59.1092C12.5135 59.7679 12.1335 60.2844 11.6623 60.6513C11.1949 61.0518 10.6325 61.3287 9.97891 61.4822C9.65211 61.5608 9.31771 61.6207 8.97191 61.6656C8.62991 61.7105 8.26891 61.7367 7.89651 61.7367H0.725906C0.524506 61.7367 0.349706 61.6656 0.212906 61.5309C0.0723063 61.3924 0.00390625 61.2239 0.00390625 61.0256V45.5932C0.00390625 45.3949 0.0723063 45.2227 0.212906 45.0879C0.353506 44.9532 0.524506 44.8821 0.725906 44.8821H7.52791C7.88511 44.8821 8.22331 44.8971 8.53491 44.927C8.84651 44.9569 9.15811 45.0056 9.46971 45.0655C10.1081 45.2189 10.6401 45.466 11.0581 45.8029C11.5255 46.1397 11.8827 46.6188 12.1335 47.2327C12.3995 47.8016 12.5325 48.5764 12.5325 49.5608C12.5325 49.9126 12.4641 50.2832 12.3235 50.665" fill="#00AAB3"/>
<path d="M20.1116 48.4491V51.2376C20.1116 51.436 20.18 51.6044 20.3206 51.7429C20.4612 51.8814 20.6322 51.9487 20.8336 51.9487H27.6622C27.8636 51.9487 28.0384 52.0199 28.1752 52.1584C28.3158 52.2968 28.3842 52.4653 28.3842 52.6637V54.1608C28.3842 54.3592 28.312 54.5277 28.1752 54.6662C28.0346 54.8046 27.8636 54.872 27.6622 54.872H20.8336C20.6322 54.872 20.4612 54.9431 20.3206 55.0779C20.18 55.2164 20.1116 55.3848 20.1116 55.5832V58.1172C20.1116 58.3156 20.18 58.4877 20.3206 58.6225C20.4612 58.761 20.6322 58.8283 20.8336 58.8283H28.7148C28.9162 58.8283 29.0872 58.8995 29.2278 59.038C29.3684 59.1764 29.4368 59.3449 29.4368 59.5433V61.018C29.4368 61.2164 29.3684 61.3885 29.2278 61.5233C29.0872 61.6618 28.9162 61.7292 28.7148 61.7292H17.5618C17.3566 61.7292 17.1856 61.658 17.0488 61.5233C16.9082 61.3848 16.8398 61.2164 16.8398 61.018V45.5857C16.8398 45.3873 16.9082 45.2151 17.0488 45.0804C17.1894 44.9456 17.3604 44.8745 17.5618 44.8745H28.7148C28.9162 44.8745 29.0872 44.9419 29.2278 45.0804C29.3684 45.2189 29.4368 45.3873 29.4368 45.5857V47.0155C29.4368 47.2139 29.3684 47.3861 29.2278 47.5208C29.0872 47.6593 28.9162 47.7267 28.7148 47.7267H20.8336C20.6322 47.7267 20.4612 47.794 20.3206 47.9325C20.18 48.071 20.1116 48.2395 20.1116 48.4378" fill="#00AAB3"/>
<path d="M45.718 59.5957V61.0256C45.718 61.2239 45.6496 61.3961 45.509 61.5309C45.3684 61.6694 45.1974 61.7367 44.996 61.7367H34.1204C33.919 61.7367 33.7442 61.6656 33.6074 61.5309C33.4668 61.3924 33.3984 61.2239 33.3984 61.0256V45.5932C33.3984 45.3949 33.4668 45.2227 33.6074 45.0879C33.748 44.9495 33.919 44.8821 34.1204 44.8821H35.9444C36.1458 44.8821 36.3168 44.9495 36.4574 45.0879C36.598 45.2264 36.6664 45.3949 36.6664 45.5932V58.1697C36.6664 58.368 36.7386 58.5402 36.8754 58.675C37.016 58.8135 37.187 58.8808 37.3884 58.8808H44.9884C45.1898 58.8808 45.3608 58.9519 45.5014 59.0867C45.642 59.2252 45.7104 59.3936 45.7104 59.592" fill="#00AAB3"/>
<path d="M60.6829 59.5957V61.0256C60.6829 61.2239 60.6145 61.3961 60.4739 61.5309C60.3333 61.6694 60.1623 61.7367 59.9609 61.7367H49.0853C48.8839 61.7367 48.7091 61.6656 48.5723 61.5309C48.4317 61.3924 48.3633 61.2239 48.3633 61.0256V45.5932C48.3633 45.3949 48.4317 45.2227 48.5723 45.0879C48.7129 44.9495 48.8839 44.8821 49.0853 44.8821H50.9093C51.1107 44.8821 51.2817 44.9495 51.4223 45.0879C51.5629 45.2264 51.6313 45.3949 51.6313 45.5932V58.1697C51.6313 58.368 51.7035 58.5402 51.8403 58.675C51.9809 58.8135 52.1519 58.8808 52.3533 58.8808H59.9533C60.1547 58.8808 60.3257 58.9519 60.4663 59.0867C60.6069 59.2252 60.6753 59.3936 60.6753 59.592" fill="#00AAB3"/>
<path d="M62.5559 58.9519L63.5363 57.5221C63.6465 57.3536 63.7947 57.2526 63.9809 57.2226C64.1671 57.1927 64.3457 57.2301 64.5205 57.3386C65.2235 57.7691 65.9075 58.1359 66.5763 58.4428C67.4655 58.8733 68.4231 59.0866 69.4529 59.0866C69.9811 59.0866 70.4485 59.0192 70.8551 58.8808C71.2275 58.7722 71.5733 58.6038 71.8849 58.3755C72.1661 58.1621 72.3751 57.9226 72.5157 57.6605C72.6563 57.4135 72.7247 57.1552 72.7247 56.8783C72.7247 56.5564 72.6145 56.2644 72.3979 56.0024C72.1965 55.7891 71.9153 55.5944 71.5543 55.426C71.3833 55.3474 71.1971 55.28 70.9919 55.2164C70.7905 55.1565 70.5625 55.0929 70.3155 55.033C70.0799 54.9731 69.8443 54.9169 69.6011 54.872C69.3579 54.8271 69.1071 54.7784 68.8411 54.7335C68.6701 54.7036 68.4839 54.6699 68.2787 54.6287C68.0773 54.5913 67.8645 54.5464 67.6479 54.5015C67.1957 54.4416 66.7283 54.3255 66.2457 54.1571C65.7479 54.0186 65.2729 53.8277 64.8207 53.5807C64.3533 53.3486 63.9315 53.0492 63.5591 52.6824C63.1829 52.3455 62.8827 51.9151 62.6471 51.3911C62.4305 50.8857 62.3203 50.3018 62.3203 49.6393C62.3203 48.6736 62.5217 47.8502 62.9283 47.1765C63.3159 46.5476 63.8327 46.0348 64.4711 45.6343C65.0791 45.2825 65.7821 45.0205 66.5763 44.8521C67.3097 44.6986 68.0583 44.62 68.8221 44.62C69.5403 44.62 70.1787 44.6649 70.7411 44.7585C71.0223 44.8034 71.2921 44.8633 71.5467 44.9307C71.8051 45.0018 72.0559 45.0729 72.3067 45.1515C72.5537 45.2451 72.7969 45.3461 73.0325 45.4622C73.2681 45.5782 73.4923 45.698 73.7089 45.8178C73.8647 45.9113 74.0129 46.0012 74.1535 46.0947C74.2941 46.1883 74.4499 46.2781 74.6209 46.3717C74.7919 46.4952 74.8945 46.6487 74.9249 46.8321C74.9553 47.0155 74.9097 47.1952 74.7843 47.3636L73.8039 48.7448C73.6785 48.9132 73.5189 49.0143 73.3251 49.0442C73.1313 49.0741 72.9489 49.0367 72.7741 48.9282C72.1661 48.5426 71.5885 48.2507 71.0451 48.0523C70.3117 47.7604 69.5251 47.6144 68.6815 47.6144C68.5409 47.6144 68.3889 47.6219 68.2255 47.6368C68.0621 47.6518 67.8949 47.6743 67.7239 47.708C67.3667 47.7866 67.0247 47.8988 66.6941 48.0523C66.5383 48.1309 66.3939 48.2133 66.2609 48.3068C66.1279 48.4004 66.0063 48.5052 65.8999 48.6287C65.6985 48.8758 65.5959 49.1677 65.5959 49.5046C65.5959 49.8415 65.7213 50.1259 65.9721 50.358C66.2229 50.59 66.5421 50.7809 66.9297 50.9344C67.1311 51.013 67.3401 51.0804 67.5491 51.1403C67.7619 51.2002 67.9823 51.2638 68.2141 51.3237C68.4497 51.3836 68.6777 51.4397 68.9057 51.4846C69.1299 51.5295 69.3541 51.5857 69.5707 51.6456C69.7417 51.6755 69.9203 51.7167 70.1103 51.7616C70.2965 51.8065 70.5017 51.8477 70.7183 51.8776C70.9349 51.9076 71.1629 51.9525 71.3947 52.0049C71.6265 52.0573 71.8621 52.1247 72.0977 52.1995C72.2231 52.2295 72.3523 52.2707 72.4853 52.3156C72.6183 52.3605 72.7475 52.4091 72.8729 52.4541C73.0591 52.5327 73.2757 52.63 73.5151 52.7535C73.7583 52.877 73.9635 53.0005 74.1345 53.124C74.2599 53.2027 74.3701 53.2813 74.4727 53.3673C74.5753 53.4497 74.6703 53.5395 74.7653 53.6331C75.1567 54.0149 75.4493 54.4603 75.6545 54.9693C75.8901 55.5083 76.0041 56.1521 76.0041 56.9045C76.0041 57.7653 75.8483 58.5252 75.5367 59.1839C75.2251 59.8277 74.7805 60.3592 74.2029 60.7747C73.6101 61.2201 72.9261 61.542 72.1433 61.7404C71.3149 61.9537 70.4371 62.0623 69.5023 62.0623C68.5675 62.0623 67.8113 61.9949 67.1387 61.8564C66.5003 61.7479 65.8847 61.572 65.2919 61.3249C65.0107 61.2164 64.7371 61.1003 64.4749 60.9693C64.2089 60.8383 63.9543 60.6961 63.7035 60.5426C63.5477 60.4491 63.3919 60.3555 63.2361 60.2544C63.0803 60.1534 62.9169 60.0448 62.7459 59.9213C62.5749 59.8128 62.4723 59.6668 62.4419 59.4834C62.4115 59.3 62.4495 59.1241 62.5597 58.9519" fill="#00AAB3"/>
<path d="M50.6278 19.4036L48.9444 18.3218C48.4618 18.0037 48.4504 17.3112 48.914 16.9744L50.5898 15.7616C50.909 15.4472 51.3498 15.5895 51.3498 16.0499L51.3802 19.0704C51.3802 19.4223 51.0268 19.6094 50.624 19.3998" fill="#00AAB3"/>
</g>
<defs>
<clipPath id="clip0_1068_755">
<rect width="76" height="78" fill="white"/>
</clipPath>
</defs>
</svg>
