<svg width="66" height="66" viewBox="0 0 66 66" fill="none" xmlns="http://www.w3.org/2000/svg">
<g clip-path="url(#clip0_574_536)">
<path d="M54.6128 19.7416L41.2686 33L54.6128 46.2583C54.8541 45.7542 55.0004 45.1968 55.0004 44.6016V21.3984C55.0004 20.8031 54.8541 20.2458 54.6128 19.7416Z" fill="white"/>
<path d="M51.1324 17.5312H14.8668C14.2715 17.5312 13.7142 17.6776 13.21 17.9188L30.2654 34.8883C31.7734 36.3963 34.2257 36.3963 35.7337 34.8883L52.7892 17.9188C52.285 17.6776 51.7277 17.5312 51.1324 17.5312Z" fill="white"/>
<path d="M11.3876 19.7416C11.1464 20.2458 11 20.8031 11 21.3984V44.6016C11 45.1968 11.1464 45.7542 11.3876 46.2583L24.7319 33L11.3876 19.7416Z" fill="white"/>
<path d="M39.4449 34.8228L37.5566 36.7111C35.0438 39.2238 30.9552 39.2238 28.4425 36.7111L26.5542 34.8228L13.21 48.0812C13.7142 48.3224 14.2715 48.4687 14.8668 48.4687H51.1324C51.7277 48.4687 52.285 48.3224 52.7892 48.0812L39.4449 34.8228Z" fill="white"/>
</g>
<circle cx="33" cy="33" r="32" stroke="white" stroke-width="2"/>
<defs>
<clipPath id="clip0_574_536">
<rect width="44" height="44" fill="white" transform="translate(11 11)"/>
</clipPath>
</defs>
</svg>
