<svg width="66" height="66" viewBox="0 0 66 66" fill="none" xmlns="http://www.w3.org/2000/svg">
<g clip-path="url(#clip0_574_535)">
<path d="M22.089 11C21.6143 11 21.2295 11.3849 21.2295 11.8595C21.2295 12.3341 21.6143 12.7189 22.089 12.7189C26.9438 12.7189 30.8935 16.7711 30.8935 21.7522C30.8935 22.2269 31.2784 22.6117 31.753 22.6117C32.2276 22.6117 32.6124 22.2268 32.6124 21.7522C32.6125 15.8234 27.8916 11 22.089 11Z" fill="white"/>
<path d="M22.086 15.0775C21.6114 15.0775 21.2266 15.4624 21.2266 15.9369C21.2266 16.4116 21.6114 16.7964 22.086 16.7964C24.7445 16.7964 26.9073 19.0195 26.9073 21.7521C26.9073 22.2267 27.2922 22.6115 27.7668 22.6115C28.2414 22.6115 28.6262 22.2266 28.6262 21.7521C28.6263 18.0717 25.6923 15.0775 22.086 15.0775Z" fill="white"/>
<path d="M22.1026 18.8336C21.6279 18.8336 21.2432 19.2184 21.2432 19.6931C21.2432 20.1677 21.6281 20.5526 22.1026 20.5526C22.7237 20.5526 23.2288 21.0788 23.2288 21.7258C23.2288 22.2004 23.6137 22.5852 24.0883 22.5852C24.5629 22.5852 24.9478 22.2003 24.9478 21.7258C24.9478 20.131 23.6714 18.8336 22.1026 18.8336Z" fill="white"/>
<path d="M50.4011 17.8118H48.496C48.0214 17.8118 47.6365 18.1967 47.6365 18.6713C47.6365 19.1459 48.0214 19.5308 48.496 19.5308H50.4011C51.9887 19.5308 53.2804 20.8224 53.2804 22.41V34.0768C53.2804 34.9909 52.8516 35.8062 52.1854 36.334V34.0864C52.1854 32.3329 50.9342 30.8269 49.2105 30.5054L48.6549 30.4018C48.7788 30.022 48.8466 29.6172 48.8466 29.1966V27.2216C48.8466 25.0741 47.0995 23.327 44.952 23.327C42.8045 23.327 41.0575 25.0741 41.0575 27.2216V29.1966C41.0575 29.6172 41.1254 30.022 41.2492 30.4018L40.6936 30.5054C38.9698 30.8268 37.7187 32.3329 37.7187 34.0864V36.578C36.8501 36.0817 36.2629 35.1468 36.2629 34.0768V22.41C36.2629 20.8224 37.5545 19.5308 39.1421 19.5308H41.1905C41.6652 19.5308 42.05 19.1459 42.05 18.6713C42.05 18.1967 41.6651 17.8118 41.1905 17.8118H39.1421C36.6067 17.8118 34.5439 19.8746 34.5439 22.41V34.0768C34.5439 36.6122 36.6067 38.675 39.1421 38.675H43.467V41.1461C43.467 41.4932 43.6758 41.8063 43.9963 41.9396C44.103 41.984 44.2151 42.0056 44.3263 42.0056C44.549 42.0056 44.7681 41.9189 44.9323 41.7558L48.0326 38.675H50.4011C52.9366 38.675 54.9993 36.6122 54.9993 34.0768V22.41C54.9993 19.8746 52.9366 17.8118 50.4011 17.8118ZM42.7763 27.2216C42.7763 26.0219 43.7522 25.0459 44.9519 25.0459C46.1516 25.0459 47.1276 26.0219 47.1276 27.2216V29.1966C47.1276 30.3963 46.1516 31.3723 44.9519 31.3723C43.7522 31.3723 42.7763 30.3963 42.7763 29.1966V27.2216ZM50.4662 36.9542C50.4444 36.9548 50.4229 36.9559 50.401 36.9559H47.6782V36.956C47.4512 36.956 47.2334 37.0458 47.0723 37.2058L45.1859 39.0804V37.8154C45.1859 37.3408 44.801 36.956 44.3265 36.956H39.4377V34.0863C39.4377 33.1604 40.0985 32.3649 41.0088 32.1951L42.2204 31.9692C42.9239 32.6624 43.8886 33.0911 44.952 33.0911C46.0153 33.0911 46.9802 32.6623 47.6837 31.9691L48.8954 32.195C49.8058 32.3648 50.4664 33.1602 50.4664 34.0863V36.9542H50.4662Z" fill="white"/>
<path d="M45.0354 18.064C44.8756 17.9033 44.6538 17.8122 44.4278 17.8122C44.2018 17.8122 43.98 17.9033 43.8202 18.064C43.6603 18.223 43.5684 18.4449 43.5684 18.6716C43.5684 18.8977 43.6602 19.1195 43.8202 19.2793C43.98 19.4391 44.2017 19.5311 44.4278 19.5311C44.6538 19.5311 44.8756 19.4391 45.0354 19.2793C45.1952 19.1186 45.2873 18.8977 45.2873 18.6716C45.2873 18.4448 45.1953 18.2238 45.0354 18.064Z" fill="white"/>
<path d="M26.974 39.9126C26.8141 39.7527 26.5933 39.6608 26.3663 39.6608C26.1403 39.6608 25.9185 39.7527 25.7587 39.9126C25.5989 40.0724 25.5068 40.2941 25.5068 40.5202C25.5068 40.7471 25.5988 40.968 25.7587 41.1279C25.9193 41.2886 26.1403 41.3805 26.3663 41.3805C26.5923 41.3805 26.8141 41.2886 26.974 41.1279C27.1347 40.968 27.2258 40.747 27.2258 40.5202C27.2258 40.2942 27.1347 40.0725 26.974 39.9126Z" fill="white"/>
<path d="M45.7866 47.6841L39.2021 41.0995C38.3255 40.223 36.9466 40.0947 35.9236 40.7944L31.721 43.6679C31.38 43.9011 30.9205 43.8584 30.6283 43.5661L29.2386 42.1763C28.9031 41.8409 28.359 41.8408 28.023 42.1763C27.6874 42.5119 27.6874 43.0561 28.023 43.3919L29.4127 44.7817C30.2892 45.6582 31.668 45.7866 32.6912 45.0868L36.8937 42.2134C37.2346 41.9802 37.6942 42.0228 37.9865 42.3151L44.5711 48.8997C44.9062 49.2347 44.9061 49.7801 44.571 50.1153C40.3487 54.3376 33.4785 54.3376 29.2562 50.1153L15.8859 36.7448C13.8404 34.6994 12.7141 31.98 12.7141 29.0873C12.7141 26.1947 13.8405 23.4752 15.8859 21.4297C16.0483 21.2674 16.2641 21.1781 16.4936 21.1781C16.7232 21.1781 16.9391 21.2675 17.1014 21.4298L23.6859 28.0144C23.978 28.3065 24.0208 28.7662 23.7877 29.1072L20.9143 33.3097C20.2145 34.3328 20.3429 35.7116 21.2194 36.5882L23.3084 38.6772C23.644 39.0127 24.1881 39.0127 24.524 38.6772C24.8595 38.3416 24.8595 37.7974 24.524 37.4616L22.435 35.3726C22.1429 35.0805 22.1001 34.6209 22.3332 34.2799L25.2067 30.0774C25.9063 29.0543 25.778 27.6754 24.9015 26.7989L18.3169 20.2143C17.3116 19.209 15.6758 19.209 14.6704 20.2143C9.77785 25.1069 9.77785 33.0677 14.6704 37.9603L28.0407 51.3305C30.487 53.7768 33.7003 55 36.9136 55C40.1269 54.9999 43.3402 53.7768 45.7865 51.3305C46.7918 50.3252 46.7918 48.6895 45.7866 47.6841Z" fill="white"/>
<path d="M22.5777 32.1337L17.3677 26.9236C17.0319 26.5881 16.4878 26.5881 16.1521 26.9236C15.8165 27.2593 15.8165 27.8035 16.1521 28.1392L21.3622 33.3493C21.53 33.517 21.7499 33.601 21.97 33.601C22.1899 33.601 22.4099 33.517 22.5777 33.3493C22.9133 33.0136 22.9133 32.4693 22.5777 32.1337Z" fill="white"/>
<path d="M42.5185 52.074L37.0366 46.5921C36.7009 46.2566 36.1568 46.2566 35.821 46.5921C35.4854 46.9278 35.4854 47.472 35.821 47.8077L41.3029 53.2896C41.4707 53.4573 41.6906 53.5413 41.9106 53.5413C42.1306 53.5413 42.3506 53.4573 42.5185 53.2896C42.8541 52.9538 42.8541 52.4097 42.5185 52.074Z" fill="white"/>
</g>
<circle cx="33" cy="33" r="32" stroke="white" stroke-width="2"/>
<defs>
<clipPath id="clip0_574_535">
<rect width="44" height="44" fill="white" transform="translate(11 11)"/>
</clipPath>
</defs>
</svg>
