<svg width="1439" height="628" viewBox="0 0 1439 628" fill="none" xmlns="http://www.w3.org/2000/svg">
<g clip-path="url(#clip0_34_56)">
<rect width="1440" height="628" fill="#EBF3FA"/>
<circle cx="1541.5" cy="442.5" r="200" stroke="#CFDCFD" stroke-width="7"/>
<circle cx="-72.5" cy="28.5" r="202.5" stroke="#CFDCFD" stroke-width="2"/>
<circle cx="47.5" cy="544.5" r="36" stroke="#203864" stroke-width="3"/>
<circle cx="109.5" cy="474.5" r="7.75" stroke="#203864" stroke-width="1.5"/>
<circle cx="107.5" cy="456.5" r="3" stroke="#203864"/>
<circle cx="100.5" cy="446.5" r="1.1" stroke="#203864" stroke-width="0.8"/>
<circle cx="94.5" cy="442.5" r="1.5" fill="#203864"/>
<circle cx="93.5" cy="501.5" r="14.5" stroke="#203864" stroke-width="2"/>
<circle cx="1392.62" cy="115.561" r="36" transform="rotate(-158.685 1392.62 115.561)" stroke="#203864" stroke-width="3"/>
<circle cx="1309.42" cy="158.237" r="7.75" transform="rotate(-158.685 1309.42 158.237)" stroke="#203864" stroke-width="1.5"/>
<circle cx="1304.74" cy="175.732" r="3" transform="rotate(-158.685 1304.74 175.732)" stroke="#203864"/>
<circle cx="1301.62" cy="185.593" r="1.1" transform="rotate(-158.685 1301.62 185.593)" stroke="#203864" stroke-width="0.8"/>
<circle cx="1301.76" cy="193.5" r="1.5" transform="rotate(-158.685 1301.76 193.5)" fill="#203864"/>
<circle cx="1334.14" cy="138.899" r="14.5" transform="rotate(-158.685 1334.14 138.899)" stroke="#203864" stroke-width="2"/>
</g>
<defs>
<clipPath id="clip0_34_56">
<rect width="1440" height="628" fill="white"/>
</clipPath>
</defs>
</svg>
