<svg width="14" height="14" viewBox="0 0 14 14" fill="none" xmlns="http://www.w3.org/2000/svg">
<path d="M7 0C3.13401 0 0 3.13401 0 7C0 10.866 3.13401 14 7 14C10.866 14 14 10.866 14 7C14 5.14348 13.2625 3.36301 11.9497 2.05025C10.637 0.737498 8.85651 0 7 0Z" fill="#252E2F"/>
<path d="M10.297 6.11101L7.49695 8.91101C7.36551 9.04353 7.1866 9.11807 6.99995 9.11807C6.8133 9.11807 6.63439 9.04353 6.50295 8.91101L3.70295 6.11101C3.52539 5.93345 3.45604 5.67465 3.52104 5.4321C3.58603 5.18955 3.77548 5.00009 4.01804 4.9351C4.26059 4.87011 4.51939 4.93945 4.69695 5.11701L6.99995 7.40601L9.30295 5.11701C9.57744 4.84253 10.0225 4.84253 10.297 5.11701C10.5714 5.3915 10.5714 5.83653 10.297 6.11101Z" fill="white"/>
</svg>
