<svg width="338" height="247" viewBox="0 0 338 247" fill="none" xmlns="http://www.w3.org/2000/svg">
<path d="M-77 243.684V192.042C-77 190.975 -76.4332 189.988 -75.5115 189.45L247.62 0.978305C248.641 0.383008 249.916 0.442226 250.877 1.12957L289.768 28.9443C291.566 30.2299 291.403 32.9517 289.466 34.0146L182.621 92.6343C180.586 93.7508 180.536 96.6562 182.531 97.8428L336.534 189.446C337.443 189.987 338 190.967 338 192.025V237.478C338 239.784 335.508 241.228 333.508 240.081L132.032 124.585C131.086 124.043 129.922 124.056 128.989 124.619L-72.4493 246.252C-74.4487 247.459 -77 246.02 -77 243.684Z" fill="#00AAB3"/>
<path d="M331.578 62.4318L288.475 95.8444C287.742 96.4127 287.313 97.288 287.313 98.2155V101.456C287.313 102.474 287.83 103.423 288.685 103.976L331.788 131.819C333.784 133.109 336.416 131.676 336.416 129.299V64.8029C336.416 62.3087 333.549 60.9037 331.578 62.4318Z" fill="#00AAB3"/>
</svg>
