<svg id="Layer_1" height="512" viewBox="0 0 512 512" width="512" xmlns="http://www.w3.org/2000/svg" xmlns:xlink="http://www.w3.org/1999/xlink" data-name="Layer 1"><linearGradient id="GradientFill_1" gradientUnits="userSpaceOnUse" x1="255.751" x2="255.751" y1="512.44" y2=".442"><stop offset="0" stop-color="#6c54a3"/><stop offset="1" stop-color="#00b1d2"/></linearGradient><g fill-rule="evenodd"><path d="m255.751.442c141.384 0 256 114.587 256 255.963s-114.616 256.035-256 256.035-256-114.658-256-256.04 114.614-255.958 256-255.958z" fill="url(#GradientFill_1)"/><path d="m331.559 158.291a24.836 24.836 0 1 0 -7.523-2.7l-14.07 39.259a5.84 5.84 0 0 1 -1.192 2.322c0-.006 0-.006-.011-.006h-40.463v7.994h40.46c6 0 8.05-5.732 8.727-7.615l14.069-39.25zm-7.523 199a25.01 25.01 0 1 0 7.523-2.7l-14.069-39.251c-.677-1.886-2.731-7.616-8.727-7.616h-40.463v7.992l40.476.006a5.782 5.782 0 0 1 1.187 2.31l14.07 39.261zm-63.725-244.48a43.47 43.47 0 0 0 -14.739-13.211 46.393 46.393 0 0 0 -44.392 0 43.534 43.534 0 0 0 -14.708 13.2 45.982 45.982 0 0 1 29.641 3.337 3.994 3.994 0 1 1 -3.44 7.21 37.735 37.735 0 0 0 -41.484 6.046 33.451 33.451 0 0 0 -10.944 25.116 39.448 39.448 0 0 1 13.482 3.5 4 4 0 0 1 -3.352 7.258 31.5 31.5 0 0 0 -16.13-2.745c-12.328 1.152-22.513 9.17-25.944 20.436-3.408 11.188.648 23.063 10.328 30.249a4 4 0 0 1 -.136 6.515c-14.775 10.039-22.329 26.867-19.712 43.923a45.289 45.289 0 0 0 16.631 28.431 4 4 0 0 1 -5 6.238 55.075 55.075 0 0 1 -9.265-9.5 27.951 27.951 0 0 0 -3.554 22.4c3.142 11.889 13.9 20.78 26.765 22.128a4 4 0 0 1 -.411 7.978c-.142 0-.282-.006-.425-.019a40.211 40.211 0 0 1 -11.338-2.915 25.259 25.259 0 0 0 1.216 33.614 28.842 28.842 0 0 0 39.175 1.928 3.99 3.99 0 0 1 6.59 3.044c-.025 14.916 8.411 28.828 22.014 36.313a46.382 46.382 0 0 0 44.392 0 43.429 43.429 0 0 0 14.739-13.217v-287.255zm-85.075 144.681a39.666 39.666 0 0 1 2.951-6.765c-7.768-8.643-9.3-20.7-3.255-30.909a4 4 0 0 1 6.878 4.071c-5.1 8.616-2.317 19.216 6.618 25.208a27.293 27.293 0 0 0 31.279-1.02 4 4 0 1 1 4.926 6.291 35.479 35.479 0 0 1 -40.192 1.662 31.061 31.061 0 0 0 -1.607 3.948 30.5 30.5 0 0 0 5.342 28.6 4 4 0 0 1 -6.3 4.918c-8.245-10.556-10.666-23.674-6.641-36zm21.718-71.354a4 4 0 0 1 -3.444-1.967c-7.33-12.382-3.527-27.486 9.043-35.913 12.147-8.147 29.246-7.572 40.659 1.363a4 4 0 1 1 -4.928 6.295 27.283 27.283 0 0 0 -31.279-1.021c-8.934 5.989-11.716 16.59-6.617 25.2a4 4 0 0 1 -3.434 6.038zm47.294 191.156a4 4 0 1 1 4.928 6.291 35.474 35.474 0 0 1 -40.658 1.364c-12.57-8.431-16.373-23.537-9.044-35.916a4 4 0 0 1 6.878 4.07c-5.1 8.613-2.317 19.222 6.617 25.206a27.278 27.278 0 0 0 31.279-1.015zm-55.324-54.368c-8.933 5.992-11.715 16.593-6.616 25.2a4 4 0 1 1 -6.877 4.071c-7.332-12.379-3.528-27.485 9.042-35.91 12.147-8.15 29.245-7.577 40.659 1.367a3.995 3.995 0 0 1 -4.929 6.288 27.278 27.278 0 0 0 -31.279-1.021zm156.653-70.48h-77.277v7.992h77.274a24.8 24.8 0 1 0 0-7.992z" fill="#fff"/></g></svg>