<svg width="69" height="69" viewBox="0 0 69 69" fill="none" xmlns="http://www.w3.org/2000/svg">
<g clip-path="url(#clip0_1018_3116)">
<path d="M1.74219 50.3754V56.0969C1.7469 57.6746 3.025 58.9527 4.60271 58.9575H50.3737C51.9519 58.9527 53.23 57.6746 53.2347 56.0969V50.3754H1.74219Z" fill="#D1D8E0"/>
<path d="M27.4885 47.5149V18.9081H4.60271C3.025 18.9128 1.7469 20.1909 1.74219 21.7686V50.3754H30.349C28.7713 50.3707 27.4932 49.0926 27.4885 47.5149Z" fill="#45AAF2"/>
<path d="M67.543 10.326H58.9609V1.7439L67.543 10.326Z" fill="#D0D7DF"/>
<path d="M36.0704 58.9575V67.5395H18.9062V58.9575H36.0704Z" fill="#778CA3"/>
<path d="M67.5377 10.326V47.5149C67.533 49.0926 66.2549 50.3707 64.6772 50.3754H30.3488C28.7711 50.3707 27.493 49.0926 27.4883 47.5149V4.60442C27.493 3.02671 28.7711 1.74861 30.3488 1.7439H58.9556V10.326H67.5377Z" fill="#F1F2F2"/>
<path d="M51.805 56.0969C51.805 56.8868 51.1644 57.5275 50.3745 57.5275H4.60354C3.81364 57.5275 3.17302 56.8868 3.17302 56.0969V51.8059H23.1982V48.9454H3.17302V21.7686C3.17302 20.9787 3.81364 20.3381 4.60354 20.3381H23.1982V17.4775H4.60354C2.23383 17.4775 0.3125 19.3989 0.3125 21.7686V56.0969C0.3125 58.4667 2.23383 60.388 4.60354 60.388H17.4767V66.1096H14.6162V68.9701H40.3624V66.1096H37.5014V60.388H50.3745C52.7448 60.388 54.6656 58.4667 54.6656 56.0969V54.6664H51.805V56.0969ZM34.6409 66.1096H20.3372V60.388H34.6409V66.1096Z" fill="#474C54"/>
<path d="M68.55 9.31449L59.9679 0.732402C59.6997 0.464212 59.3357 0.313354 58.9564 0.313354H30.3496C27.9799 0.313354 26.0586 2.23469 26.0586 4.6044V47.5148C26.0586 49.8846 27.9799 51.8059 30.3496 51.8059H64.678C67.0477 51.8059 68.969 49.8846 68.969 47.5148V10.326C68.969 9.94673 68.8182 9.58268 68.55 9.31449ZM60.387 5.1963L64.0861 8.89544H60.387V5.1963ZM64.678 48.9454H30.3496C29.5597 48.9454 28.9191 48.3048 28.9191 47.5148V4.6044C28.9191 3.8145 29.5597 3.17388 30.3496 3.17388H57.5264V10.326C57.5264 11.1159 58.1665 11.756 58.9564 11.756H66.1085V47.5148C66.1085 48.3048 65.4679 48.9454 64.678 48.9454Z" fill="#474C54"/>
<path d="M39.3513 20.7571L33.6297 26.4786C33.0713 27.037 33.0713 27.9427 33.6297 28.5011L39.3513 34.2226L41.3737 32.2002L36.6636 27.4901L41.3737 22.78L39.3513 20.7571Z" fill="#474C54"/>
<path d="M55.6787 20.7571L53.6562 22.78L58.3663 27.4901L53.6562 32.2002L55.6787 34.2226L61.4002 28.5011C61.9586 27.9427 61.9586 27.037 61.4002 26.4786L55.6787 20.7571Z" fill="#474C54"/>
<path d="M43.3789 32.5716L49.0999 21.129L51.6588 22.4082L45.9377 33.8508L43.3789 32.5716Z" fill="#474C54"/>
<path d="M8.89177 27.4901C8.89177 26.7002 9.53239 26.0596 10.3223 26.0596H13.1828V23.1991H10.3223C7.95206 23.1991 6.03125 25.1199 6.03125 27.4901V30.3507H8.89177V27.4901Z" fill="#474C54"/>
<path d="M6.03125 33.2112H8.89177V36.0722H6.03125V33.2112Z" fill="#474C54"/>
</g>
<defs>
<clipPath id="clip0_1018_3116">
<rect width="68.6567" height="68.6567" fill="white" transform="translate(0.3125 0.313354)"/>
</clipPath>
</defs>
</svg>
