<svg width="69" height="69" viewBox="0 0 69 69" fill="none" xmlns="http://www.w3.org/2000/svg">
<g clip-path="url(#clip0_1018_3139)">
<path d="M54.0421 43.7959C54.0421 50.7532 52.2454 56.3831 50.0371 56.3831C49.6018 56.3632 49.1911 56.1746 48.8925 55.8566C47.8287 54.8499 46.9476 52.4927 46.4553 49.4143H44.1667L22.723 49.4489C22.0594 53.5681 20.6975 56.3831 19.1412 56.3831C18.706 56.3632 18.2958 56.1746 17.9972 55.8566C16.3493 54.3119 15.1367 49.4945 15.1367 43.7959C15.1367 36.9188 16.8873 31.3466 19.0611 31.2088H50.1172C52.291 31.3466 54.0421 36.9188 54.0421 43.7959Z" fill="#9E9E9E"/>
<path d="M51.7536 43.7959C51.7536 49.4945 50.5405 54.3119 48.8926 55.8566C48.5945 56.1746 48.1838 56.3632 47.7486 56.3831C46.1808 56.3831 44.8304 53.5451 44.1667 49.4143L22.723 49.4489L20.8578 46.2275C20.4995 50.5908 19.0611 54.8614 17.9972 55.8566C16.3493 54.3119 15.1367 49.4945 15.1367 43.7959C15.1367 36.9188 16.8873 31.3466 19.0611 31.2088H47.8287C50.0025 31.3466 51.7536 36.9188 51.7536 43.7959Z" fill="#CFD8DC"/>
<path d="M50.4798 26.8491V26.8606C50.3997 28.2796 50.2739 29.7327 50.1137 31.2088C48.7177 43.6356 44.4607 59.1409 39.0142 65.732C37.9251 67.0562 36.3003 67.8241 34.5859 67.8241C32.8709 67.8241 31.2461 67.0562 30.1571 65.732C24.699 59.1409 20.4425 43.6356 19.0575 31.2088C18.8978 29.7327 18.7715 28.2796 18.6914 26.8606L47.6188 26.8491H50.4798Z" fill="#CFD8DC"/>
<path d="M47.6188 26.8491V26.8606C47.5391 28.2796 47.4129 29.7327 47.2526 31.2088C45.8567 43.6356 41.6002 59.1409 36.1531 65.732C35.3821 66.6712 34.3323 67.3406 33.1553 67.6428C31.9783 67.3406 30.9281 66.6712 30.1571 65.732C24.699 59.1409 20.4425 43.6356 19.0575 31.2088C18.8978 29.7327 18.7715 28.2796 18.6914 26.8606L47.6188 26.8491Z" fill="#F5F5F5"/>
<path d="M52.8942 17.4777C52.8942 28.2226 48.3172 31.2088 34.586 31.2088C34.0937 31.2088 33.6133 31.2088 33.1555 31.1978C20.5343 30.9914 16.2773 27.8449 16.2773 17.4777C16.2773 7.36238 25.3974 2.09863 33.1555 1.5151C33.6359 1.48053 34.1167 1.45801 34.586 1.45801C42.5956 1.45801 52.8942 6.73277 52.8942 17.4777Z" fill="#9E9E9E"/>
<path d="M50.0337 17.4776C50.0337 27.8449 45.7767 30.9914 33.1555 31.1978C20.5343 30.9914 16.2773 27.8449 16.2773 17.4776C16.2773 7.36236 25.3974 2.0986 33.1555 1.51508C40.9137 2.0986 50.0337 7.36236 50.0337 17.4776Z" fill="#CFD8DC"/>
<path d="M48.3183 17.4776C48.3183 12.4218 42.1703 8.32355 34.5871 8.32355C27.0034 8.32355 20.8555 12.4218 20.8555 17.4776C20.8555 22.5334 27.0034 26.6317 34.5871 26.6317C42.1703 26.6317 48.3183 22.5334 48.3183 17.4776Z" fill="#37474F"/>
<path d="M32.2108 19.5944C31.8331 20.7043 30.2654 21.1852 28.606 20.7504C28.4802 20.7158 28.343 20.6818 28.2173 20.6357C26.4322 20.0181 25.3107 18.542 25.7339 17.3519C25.9623 16.7779 26.4515 16.3483 27.0502 16.1959C27.9323 15.9513 28.8694 15.9916 29.7274 16.3106C31.5126 16.9282 32.6341 18.4043 32.2108 19.5944Z" fill="#0377BC"/>
<path d="M40.9618 20.6357C40.1038 20.9553 39.1667 20.9951 38.2846 20.7505C37.6859 20.598 37.1967 20.1685 36.9683 19.5944C36.5451 18.4043 37.6665 16.9282 39.4517 16.3107C39.5774 16.2646 39.7146 16.2305 39.8409 16.1959C41.4998 15.7612 43.0675 16.242 43.4452 17.352C43.8684 18.5421 42.747 20.0182 40.9618 20.6357Z" fill="#0377BC"/>
<path d="M29.9223 19.5944C29.6939 20.1685 29.2047 20.598 28.606 20.7504C28.4802 20.7159 28.343 20.6818 28.2173 20.6357C26.4322 20.0182 25.3107 18.5421 25.7339 17.352C25.9623 16.7779 26.4515 16.3484 27.0502 16.1959C27.176 16.2305 27.3132 16.2645 27.4389 16.3106C29.2241 16.9282 30.3455 18.4043 29.9223 19.5944Z" fill="#02A9F4"/>
<path d="M38.6733 20.6357C38.5476 20.6818 38.4103 20.7159 38.2846 20.7504C37.6859 20.598 37.1967 20.1685 36.9683 19.5944C36.5451 18.4043 37.6665 16.9282 39.4517 16.3106C39.5774 16.2645 39.7146 16.2305 39.8409 16.1959C40.439 16.3484 40.9283 16.7779 41.1567 17.352C41.5799 18.5421 40.4584 20.0182 38.6733 20.6357Z" fill="#02A9F4"/>
<path d="M43.7452 39.7909C43.7452 41.3712 42.4645 42.6519 40.8847 42.6519C40.4903 42.654 40.1001 42.5718 39.7402 42.4115C38.6994 41.9558 38.0273 40.927 38.0273 39.7909C38.0273 38.6547 38.6994 37.6265 39.7402 37.1708C40.1001 37.01 40.4903 36.9282 40.8847 36.9303C42.4645 36.9303 43.7452 38.2111 43.7452 39.7909Z" fill="#2E7D32"/>
<path d="M41.4526 39.7909C41.4526 38.3441 40.6841 37.1708 39.7361 37.1708C38.788 37.1708 38.0195 38.3441 38.0195 39.7909C38.0195 41.2382 38.788 42.4115 39.7361 42.4115C40.6841 42.4115 41.4526 41.2382 41.4526 39.7909Z" fill="#4CAF50"/>
<path d="M34.5866 27.7762C45.2912 27.7762 49.4622 24.889 49.4622 17.4776C49.4622 12.5035 43.4845 7.17902 34.5866 7.17902C25.6886 7.17902 19.7109 12.5035 19.7109 17.4776C19.7109 24.889 23.8815 27.7762 34.5866 27.7762ZM34.5866 9.46754C42.0037 9.46754 47.1732 13.6889 47.1732 17.4776C47.1732 21.8603 46.2262 25.4877 34.5866 25.4877C22.947 25.4877 21.9995 21.8603 21.9995 17.4776C21.9995 13.6889 27.1689 9.46754 34.5866 9.46754Z" fill="black"/>
<path d="M27.8443 21.7116C28.4729 21.9337 29.1334 22.05 29.8002 22.0547C30.2114 22.0563 30.621 22.006 31.0197 21.9049C32.0552 21.6864 32.9106 20.9599 33.2935 19.9731C33.6047 18.9616 33.3831 17.8611 32.7042 17.0486C31.3057 15.3473 29.0727 14.5715 26.9208 15.0404C25.8853 15.2588 25.0299 15.9858 24.6475 16.9732C24.0148 18.7903 25.4196 20.8751 27.8443 21.7116ZM26.8067 17.7223C26.9507 17.4687 27.2042 17.2964 27.4928 17.2555C27.7029 17.2032 27.9187 17.177 28.135 17.1791C28.5468 17.1827 28.9553 17.255 29.3435 17.3917C29.9443 17.585 30.477 17.9454 30.8803 18.431C31.082 18.641 31.1742 18.9333 31.1297 19.2214C30.9856 19.4754 30.7321 19.6478 30.4429 19.6886C29.8259 19.8212 29.1837 19.774 28.5928 19.5524C27.2938 19.1025 26.6579 18.1528 26.8067 17.7223Z" fill="black"/>
<path d="M38.1564 21.9049C38.555 22.006 38.9651 22.0563 39.3763 22.0547C40.0426 22.05 40.7037 21.9337 41.3317 21.7116C43.7564 20.8714 45.1618 18.7867 44.5358 16.9706C44.1514 15.9827 43.2934 15.2562 42.2552 15.0404C40.1028 14.5711 37.8688 15.3463 36.4697 17.0487C35.7909 17.8611 35.5693 18.9616 35.8804 19.9731C36.2639 20.9605 37.1198 21.687 38.1564 21.9049ZM38.0422 19.2214C37.9977 18.9334 38.0899 18.6411 38.2915 18.431C38.6949 17.9455 39.2281 17.5851 39.8294 17.3918C40.217 17.2551 40.6246 17.1828 41.0352 17.1791C41.2521 17.177 41.4684 17.2032 41.6785 17.2556C41.9676 17.2965 42.2217 17.4693 42.3652 17.7239C42.515 18.1529 41.8786 19.1025 40.579 19.5546C39.9876 19.7762 39.3454 19.8233 38.7284 19.6908C38.4398 19.6499 38.1862 19.4776 38.0422 19.2241V19.2214Z" fill="black"/>
<path d="M40.88 35.7864C38.668 35.7864 36.875 37.5794 36.875 39.7909C36.875 42.0029 38.668 43.7959 40.88 43.7959C43.0916 43.7959 44.8846 42.0029 44.8846 39.7909C44.8846 37.5794 43.0916 35.7864 40.88 35.7864ZM40.88 41.5074C39.9319 41.5074 39.1635 40.739 39.1635 39.7909C39.1635 38.8433 39.9319 38.0749 40.88 38.0749C41.8276 38.0749 42.596 38.8433 42.596 39.7909C42.596 40.739 41.8276 41.5074 40.88 41.5074Z" fill="black"/>
<path d="M13.9883 43.7959C13.9883 50.409 15.5995 57.5276 19.1373 57.5276C20.6433 57.5276 21.9261 56.161 22.8438 53.6702C24.6211 58.8638 26.7849 63.4592 29.2715 66.4664C30.5789 68.0535 32.5285 68.9723 34.5855 68.9702C36.6415 68.9707 38.5895 68.0509 39.8959 66.4632C42.3803 63.455 44.5452 58.8539 46.3235 53.654C47.0715 55.7299 48.2354 57.5276 50.0332 57.5276C53.571 57.5276 55.1822 50.409 55.1822 43.7959C55.1822 38.11 53.9696 31.9709 51.3374 30.432C51.4453 29.3498 51.5333 28.2933 51.5952 27.2635C53.2095 25.0357 54.0382 21.9028 54.0382 17.4777C54.0382 5.638 42.6626 0.313477 34.5855 0.313477C26.5078 0.313477 15.1328 5.638 15.1328 17.4777C15.1328 21.9002 15.9609 25.0299 17.5722 27.2587C17.634 28.2624 17.723 29.3288 17.833 30.432C15.2014 31.9709 13.9883 38.11 13.9883 43.7959ZM19.1373 55.2391C18.2814 55.2391 16.2768 51.3482 16.2768 43.7959C16.2768 38.5212 17.2836 35.0059 18.173 33.3831C18.9037 38.8391 20.0294 44.2349 21.5406 49.528C20.8015 53.8714 19.5276 55.2391 19.1373 55.2391ZM38.1327 65.0055C37.2601 66.0662 35.9589 66.6811 34.5855 66.6817C33.2121 66.6817 31.9104 66.0672 31.0383 65.0065C25.6781 58.5265 21.528 43.0364 20.198 31.0852C20.1457 30.5944 20.1043 30.1255 20.0598 29.6515C23.3074 31.7813 28.1568 32.3533 34.5855 32.3533C41.0137 32.3533 45.8647 31.7813 49.1175 29.6515C49.0741 30.124 49.0316 30.5933 48.9793 31.082C47.6367 43.0374 43.4819 58.5286 38.1327 65.0055ZM52.8937 43.7959C52.8937 51.3482 50.8891 55.2391 50.0332 55.2391C49.644 55.2391 48.3716 53.8656 47.6299 49.4971C49.1385 44.2134 50.2636 38.8286 50.9964 33.3831C51.8869 35.0033 52.8937 38.5185 52.8937 43.7959ZM34.5855 2.602C41.713 2.602 51.7497 7.21676 51.7497 17.4777C51.7497 27.3598 48.0605 30.0648 34.5855 30.0648C21.1105 30.0648 17.4213 27.3598 17.4213 17.4777C17.4213 7.21676 27.4575 2.602 34.5855 2.602Z" fill="black"/>
</g>
<defs>
<clipPath id="clip0_1018_3139">
<rect width="68.6567" height="68.6567" fill="white" transform="translate(0.3125 0.313477)"/>
</clipPath>
</defs>
</svg>
