<svg id="Layer_1" viewBox="0 0 512 512" xmlns="http://www.w3.org/2000/svg" xmlns:xlink="http://www.w3.org/1999/xlink" data-name="Layer 1"><linearGradient id="GradientFill_1" gradientUnits="userSpaceOnUse" x1=".002" x2="512.002" y1="256" y2="256"><stop offset="0" stop-color="#00c2f3"/><stop offset="1" stop-color="#4764af"/></linearGradient><path d="m256 0c141.16 0 256 114.838 256 256s-114.841 256-256 256-256-114.843-256-256 114.84-256 256-256zm171.9 169.986a22.921 22.921 0 1 0 -22.92 22.92 22.945 22.945 0 0 0 22.92-22.92zm0 172.023a22.921 22.921 0 1 0 -22.92 22.926 22.947 22.947 0 0 0 22.92-22.926zm-145.117 63.634 89.4-51.624a35.018 35.018 0 0 1 0-24.015l-41.894-24.184-68.289 39.421v48.392a34.929 34.929 0 0 1 20.784 12.01zm-26.783 45.303a22.921 22.921 0 1 0 -22.92-22.92 22.945 22.945 0 0 0 22.92 22.92zm-116.178-96.927 89.4 51.624a34.917 34.917 0 0 1 20.778-12.01v-48.392l-68.29-39.421-41.888 24.18a35.1 35.1 0 0 1 0 24.015zm-32.8 10.916a22.923 22.923 0 1 0 -22.922-22.926 22.946 22.946 0 0 0 22.92 22.926zm-22.922-194.949a22.92 22.92 0 1 0 22.92-22.921 22.944 22.944 0 0 0 -22.92 22.921zm145.12-63.629-89.4 51.624a35.1 35.1 0 0 1 0 24.015l41.887 24.184 68.293-39.425v-48.388a34.942 34.942 0 0 1 -20.779-12.01zm26.78-45.308a22.923 22.923 0 1 0 22.921 22.92 22.947 22.947 0 0 0 -22.921-22.92zm116.183 96.932-89.4-51.624a34.954 34.954 0 0 1 -20.783 12.01v48.388l68.29 39.425 41.892-24.18a35.018 35.018 0 0 1 0-24.015zm-110.183 101.479v71.931l62.29-35.963v-71.928zm-6-82.314-62.29 35.968 62.29 35.959 62.29-35.959zm-68.29 46.354v71.927l62.29 35.964v-71.931zm-12 71.927v-78.855l-41.911-24.2a34.949 34.949 0 0 1 -20.779 12.015v103.225a34.954 34.954 0 0 1 20.78 12.015l41.911-24.2zm202.492 24.2a34.969 34.969 0 0 1 20.779-12.015v-103.224a34.964 34.964 0 0 1 -20.781-12.015l-41.912 24.2v78.856l41.912 24.2zm0-172.033-89.4-51.62a34.919 34.919 0 1 0 -65.6 0l-89.4 51.62a34.915 34.915 0 1 0 -32.779 56.794v103.224a34.921 34.921 0 1 0 32.777 56.788l89.4 51.619a34.919 34.919 0 1 0 65.6 0l89.4-51.619a34.913 34.913 0 1 0 32.779-56.785v-103.227a34.922 34.922 0 1 0 -32.779-56.794z" fill="url(#GradientFill_1)" fill-rule="evenodd"/></svg>