<svg id="Capa_1" enable-background="new 0 0 512.004 512.004" height="512" viewBox="0 0 512.004 512.004" width="512" xmlns="http://www.w3.org/2000/svg"><g><g><g><path d="m389.214 131.159h-28.041c-2.783-14.042-8.305-27.097-15.991-38.585l19.834-19.834c3.928-3.928 3.928-10.297 0-14.225l-15.414-15.414c-3.928-3.928-10.297-3.928-14.225 0l-19.834 19.834c-11.488-7.686-24.543-13.208-38.585-15.991v-28.041c0-5.555-4.503-10.059-10.059-10.059h-21.798c-5.555 0-10.059 4.503-10.059 10.059v28.041c-14.042 2.783-27.097 8.305-38.585 15.991l-19.834-19.834c-3.928-3.928-10.297-3.928-14.225 0l-15.414 15.414c-3.928 3.928-3.928 10.297 0 14.225l19.834 19.834c-7.685 11.488-13.208 24.543-15.991 38.585h-28.041c-5.555 0-10.059 4.503-10.059 10.059v21.798c0 5.555 4.503 10.059 10.059 10.059h28.041c2.783 14.042 8.305 27.097 15.991 38.585l-19.834 19.834c-3.928 3.928-3.928 10.297 0 14.225l15.414 15.414c3.928 3.928 10.297 3.928 14.225 0l19.834-19.834c11.488 7.685 24.543 13.208 38.585 15.991v28.041c0 5.555 4.503 10.059 10.059 10.059h21.798c5.555 0 10.059-4.503 10.059-10.059v-28.041c14.042-2.783 27.097-8.305 38.585-15.991l19.834 19.834c3.928 3.928 10.297 3.928 14.225 0l15.414-15.414c3.928-3.928 3.928-10.297 0-14.225l-19.834-19.834c7.685-11.488 13.208-24.543 15.991-38.585h28.041c5.555 0 10.059-4.503 10.059-10.059v-21.798c0-5.556-4.504-10.059-10.059-10.059z" fill="#7a8c98"/><g fill="#6b7e89"><path d="m340.231 58.515c3.928 3.928 3.928 10.297 0 14.225l-16.91 16.91c-1.687 1.687-1.983 4.305-.733 6.336 5.861 9.522 10.275 20.028 12.937 31.215.552 2.318 2.614 3.958 4.997 3.958h20.651c-2.783-14.042-8.305-27.097-15.99-38.585l19.834-19.834c3.928-3.928 3.928-10.297 0-14.225l-15.414-15.414c-3.928-3.928-10.297-3.928-14.225 0l-5.28 5.28z"/><path d="m252.173 18.903v23.044c0 2.831 2.278 5.13 5.109 5.144 7.296.036 19.676-.146 19.676-.146v-28.042c0-5.555-4.503-10.059-10.059-10.059h-21.798c-.509 0-1.005.05-1.493.123 4.845.723 8.565 4.889 8.565 9.936z"/><path d="m389.214 131.159h-24.785c5.555 0 10.059 4.503 10.059 10.059v21.798c0 5.555-4.503 10.059-10.059 10.059h24.785c5.555 0 10.059-4.503 10.059-10.059v-21.798c0-5.556-4.504-10.059-10.059-10.059z"/><path d="m345.182 211.66c7.685-11.488 13.208-24.543 15.99-38.585h-20.651c-2.383 0-4.445 1.64-4.997 3.958-2.662 11.187-7.076 21.694-12.937 31.215-1.25 2.031-.954 4.649.733 6.336l16.91 16.91c3.928 3.928 3.928 10.297 0 14.225l-10.134 10.134 5.28 5.28c3.928 3.928 10.297 3.928 14.225 0l15.414-15.413c3.928-3.928 3.928-10.297 0-14.225z"/><path d="m257.249 257.049c-2.815.031-5.077 2.329-5.077 5.143v23.138c0 5.046-3.72 9.213-8.565 9.936.489.073.984.123 1.493.123h21.798c5.555 0 10.059-4.503 10.059-10.059v-28.041c.001 0-12.333-.321-19.708-.24z"/></g><circle cx="256" cy="152.117" fill="#80d261" r="59.063"/><path d="m256 93.054c-5.327 0-10.484.717-15.392 2.039 25.153 6.774 43.671 29.731 43.671 57.024s-18.517 50.251-43.671 57.024c4.909 1.322 10.066 2.039 15.392 2.039 32.62 0 59.063-26.443 59.063-59.063s-26.443-59.063-59.063-59.063z" fill="#62c13a"/></g><g><path d="m256 503.155v-41.78c0-18.28 5.73-36.101 16.383-50.956l31.182-43.48 73.658-9.65 63.108-28.202c6.978-3.118 12.572-8.683 15.728-15.644l15.638-34.496c3.182-7.019 10.653-11.056 18.268-9.872 10.938 1.702 17.428 13.161 13.262 23.417l-26.585 65.439c-3.207 7.894-8.47 14.784-15.242 19.954l-93.797 71.615c-5.475 4.18-8.687 10.674-8.687 17.563v36.091h-102.916z" fill="#ffe5c2"/><path d="m489.966 269.076c-5.656-.88-11.23 1.125-15.028 5.09 4.46 4.676 6.178 11.747 3.505 18.327l-26.585 65.439c-3.207 7.894-8.47 14.784-15.242 19.954l-93.797 71.615c-5.475 4.18-8.687 10.675-8.687 17.563v36.091h24.785v-36.091c0-6.888 3.212-13.383 8.687-17.563l93.797-71.615c6.772-5.17 12.035-12.061 15.242-19.954l26.585-65.439c4.166-10.256-2.324-21.716-13.262-23.417z" fill="#fed2a4"/><path d="m303.565 366.939 49.253-52.769 14.363-24.172c2.829-4.761 7.958-7.68 13.496-7.68 10.466 0 18.001 10.047 15.072 20.094l-26.16 77.487z" fill="#ffe5c2"/><path d="m380.678 282.319c-4.882 0-9.443 2.269-12.394 6.068 2.945 3.79 4.173 8.906 2.681 14.026l-21.112 62.534c-1.858 5.503 1.554 11.384 7.253 12.503l12.483 2.45 26.16-77.487c2.93-10.048-4.605-20.094-15.071-20.094z" fill="#fed2a4"/></g><g><path d="m256 503.155v-41.78c0-18.28-5.73-36.101-16.383-50.956l-31.182-43.48-73.658-9.65-63.108-28.202c-6.978-3.118-12.572-8.683-15.728-15.644l-15.638-34.496c-3.182-7.019-10.653-11.056-18.268-9.872-10.938 1.702-17.428 13.161-13.262 23.417l26.585 65.439c3.207 7.894 8.47 14.784 15.242 19.954l93.797 71.615c5.475 4.18 8.687 10.674 8.687 17.563v36.091h102.916z" fill="#ffe5c2"/><path d="m239.617 410.419-31.182-43.48-73.658-9.65-63.108-28.202c-6.978-3.118-12.572-8.683-15.728-15.644l-15.638-34.496c-3.182-7.019-10.653-11.056-18.268-9.872-6.166.959-10.918 5.02-13.145 10.217 4.706 1.365 8.738 4.708 10.859 9.387l11.407 24.763c3.156 6.961 8.75 12.526 15.728 15.644l63.108 28.202 73.658 9.65 31.182 43.48c10.653 14.855 16.383 32.676 16.383 50.956v41.78h24.785v-41.78c0-18.279-5.729-36.1-16.383-50.955z" fill="#fed2a4"/><path d="m208.435 366.939-49.253-52.769-14.363-24.172c-2.829-4.761-7.958-7.68-13.496-7.68-10.466 0-18.001 10.047-15.072 20.094l26.16 77.487z" fill="#ffe5c2"/><path d="m127.185 302.069 7.211 12.101 53.091 56.881 20.947-4.112-49.253-52.769-14.363-24.172c-2.829-4.761-7.958-7.68-13.496-7.68-7.675 0-13.768 5.405-15.32 12.249 4.626.689 8.753 3.413 11.183 7.502z" fill="#fed2a4"/></g></g><g><path d="m122.786 180.575h22.051c2.692 10.571 6.859 20.625 12.441 30.018l-15.597 15.598c-3.317 3.316-5.144 7.726-5.144 12.416s1.826 9.1 5.143 12.416l15.414 15.414c3.316 3.316 7.726 5.143 12.416 5.143s9.1-1.827 12.415-5.143l15.599-15.598c9.393 5.583 19.446 9.75 30.018 12.441v22.051c0 9.682 7.877 17.559 17.559 17.559h21.799c9.682 0 17.559-7.877 17.559-17.559v-22.051c10.571-2.692 20.625-6.858 30.018-12.441l15.598 15.597c3.316 3.317 7.726 5.144 12.416 5.144s9.1-1.827 12.417-5.143l15.412-15.413c3.317-3.316 5.144-7.726 5.144-12.417s-1.826-9.1-5.143-12.416l-15.598-15.598c5.582-9.394 9.749-19.447 12.441-30.018h22.051c9.682 0 17.559-7.877 17.559-17.559v-21.798c0-9.682-7.877-17.559-17.559-17.559h-22.051c-2.692-10.57-6.859-20.625-12.441-30.018l15.597-15.598c3.317-3.316 5.144-7.726 5.144-12.417 0-4.69-1.826-9.1-5.143-12.416l-15.414-15.414c-3.316-3.316-7.726-5.143-12.416-5.143s-9.1 1.827-12.415 5.143l-15.599 15.598c-9.393-5.583-19.446-9.75-30.018-12.441v-22.05c0-9.682-7.877-17.559-17.559-17.559h-21.799c-9.682 0-17.559 7.877-17.559 17.559v22.051c-10.571 2.692-20.625 6.858-30.018 12.441l-15.598-15.598c-3.316-3.316-7.726-5.143-12.416-5.143s-9.1 1.827-12.417 5.143l-15.412 15.413c-3.317 3.316-5.144 7.726-5.144 12.416s1.826 9.1 5.143 12.416l15.598 15.598c-5.582 9.394-9.749 19.448-12.441 30.018h-22.051c-9.682 0-17.559 7.877-17.559 17.559v21.798c.001 9.683 7.877 17.56 17.559 17.56zm-2.558-39.357c0-1.411 1.147-2.559 2.559-2.559h28.041c3.58 0 6.661-2.53 7.356-6.042 2.551-12.869 7.553-24.939 14.867-35.874 1.99-2.975 1.601-6.942-.93-9.473l-19.834-19.834c-.652-.652-.749-1.413-.749-1.809s.097-1.157.75-1.809l15.412-15.413c.652-.652 1.414-.75 1.811-.75.396 0 1.157.098 1.809.75l19.834 19.833c2.531 2.531 6.5 2.92 9.474.93 10.934-7.314 23.003-12.316 35.873-14.867 3.512-.696 6.042-3.777 6.042-7.357v-28.041c0-1.411 1.147-2.559 2.559-2.559h21.799c1.411 0 2.559 1.148 2.559 2.559v28.042c0 3.58 2.53 6.661 6.042 7.357 12.87 2.55 24.939 7.552 35.873 14.867 2.973 1.991 6.94 1.602 9.474-.93l19.834-19.834c.651-.651 1.413-.749 1.809-.749s1.158.098 1.81.75l15.414 15.414c.652.652.749 1.413.749 1.809s-.097 1.157-.75 1.81l-19.836 19.831c-2.53 2.531-2.92 6.498-.93 9.473 7.314 10.935 12.316 23.004 14.867 35.874.695 3.512 3.776 6.042 7.356 6.042h28.041c1.411 0 2.559 1.148 2.559 2.559v21.798c0 1.411-1.147 2.559-2.559 2.559h-28.041c-3.58 0-6.661 2.53-7.356 6.042-2.551 12.869-7.553 24.939-14.867 35.874-1.99 2.975-1.601 6.942.93 9.473l19.834 19.834c.652.652.749 1.413.749 1.809s-.097 1.157-.75 1.81l-15.412 15.412c-.652.652-1.414.75-1.811.75-.396 0-1.157-.098-1.809-.75l-19.834-19.833c-2.53-2.53-6.498-2.921-9.474-.931-10.934 7.315-23.003 12.317-35.873 14.867-3.512.696-6.042 3.777-6.042 7.357v28.042c0 1.411-1.147 2.559-2.559 2.559h-21.799c-1.411 0-2.559-1.148-2.559-2.559v-28.042c0-3.58-2.53-6.661-6.042-7.357-12.87-2.55-24.939-7.552-35.873-14.867-1.271-.85-2.724-1.266-4.167-1.266-1.936 0-3.856.747-5.307 2.197l-19.834 19.833c-.651.652-1.413.75-1.809.75s-1.158-.098-1.81-.75l-15.414-15.414c-.652-.652-.749-1.413-.749-1.809s.097-1.157.75-1.809l19.833-19.834c2.53-2.531 2.92-6.498.93-9.473-7.314-10.935-12.316-23.004-14.867-35.874-.695-3.512-3.776-6.042-7.356-6.042h-28.041c-1.411 0-2.559-1.148-2.559-2.559v-21.797z"/><path d="m269.637 133.942-20.439 20.44-6.835-6.834c-2.928-2.93-7.677-2.929-10.606 0s-2.929 7.678.001 10.606l12.138 12.137c1.464 1.465 3.384 2.197 5.303 2.197s3.839-.732 5.304-2.197l25.743-25.743c2.929-2.929 2.929-7.678 0-10.606-2.932-2.929-7.68-2.929-10.609 0z"/><path d="m256 218.68c29.517 0 55.113-18.957 63.692-47.173 1.205-3.963-1.031-8.152-4.994-9.357-3.962-1.203-8.151 1.031-9.357 4.994-6.645 21.854-26.474 36.536-49.341 36.536-28.433 0-51.563-23.131-51.563-51.563s23.131-51.563 51.563-51.563c22.628 0 42.396 14.486 49.189 36.046 1.245 3.95 5.453 6.144 9.407 4.899 3.951-1.245 6.145-5.457 4.899-9.407-8.771-27.836-34.288-46.538-63.496-46.538-36.703 0-66.563 29.86-66.563 66.563s29.861 66.563 66.564 66.563z"/><path d="m508.786 273.879c-3.736-6.597-10.176-11.049-17.668-12.214-10.896-1.697-21.697 4.137-26.252 14.186l-15.639 34.497c-2.4 5.296-6.647 9.52-11.956 11.893l-47.46 21.208 13.044-38.638c.034-.099.065-.199.095-.299 2.063-7.077.71-14.517-3.713-20.414s-11.188-9.279-18.56-9.279c-8.143 0-15.785 4.349-19.943 11.349l-13.95 23.477-48.701 52.178c-.609.546-31.095 43.352-31.795 44.227-4.137 5.769-7.567 11.911-10.287 18.322-2.72-6.411-6.15-12.553-10.287-18.323-.554-.677-31.057-43.479-31.797-44.226l-48.701-52.178-13.949-23.477c-4.159-7-11.802-11.349-19.944-11.349-7.372 0-14.137 3.382-18.56 9.279s-5.776 13.337-3.713 20.414c.029.101.061.2.095.299l13.044 38.637-47.459-21.206c-5.31-2.373-9.557-6.599-11.96-11.9l-15.639-34.486c-4.554-10.055-15.353-15.889-26.257-14.187-12.095 1.886-20.874 12.135-20.874 24.37 0 3.158.61 6.272 1.821 9.273l26.588 65.432c3.695 9.125 9.794 17.115 17.639 23.105 1.358 1.038 2.959 1.54 4.546 1.54 2.258 0 4.49-1.016 5.967-2.948 2.514-3.292 1.883-7.999-1.409-10.513-5.712-4.361-10.152-10.175-12.843-16.822l-26.584-65.422c-.48-1.192-.725-2.419-.725-3.645 0-4.794 3.442-8.81 8.188-9.55 4.271-.666 8.497 1.617 10.282 5.558l15.64 34.488c3.916 8.641 10.842 15.531 19.501 19.401l60.11 26.86 6.584 19.502c1.056 3.129 3.976 5.104 7.104 5.103.796 0 1.604-.127 2.4-.396 3.924-1.325 6.031-5.581 4.706-9.505l-26.102-77.315c-.677-2.462-.188-5.038 1.349-7.087 1.563-2.084 3.954-3.28 6.56-3.28 2.878 0 5.578 1.537 7.049 4.011l14.363 24.172c.274.462.598.894.965 1.287l48.903 52.394 30.923 43.108c9.797 13.661 14.975 29.771 14.975 46.589v41.775.005c0 4.142 3.357 7.5 7.5 7.5s7.5-3.358 7.5-7.5v-.005-41.775-.004c0-16.813 5.179-32.922 14.978-46.585l30.902-43.089 48.921-52.413c.367-.393.69-.824.965-1.287l14.364-24.172c1.47-2.474 4.17-4.011 7.048-4.011 2.605 0 4.996 1.195 6.56 3.28 1.537 2.049 2.025 4.625 1.349 7.087l-26.103 77.315c-1.325 3.924.782 8.18 4.706 9.505.796.269 1.604.396 2.4.396 3.129 0 6.049-1.974 7.104-5.103l6.584-19.501 60.113-26.863c8.658-3.87 15.583-10.758 19.498-19.395l15.639-34.497c1.784-3.936 6.006-6.226 10.285-5.557 2.935.456 5.457 2.2 6.921 4.785s1.663 5.646.545 8.398l-26.585 65.439c-2.701 6.647-7.143 12.462-12.845 16.816l-93.797 71.615c-7.286 5.563-11.636 14.357-11.636 23.523v36.091c0 4.142 3.357 7.5 7.5 7.5s7.5-3.358 7.5-7.5v-36.091c0-4.521 2.146-8.857 5.739-11.602l93.797-71.615c7.83-5.979 13.93-13.964 17.638-23.092l26.585-65.439c2.854-7.023 2.348-14.836-1.389-21.434z"/><path d="m148.951 443.538-65.874-50.29c-3.291-2.513-7.999-1.881-10.512 1.41-2.514 3.292-1.883 7.999 1.41 10.513l65.871 50.288c3.59 2.744 5.733 7.081 5.733 11.601v36.1c0 4.142 3.357 7.5 7.5 7.5s7.5-3.358 7.5-7.5v-36.1c.001-9.164-4.345-17.956-11.628-23.522z"/><path d="m59.871 87.732h5.321v5.321c0 4.142 3.357 7.5 7.5 7.5s7.5-3.358 7.5-7.5v-5.321h5.321c4.143 0 7.5-3.358 7.5-7.5s-3.357-7.5-7.5-7.5h-5.321v-5.321c0-4.142-3.357-7.5-7.5-7.5s-7.5 3.358-7.5 7.5v5.321h-5.321c-4.143 0-7.5 3.358-7.5 7.5s3.358 7.5 7.5 7.5z"/></g></g></svg>