<svg width="230" height="200" viewBox="0 0 230 200" fill="none" xmlns="http://www.w3.org/2000/svg">
<g clip-path="url(#clip0_1206_634)">
<path d="M187.348 -22H42.6516C15.2298 -22 -7 0.412212 -7 28.0591V171.941C-7 199.588 15.2298 222 42.6516 222H187.348C214.77 222 237 199.588 237 171.941V28.0591C237 0.412212 214.77 -22 187.348 -22Z" fill="#10A37F"/>
<path d="M173.464 87.6146C174.617 84.1504 175.205 80.5234 175.206 76.8724C175.205 70.8312 173.596 64.899 170.544 59.6857C164.41 49.0088 153.031 42.417 140.717 42.417C138.291 42.417 135.872 42.6732 133.499 43.1814C130.309 39.5865 126.392 36.7088 122.008 34.738C117.624 32.7673 112.872 31.7483 108.065 31.7482H107.849L107.768 31.7486C92.8534 31.7486 79.6264 41.3728 75.0414 55.561C70.2954 56.5331 65.8117 58.5078 61.8906 61.353C57.9695 64.1982 54.7014 67.8482 52.3051 72.0587C49.2618 77.3034 47.6581 83.2589 47.6562 89.3226C47.6574 97.8444 50.8207 106.063 56.5337 112.386C55.3805 115.85 54.7923 119.477 54.7918 123.128C54.7924 129.169 56.4016 135.101 59.454 140.315C63.084 146.635 68.6274 151.639 75.2848 154.605C81.9423 157.571 89.3698 158.346 96.4963 156.819C99.6874 160.414 103.604 163.291 107.989 165.262C112.373 167.233 117.125 168.252 121.932 168.252H122.148L122.236 168.252C137.159 168.252 150.382 158.627 154.967 144.426C159.713 143.454 164.196 141.479 168.118 138.634C172.039 135.788 175.307 132.138 177.704 127.928C180.743 122.688 182.344 116.737 182.343 110.679C182.342 102.158 179.179 93.9396 173.466 87.6165L173.464 87.6146ZM122.157 159.328H122.122C116.15 159.326 110.368 157.231 105.782 153.408C106.054 153.261 106.323 153.109 106.589 152.95L133.768 137.251C134.447 136.865 135.01 136.306 135.403 135.631C135.795 134.957 136.002 134.19 136.002 133.41V95.0662L147.49 101.699C147.551 101.729 147.603 101.774 147.642 101.829C147.681 101.884 147.705 101.948 147.714 102.014V133.747C147.698 147.855 136.266 159.3 122.157 159.328ZM67.1953 135.854C64.9503 131.972 63.7675 127.568 63.766 123.083C63.766 121.621 63.8937 120.154 64.1425 118.713C64.3445 118.834 64.6972 119.05 64.9502 119.195L92.1295 134.894C92.8071 135.29 93.5777 135.498 94.3624 135.498C95.147 135.498 95.9175 135.289 96.5949 134.893L129.778 115.733V129L129.778 129.023C129.778 129.087 129.764 129.15 129.735 129.207C129.707 129.264 129.665 129.314 129.614 129.352L102.138 145.216C98.2506 147.454 93.8439 148.632 89.3583 148.633C84.868 148.633 80.4567 147.451 76.5668 145.208C72.6769 142.965 69.4451 139.739 67.1953 135.853V135.854ZM60.045 76.5193C63.0301 71.3343 67.7436 67.3642 73.3606 65.3039C73.3606 65.5379 73.3473 65.9525 73.3473 66.2403V97.6396L73.3468 97.6653C73.3469 98.445 73.5534 99.2107 73.9452 99.8847C74.337 100.559 74.9002 101.117 75.5776 101.503L108.761 120.66L97.2731 127.294C97.2164 127.331 97.1514 127.354 97.0838 127.36C97.0162 127.366 96.9481 127.355 96.8856 127.329L69.407 111.452C65.5225 109.202 62.2977 105.97 60.0557 102.08C57.8137 98.1912 56.6333 93.7809 56.6328 89.2916C56.6345 84.8094 57.8115 80.406 60.0464 76.5207L60.045 76.5193ZM154.431 98.4836L121.248 79.3239L132.736 72.693C132.792 72.6556 132.857 72.6328 132.925 72.6266C132.992 72.6205 133.06 72.6312 133.123 72.6577L160.601 88.5215C164.489 90.7683 167.717 93.9983 169.962 97.8872C172.206 101.776 173.389 106.187 173.39 110.677C173.39 121.395 166.702 130.985 156.647 134.686V102.348C156.648 102.336 156.648 102.324 156.648 102.312C156.648 101.535 156.443 100.772 156.053 100.1C155.664 99.4278 155.104 98.8702 154.431 98.4836ZM165.865 81.2744C165.598 81.1108 165.328 80.9503 165.057 80.7931L137.878 65.0932C137.2 64.6984 136.43 64.4902 135.646 64.4899C134.862 64.4902 134.091 64.6984 133.414 65.0932L100.23 84.2534V70.9864L100.23 70.9635C100.23 70.8339 100.291 70.7119 100.395 70.6342L127.87 54.7838C131.757 52.5432 136.164 51.3637 140.65 51.3635C154.777 51.3635 166.234 62.82 166.234 76.9472C166.233 78.397 166.11 79.8441 165.865 81.273V81.2744ZM93.9843 104.921L82.4939 98.2872C82.4336 98.2572 82.3817 98.2127 82.3427 98.1578C82.3037 98.1028 82.2789 98.0391 82.2704 97.9722V66.2394C82.2766 52.1198 93.7332 40.6727 107.854 40.6727C113.835 40.674 119.626 42.7691 124.224 46.5945C124.017 46.7075 123.656 46.9067 123.416 47.052L96.237 62.7514C95.5589 63.1372 94.995 63.6957 94.6026 64.3702C94.2103 65.0446 94.0036 65.8108 94.0034 66.5911V66.6163L93.9843 104.921ZM100.225 91.4657L115.004 82.9295L129.783 91.46V108.527L115.004 117.058L100.225 108.527V91.4657Z" fill="white"/>
</g>
<defs>
<clipPath id="clip0_1206_634">
<rect width="244" height="244" fill="white" transform="translate(-7 -22)"/>
</clipPath>
</defs>
</svg>
