<svg width="129" height="133" viewBox="0 0 129 133" fill="none" xmlns="http://www.w3.org/2000/svg">
<g clip-path="url(#clip0_1071_899)">
<path d="M110.093 110.967C135.28 85.582 135.28 44.4243 110.093 19.039C84.9069 -6.34633 44.0717 -6.34634 18.8853 19.039C-6.30113 44.4243 -6.30113 85.582 18.8853 110.967C44.0717 136.353 84.9069 136.353 110.093 110.967Z" fill="#F5834E"/>
<mask id="mask0_1071_899" style="mask-type:luminance" maskUnits="userSpaceOnUse" x="-1" y="0" width="130" height="131">
<path d="M110.093 110.967C135.28 85.582 135.28 44.4243 110.093 19.039C84.9069 -6.34633 44.0717 -6.34634 18.8853 19.039C-6.30113 44.4243 -6.30113 85.582 18.8853 110.967C44.0717 136.353 84.9069 136.353 110.093 110.967Z" fill="white"/>
</mask>
<g mask="url(#mask0_1071_899)">
<path d="M76.8427 86.4058H52.1445V103.175H76.8427V86.4058Z" fill="#FBBCA0"/>
<g style="mix-blend-mode:multiply">
<path d="M58.1342 98.5418C61.8562 100.032 65.9356 100.927 69.941 100.964C72.2334 100.989 74.575 100.691 76.8427 100.293V86.4058H52.1445V95.0762C53.8823 96.6165 56.0884 97.722 58.1342 98.5294V98.5418Z" fill="#E6E7E8"/>
</g>
<path d="M90.2866 55.3513C90.3605 54.7426 91.3711 53.7489 91.8148 53.4135C92.7885 52.6682 93.7744 53.4384 94.0702 54.4073C94.329 55.2768 94.3537 56.2581 94.4153 57.1525C94.5632 59.3511 94.2427 61.5125 93.2814 63.5C92.6406 64.8291 91.63 65.9098 90.4468 66.7297C90.4468 66.7297 89.1651 67.388 88.9062 65.8726C88.9062 65.8726 90.2989 55.3513 90.2989 55.3389L90.2866 55.3513Z" fill="#FBBCA0"/>
<path d="M90.0764 56.668C90.138 56.2332 90.8528 55.5252 91.161 55.2767C91.8635 54.7426 92.5659 55.2891 92.7755 55.9848C92.9603 56.6058 92.9727 57.3015 93.022 57.9598C93.1329 59.5374 92.8987 61.0777 92.2085 62.4938C91.7525 63.4378 91.0254 64.2204 90.175 64.8042C90.175 64.8042 89.263 65.2763 89.0781 64.1956C89.0781 64.1956 90.0764 56.668 90.0764 56.6555V56.668Z" fill="#DDA78F"/>
<path d="M38.081 55.3513C38.0071 54.7426 36.9965 53.7489 36.5528 53.4135C35.5792 52.6682 34.5932 53.4384 34.2974 54.4073C34.0386 55.2768 34.014 56.2581 33.9523 57.1525C33.8045 59.3511 34.1249 61.5125 35.0862 63.5C35.7271 64.8291 36.7253 65.9098 37.9208 66.7297C37.9208 66.7297 39.2026 67.388 39.4614 65.8726C39.4614 65.8726 38.0687 55.3513 38.0687 55.3389L38.081 55.3513Z" fill="#FBBCA0"/>
<path d="M38.2765 56.668C38.2149 56.2332 37.5001 55.5252 37.192 55.2767C36.4895 54.7426 35.787 55.2891 35.5775 55.9848C35.3926 56.6058 35.3803 57.3015 35.331 57.9598C35.2201 59.5374 35.4542 61.0777 36.1444 62.4938C36.6004 63.4378 37.3275 64.2204 38.1779 64.8042C38.1779 64.8042 39.0899 65.2763 39.2748 64.1956C39.2748 64.1956 38.2765 56.668 38.2765 56.6555V56.668Z" fill="#DDA78F"/>
<path d="M91.0622 57.3264C91.0622 64.2702 89.9037 71.2885 86.724 77.3006C83.951 82.555 79.7853 86.766 75.3239 90.1199C71.7005 92.8402 67.8183 96.0202 63.2213 95.6351C58.4394 95.2252 54.7174 91.0267 51.2173 87.7473C46.2998 83.1264 42.4299 77.4 40.039 70.6549C38.5724 66.4936 37.8945 61.8106 37.8945 57.3388C37.8945 34.8926 49.7999 20.7815 64.4784 20.7815C79.1568 20.7815 91.0622 34.8926 91.0622 57.3388V57.3264Z" fill="#FBBCA0"/>
<path d="M107.628 110.765L76.8417 102.654H52.1435L21.3571 110.765C21.3571 110.765 7.09767 116.094 5.50781 132.95H123.477C121.888 116.094 107.628 110.765 107.628 110.765Z" fill="#FBBCA0"/>
<path d="M107.628 110.765L76.8417 102.654H52.1435L21.3571 110.765C21.3571 110.765 7.09767 116.094 5.50781 132.95H123.477C121.888 116.094 107.628 110.765 107.628 110.765Z" fill="white"/>
<path d="M107.627 110.765L84.8514 104.765L64.5037 132.963L44.3779 104.716L21.3805 110.777C21.3805 110.777 7.1211 116.106 5.53125 132.963H123.476C121.886 116.106 107.627 110.777 107.627 110.777V110.765Z" fill="#3C0000"/>
<path d="M61.7942 118.827L56.125 132.95H72.2454L66.7117 118.827H61.7942Z" fill="#14BAAB"/>
<path d="M64.1206 102.927L56.8984 112.69L61.9145 118.864L64.3794 118.827L66.8319 118.789L71.6508 112.454L64.1206 102.927Z" fill="#14BAAB"/>
<g style="mix-blend-mode:multiply">
<path d="M68.94 111.411C68.0157 113.249 66.3026 115.349 63.961 114.827C61.5454 114.293 60.4485 111.995 61.0031 109.659C61.5454 107.386 62.9996 105.486 63.8131 103.337L56.8867 112.69L61.9028 118.864L66.8202 118.777L71.6391 112.442L69.6055 109.871C69.4084 110.392 69.1865 110.914 68.94 111.411Z" fill="#D1D3D4"/>
</g>
<path d="M64.4911 132.95L44.3653 104.703L28.2695 108.951L48.839 123.547L43.5518 125.895L53.0663 132.95H64.4911Z" fill="#270000"/>
<path d="M64.4922 133L84.6303 104.74L100.726 108.989L80.1566 123.584L85.4314 125.932L75.9293 133H64.4922Z" fill="#270000"/>
<path d="M40.0273 103.25L52.1053 97.5356L64.4051 102.716L76.7172 97.5356L89.6209 103.25L71.3807 115.56L64.4051 105.498L56.8995 115.56L40.0273 103.25Z" fill="#E2E3E4"/>
<path d="M80.0592 86.0581C80.0592 86.0581 86.7391 79.6981 88.2057 74.0835C88.2057 74.0835 80.3304 81.2384 77.582 80.4807L80.0469 86.0581H80.0592Z" fill="#150000"/>
<path d="M50.7892 87.9585C50.7892 87.9585 43.0495 81.2756 40.9297 72.9033C40.9297 72.9033 49.754 83.1761 52.5023 82.406L50.7892 87.9585Z" fill="#150000"/>
<path d="M69.1991 76.9529C73.5743 77.015 75.9529 78.5304 75.9529 78.5304C79.7858 80.3564 80.7717 85.3127 80.7717 85.3127C80.7717 85.3127 78.1343 88.2567 74.9053 90.3435C67.6215 96.4302 64.2816 95.6601 64.2816 95.6601C60.1406 95.6601 57.232 93.0515 57.232 93.0515L50.4166 87.6729C49.5662 81.5613 54.8657 78.5304 54.8657 78.5304C58.0454 76.9777 58.6124 77.1764 58.6124 77.1764C58.6124 77.1764 63.3696 76.6175 64.5281 78.518C64.5281 78.518 65.7236 76.9404 68.9649 76.9404" fill="#1E0500"/>
<path d="M65.1344 81.9836C65.1344 81.9836 62.1396 80.4805 57.7891 82.0953C57.7891 82.0953 64.395 89.1509 71.8882 82.1823C71.8882 82.1823 67.8705 80.2942 65.1221 81.9836H65.1344Z" fill="#FBBCA0"/>
<path d="M91.2977 24.2224C97.2874 19.8251 96.6342 13.0676 96.6342 13.0676C93.1464 16.9308 88.0441 17.4277 88.0441 17.4277C93.3313 14.2353 90.7061 7.57721 90.7061 7.57721C89.0547 11.3037 81.7093 13.4403 81.7093 13.4403C85.2711 11.0429 83.0527 5.58972 83.0527 5.58972C80.5631 9.85039 73.1192 11.7137 73.1192 11.7137C78.012 8.91876 78.5296 4.91895 78.5296 4.91895C74.1667 8.78212 62.286 10.6454 62.286 10.6454C62.286 10.6454 49.1851 11.8503 45.9314 22.8187C36.3553 24.21 36.2691 40.5322 36.9346 49.3392L37.5385 59.9971H39.6706C38.7216 54.8918 39.6706 47.9728 39.6706 47.9728C41.1372 43.0165 41.889 40.085 42.8257 38.0106C45.0934 33.017 48.6305 31.5016 50.8859 31.0544L53.0303 30.8929C62.4092 29.5141 65.1699 36.2218 65.1699 36.2218C66.6242 32.3587 71.517 31.427 71.517 31.427C85.7764 29.5141 87.8222 40.88 87.8222 40.88L89.4367 48.1095C89.6586 50.5193 90.0406 56.0967 89.3135 59.9971H91.4456L92.0495 49.3392C92.0618 49.0038 92.0618 48.7181 92.0495 48.4573C93.1217 42.5197 94.0707 32.8307 91.2854 24.2224H91.2977Z" fill="#150000"/>
</g>
</g>
<defs>
<clipPath id="clip0_1071_899">
<rect width="129" height="133" fill="white"/>
</clipPath>
</defs>
</svg>
