<svg width="129" height="129" viewBox="0 0 129 129" fill="none" xmlns="http://www.w3.org/2000/svg">
<g clip-path="url(#clip0_1071_966)">
<path d="M128.847 69.057C131.362 33.527 104.596 2.6849 69.0631 0.169243C33.5297 -2.34642 2.68462 24.417 0.168721 59.947C-2.34718 95.477 24.4188 126.319 59.9522 128.835C95.4856 131.35 126.331 104.587 128.847 69.057Z" fill="#7A4B35"/>
<mask id="mask0_1071_966" style="mask-type:luminance" maskUnits="userSpaceOnUse" x="0" y="0" width="130" height="129">
<path d="M128.847 69.057C131.362 33.527 104.596 2.6849 69.0631 0.169243C33.5297 -2.34642 2.68462 24.417 0.168721 59.947C-2.34718 95.477 24.4188 126.319 59.9522 128.835C95.4856 131.35 126.331 104.587 128.847 69.057Z" fill="white"/>
</mask>
<g mask="url(#mask0_1071_966)">
<path d="M76.5443 82.3027H51.8438V98.9407H76.5443V82.3027Z" fill="#FBBCA0"/>
<g style="mix-blend-mode:multiply">
<path d="M57.834 94.3314C61.5563 95.8103 65.6361 96.6977 69.642 96.7347C71.9345 96.7593 74.2764 96.4635 76.5443 96.0691V82.3027H51.8438V90.9052C53.5817 92.4334 55.8003 93.518 57.834 94.3314Z" fill="#E6E7E8"/>
</g>
<path d="M91.4472 51.4793C91.5335 50.8754 92.5935 49.8894 93.0619 49.5567C94.0972 48.8172 95.1326 49.5813 95.4407 50.5426C95.7119 51.4054 95.7365 52.379 95.7982 53.2663C95.9584 55.4478 95.6133 57.5922 94.6026 59.5641C93.9247 60.8829 92.8647 61.9551 91.6075 62.7685C91.6075 62.7685 90.2516 63.4217 89.9805 61.9181C89.9805 61.9181 91.4472 51.4793 91.4472 51.467V51.4793Z" fill="#FBBCA0"/>
<path d="M91.2358 52.7857C91.2974 52.3544 92.0616 51.6519 92.3821 51.4054C93.1216 50.8755 93.8735 51.4177 94.083 52.1079C94.2802 52.7241 94.2925 53.4143 94.3418 54.0552C94.4528 55.6204 94.2063 57.1486 93.479 58.5536C92.9983 59.4902 92.2342 60.2667 91.3344 60.8459C91.3344 60.8459 90.3607 61.3143 90.1758 60.242C90.1758 60.242 91.2235 52.7734 91.2235 52.7611L91.2358 52.7857Z" fill="#DDA78F"/>
<path d="M36.3025 51.4793C36.2162 50.8754 35.1562 49.8894 34.6878 49.5567C33.6525 48.8172 32.6171 49.5813 32.309 50.5426C32.0378 51.4054 32.0132 52.379 31.9516 53.2663C31.7913 55.4478 32.1364 57.5922 33.1471 59.5641C33.825 60.8829 34.8851 61.9551 36.1423 62.7685C36.1423 62.7685 37.4981 63.4217 37.7692 61.9181C37.7692 61.9181 36.3025 51.4793 36.3025 51.467V51.4793Z" fill="#FBBCA0"/>
<path d="M36.5103 52.7857C36.4487 52.3544 35.6969 51.6519 35.3641 51.4054C34.6245 50.8755 33.8727 51.4177 33.6631 52.1079C33.4659 52.7241 33.4536 53.4143 33.4043 54.0552C33.2934 55.6204 33.5399 57.1486 34.2671 58.5536C34.7478 59.4902 35.512 60.2667 36.4117 60.8459C36.4117 60.8459 37.3855 61.3143 37.5703 60.242C37.5703 60.242 36.5227 52.7734 36.5227 52.7611L36.5103 52.7857Z" fill="#DDA78F"/>
<path d="M92.2851 53.4514C92.2851 60.3408 91.0525 67.3041 87.6999 73.2691C84.7664 78.4824 80.3785 82.6603 75.6578 85.9879C71.8245 88.687 67.7201 91.8421 62.8761 91.46C57.8226 91.0533 53.8907 86.8876 50.1931 83.634C45.004 79.0493 40.8995 73.3677 38.3851 66.6755C36.8321 62.5468 36.1172 57.9005 36.1172 53.4637C36.1172 31.1934 48.6893 17.1929 64.195 17.1929C79.7006 17.1929 92.2727 31.1934 92.2727 53.4637L92.2851 53.4514Z" fill="#FBBCA0"/>
<path d="M107.322 106.471L76.5321 98.4231H51.8316L21.0422 106.471C21.0422 106.471 6.76909 111.758 5.19141 128.482H123.172C121.582 111.758 107.322 106.471 107.322 106.471Z" fill="#FBBCA0"/>
<path d="M107.322 106.471L76.5321 98.4231H51.8316L21.0422 106.471C21.0422 106.471 6.76909 111.758 5.19141 128.482H123.172C121.582 111.758 107.322 106.471 107.322 106.471Z" fill="white"/>
<path d="M107.321 106.471L84.5432 100.518L64.1936 128.495L44.0535 100.469L21.0539 106.483C21.0539 106.483 6.7808 111.771 5.20312 128.495H123.172C121.582 111.771 107.321 106.483 107.321 106.483V106.471Z" fill="#002C41"/>
<path d="M61.4946 114.47L55.8125 128.483H71.9344L66.4002 114.47H61.4946Z" fill="#FBB040"/>
<path d="M63.8244 98.6943L56.6016 108.381L61.6181 114.507L64.0709 114.47L66.536 114.42L71.3553 108.135L63.8244 98.6943Z" fill="#FBB040"/>
<g style="mix-blend-mode:multiply">
<path d="M68.6443 107.112C67.7199 108.936 66.0066 111.019 63.6648 110.501C61.2489 109.971 60.1396 107.691 60.7066 105.374C61.2489 103.119 62.7034 101.233 63.5168 99.1011L56.5898 108.381L61.6064 114.507L66.5243 114.433L71.3436 108.147L69.3099 105.596C69.1127 106.114 68.8908 106.631 68.6443 107.124V107.112Z" fill="#D1D3D4"/>
</g>
<path d="M36.1778 50.703C36.1778 50.703 40.2946 25.6227 53.1502 28.0876C53.1502 28.0876 64.7733 35.322 74.4612 27.915C74.4612 27.915 86.2199 27.5207 92.6662 50.6906C92.6662 50.6906 94.2808 25.9678 76.5319 17.1558C76.5319 17.1558 60.1142 9.58859 46.063 20.8531C46.063 20.8531 32.7513 31.3659 36.1655 50.6906L36.1778 50.703Z" fill="#3C2415"/>
<path d="M64.1944 128.483L44.0543 100.457L27.957 104.659L48.5285 119.141L43.2531 121.47L52.7562 128.483H64.1944Z" fill="#002136"/>
<path d="M64.1953 128.519L84.3231 100.494L100.42 104.696L79.8489 119.178L85.1365 121.507L75.6212 128.519H64.1953Z" fill="#002136"/>
<path d="M39.7266 99.0024L51.7934 93.3455L64.1066 98.4848L76.4199 93.3455L89.3125 99.0024L71.0706 111.216L64.1066 101.233L56.6003 111.216L39.7266 99.0024Z" fill="#E2E3E4"/>
</g>
</g>
<defs>
<clipPath id="clip0_1071_966">
<rect width="129" height="129" fill="white"/>
</clipPath>
</defs>
</svg>
