<svg width="129" height="129" viewBox="0 0 129 129" fill="none" xmlns="http://www.w3.org/2000/svg">
<g clip-path="url(#clip0_1071_810)">
<path d="M128.431 72.9174C133.074 37.599 108.209 5.20346 72.8942 0.559969C37.5792 -4.08352 5.18674 20.7834 0.543694 56.1019C-4.09935 91.4203 20.7652 123.816 56.0803 128.459C91.3953 133.103 123.788 108.236 128.431 72.9174Z" fill="#FBB040"/>
<mask id="mask0_1071_810" style="mask-type:luminance" maskUnits="userSpaceOnUse" x="-1" y="0" width="130" height="130">
<path d="M128.431 72.9174C133.074 37.599 108.209 5.20346 72.8942 0.559969C37.5792 -4.08352 5.18674 20.7834 0.543694 56.1019C-4.09935 91.4203 20.7652 123.816 56.0803 128.459C91.3953 133.103 123.788 108.236 128.431 72.9174Z" fill="white"/>
</mask>
<g mask="url(#mask0_1071_810)">
<path d="M79.0263 84.3562H54.3281V100.996H79.0263V84.3562Z" fill="#FBBCA0"/>
<g style="mix-blend-mode:multiply">
<path d="M60.3295 96.3985C64.0515 97.8775 68.1309 98.765 72.1363 98.802C74.4287 98.8266 76.7703 98.5308 79.038 98.1364V84.3687H54.3398V92.9719C56.0776 94.5003 58.2837 95.585 60.3295 96.3985Z" fill="#E6E7E8"/>
</g>
<path d="M93.4218 53.0368C93.5081 52.4206 94.5434 51.4222 94.9994 51.0894C96.01 50.3375 97.0329 51.114 97.3287 52.0878C97.5875 52.9629 97.6121 53.9489 97.6861 54.8487C97.834 57.055 97.5012 59.2243 96.5153 61.2211C95.8497 62.5522 94.8145 63.6492 93.582 64.475C93.582 64.475 92.251 65.1406 91.9922 63.6122L93.4341 53.0368H93.4218Z" fill="#FBBCA0"/>
<path d="M93.211 54.368C93.2727 53.9243 94.0121 53.2217 94.3449 52.9752C95.072 52.4452 95.7992 52.9875 96.0087 53.6901C96.1936 54.3187 96.2182 55.0213 96.2552 55.6622C96.3661 57.2399 96.1319 58.7929 95.4171 60.2227C94.9365 61.1718 94.197 61.9606 93.3096 62.5522C93.3096 62.5522 92.3606 63.0206 92.1758 61.936L93.211 54.368Z" fill="#DDA78F"/>
<path d="M39.3175 53.0368C39.2312 52.4206 38.1959 51.4222 37.7399 51.0894C36.7293 50.3375 35.7064 51.114 35.4106 52.0878C35.1518 52.9629 35.1271 53.9489 35.0532 54.8487C34.893 57.055 35.2381 59.2243 36.224 61.2211C36.8895 62.5522 37.9248 63.6492 39.1572 64.475C39.1572 64.475 40.4883 65.1406 40.7471 63.6122L39.3051 53.0368H39.3175Z" fill="#FBBCA0"/>
<path d="M39.5274 54.368C39.4657 53.9243 38.7263 53.2217 38.3935 52.9752C37.6664 52.4452 36.9392 52.9875 36.7297 53.6901C36.5449 54.3187 36.5202 55.0213 36.4832 55.6622C36.3723 57.2399 36.6065 58.7929 37.3213 60.2227C37.8019 61.1718 38.5414 61.9606 39.4288 62.5522C39.4288 62.5522 40.3778 63.0206 40.5626 61.936L39.5274 54.368Z" fill="#DDA78F"/>
<path d="M94.2348 55.0336C94.2348 62.0099 93.027 69.0602 89.7487 75.0874C86.8771 80.3628 82.5636 84.5904 77.9296 87.9677C74.1706 90.704 70.1405 93.8963 65.3956 93.5019C60.4412 93.0951 56.5836 88.8674 52.9602 85.5765C47.8702 80.9421 43.8525 75.186 41.3753 68.4069C39.847 64.2285 39.1445 59.5201 39.1445 55.0213C39.1445 32.4777 51.4813 18.3032 66.6897 18.3032C81.898 18.3032 94.2348 32.4777 94.2348 55.0213V55.0336Z" fill="#FBBCA0"/>
<path d="M109.812 108.527L79.0253 100.478H54.3271L23.5406 108.527C23.5406 108.527 9.28126 113.815 7.69141 130.54H125.661C124.071 113.815 109.812 108.527 109.812 108.527Z" fill="#FBBCA0"/>
<path d="M109.812 108.527L79.0253 100.478H54.3271L23.5406 108.527C23.5406 108.527 9.28126 113.815 7.69141 130.54H125.661C124.071 113.815 109.812 108.527 109.812 108.527Z" fill="white"/>
<path d="M46.5508 29.0882C46.5508 29.0882 55.7941 42.8313 79.038 44.4213C79.038 44.4213 77.0908 43.5461 74.7984 37.5559C74.7984 37.5559 82.3779 44.0761 91.9787 48.3038L94.1848 52.778C94.1848 52.778 94.1725 50.4978 96.2799 50.8922C96.2799 50.8922 98.0423 32.9831 90.6477 24.1703C90.6477 24.1703 94.1848 24.3428 96.4648 26.2903C96.4648 26.2903 93.1125 19.24 81.6631 15.3698C81.6631 15.3698 84.4854 13.0772 89.5878 14.6672C89.5878 14.6672 82.834 11.4995 71.5078 12.0295C71.5078 12.0295 49.2991 11.1421 46.5508 29.1128V29.0882Z" fill="#3C2415"/>
<path d="M50.151 32.3544L39.1946 52.6671C39.1946 52.6671 38.221 51.4961 37.7526 51.0894C37.7526 51.0894 37.1857 23.1842 52.6406 17.8965L50.1634 32.3421L50.151 32.3544Z" fill="#3C2415"/>
<path d="M109.811 108.527L87.0356 102.573L66.6879 130.553L46.5498 102.524L23.5524 108.539C23.5524 108.539 9.29298 113.827 7.70312 130.553H125.66C124.071 113.827 109.811 108.539 109.811 108.539V108.527Z" fill="#414042"/>
<path d="M63.9778 116.526L58.3086 130.54H74.429L68.8953 116.526H63.9778Z" fill="#BD1E2D"/>
<path d="M66.3075 100.749L59.0977 110.437L64.1137 116.563L66.5663 116.526L69.0312 116.477L73.8377 110.191L66.3075 100.749Z" fill="#BE1E2D"/>
<g style="mix-blend-mode:multiply">
<path d="M71.1393 109.168C70.2149 110.992 68.5018 113.075 66.1602 112.557C63.7446 112.027 62.6477 109.747 63.2023 107.43C63.7446 105.174 65.1989 103.288 66.0123 101.156L59.0859 110.437L64.102 116.563L69.0194 116.489L73.8383 110.203L71.8048 107.652C71.6076 108.169 71.3857 108.687 71.1393 109.18V109.168Z" fill="#D1D3D4"/>
</g>
<path d="M66.687 130.54L46.5489 102.512L30.4531 106.715L51.0226 121.198L45.7354 123.527L55.2499 130.54H66.687Z" fill="#363436"/>
<path d="M66.6875 130.577L86.8133 102.549L102.909 106.752L82.3395 121.234L87.6267 123.576L78.1123 130.577H66.6875Z" fill="#363436"/>
<path d="M42.2109 101.058L54.2889 95.4001L66.601 100.54L78.9008 95.4001L91.8045 101.058L73.5643 113.272L66.601 103.289L59.0954 113.272L42.2109 101.058Z" fill="#E2E3E4"/>
</g>
</g>
<defs>
<clipPath id="clip0_1071_810">
<rect width="129" height="129" fill="white"/>
</clipPath>
</defs>
</svg>
