<svg width="16" height="16" viewBox="0 0 16 16" fill="none" xmlns="http://www.w3.org/2000/svg">
<path d="M4.16584 0H4.41791C4.80265 0.13278 4.94859 0.411619 4.92205 0.809959C4.92205 0.942739 4.92205 1.07552 4.92205 1.22158H11.0514C11.0514 1.07552 11.0514 0.942739 11.0514 0.809959C11.0249 0.411619 11.1708 0.13278 11.5556 0H11.8076C12.1791 0.13278 12.3383 0.398343 12.3118 0.796683C12.3118 0.942741 12.3118 1.0888 12.3118 1.23485C12.5108 1.23485 12.6832 1.23485 12.8557 1.23485C14.3284 1.24813 15.5224 2.15104 15.8939 3.51867C15.9337 3.67801 15.9602 3.83735 16 3.99668V13.2249C16 13.2249 15.9735 13.278 15.9735 13.2913C15.7479 14.8979 14.4743 16 12.8557 16C9.61857 16 6.39469 16 3.15754 16C2.91874 16 2.66667 15.9734 2.42786 15.9203C0.995024 15.6017 0 14.3668 0 12.8929C0 10.0382 0 7.1834 0 4.32863C0 4.18257 0.0132676 4.02324 0.0265346 3.87718C0.185739 2.50955 1.41957 1.3278 2.79934 1.24814C3.09121 1.23486 3.38308 1.24814 3.68822 1.24814C3.68822 1.07552 3.68822 0.929463 3.68822 0.796683C3.66169 0.398343 3.80763 0.13278 4.19237 0H4.16584ZM1.23383 6.17427C1.23383 6.24066 1.23383 6.29378 1.23383 6.34689C1.23383 8.5112 1.23383 10.6888 1.23383 12.8531C1.23383 13.9552 2.02985 14.7651 3.13101 14.7651C6.36816 14.7651 9.59203 14.7651 12.8292 14.7651C13.9303 14.7651 14.7264 13.9552 14.7264 12.8531C14.7264 10.6888 14.7264 8.5112 14.7264 6.34689V6.17427H1.22056H1.23383ZM12.2985 2.49627C12.2985 2.90788 12.2985 3.30622 12.2985 3.70456C12.2985 4.04979 12.0332 4.31535 11.6882 4.32863C11.3433 4.32863 11.0647 4.07635 11.0514 3.71785C11.0514 3.55851 11.0514 3.39917 11.0514 3.22656C11.0514 2.98755 11.0514 2.73527 11.0514 2.49627H4.93532C4.93532 2.49627 4.93532 2.52282 4.93532 2.5361C4.93532 2.92116 4.93532 3.30623 4.93532 3.69129C4.93532 4.06307 4.65671 4.32863 4.29851 4.32863C3.95356 4.32863 3.68822 4.0498 3.68822 3.69129C3.68822 3.34606 3.68822 2.98755 3.68822 2.64233C3.68822 2.58921 3.68822 2.54938 3.68822 2.49627C1.87064 2.28382 1.06136 3.50539 1.2869 4.91286H14.7529C14.9519 3.35934 14.0365 2.31037 12.3383 2.49627H12.2985Z" fill="#00AAB3"/>
<path d="M4.29828 11.6848C4.49729 11.6848 4.70956 11.6848 4.90856 11.6848C5.26677 11.6848 5.53211 11.9636 5.53211 12.3089C5.53211 12.6408 5.26677 12.9197 4.92183 12.9329C4.51055 12.9329 4.08601 12.9329 3.67474 12.9329C3.32979 12.9329 3.06445 12.6541 3.06445 12.3089C3.06445 11.9636 3.32979 11.6848 3.688 11.6848C3.90027 11.6848 4.09928 11.6848 4.31155 11.6848H4.29828Z" fill="#00AAB3"/>
<path d="M11.6484 12.9461C11.4494 12.9461 11.2636 12.9461 11.0646 12.9461C10.6932 12.9461 10.4278 12.6673 10.4146 12.3221C10.4146 11.9768 10.6932 11.698 11.0514 11.698C11.4494 11.698 11.8474 11.698 12.2587 11.698C12.6169 11.698 12.8955 11.9768 12.8955 12.3221C12.8955 12.6673 12.6169 12.9329 12.2587 12.9461C12.0464 12.9461 11.8474 12.9461 11.6351 12.9461H11.6484Z" fill="#00AAB3"/>
<path d="M11.6748 8.00659C11.8738 8.00659 12.0861 8.00659 12.2851 8.00659C12.6301 8.00659 12.9087 8.2987 12.9087 8.63065C12.9087 8.9626 12.6301 9.24144 12.2851 9.25472C11.8738 9.25472 11.4493 9.25472 11.038 9.25472C10.6931 9.25472 10.4277 8.97588 10.4277 8.63065C10.4277 8.28543 10.6931 8.00659 11.0513 8.00659C11.2636 8.00659 11.4626 8.00659 11.6748 8.00659Z" fill="#00AAB3"/>
<path d="M4.2851 9.25472C4.0861 9.25472 3.87382 9.25472 3.67482 9.25472C3.31661 9.25472 3.05127 8.9626 3.05127 8.63065C3.05127 8.28543 3.32988 8.01987 3.68808 8.00659C4.09936 8.00659 4.49737 8.00659 4.90865 8.00659C5.26686 8.00659 5.5322 8.28543 5.54547 8.63065C5.54547 8.97588 5.28012 9.25472 4.92192 9.25472C4.70964 9.25472 4.51064 9.25472 4.29837 9.25472H4.2851Z" fill="#00AAB3"/>
<path d="M7.98684 9.25472C7.78784 9.25472 7.57557 9.25472 7.37656 9.25472C7.01835 9.25472 6.73975 8.96261 6.73975 8.61738C6.73975 8.27215 7.01835 8.00659 7.37656 8.00659C7.77457 8.00659 8.17258 8.00659 8.58386 8.00659C8.95533 8.00659 9.22067 8.28543 9.22067 8.63065C9.22067 8.97588 8.94207 9.25472 8.58386 9.25472C8.38485 9.25472 8.18585 9.25472 7.98684 9.25472Z" fill="#00AAB3"/>
<path d="M7.98684 11.6847C8.18585 11.6847 8.39812 11.6847 8.59712 11.6847C8.94207 11.6847 9.20741 11.9635 9.20741 12.2955C9.20741 12.6274 8.94207 12.9195 8.61039 12.9195C8.18585 12.9195 7.7613 12.9195 7.33676 12.9195C7.00508 12.9195 6.73975 12.6274 6.73975 12.2955C6.73975 11.9635 7.00508 11.6847 7.35003 11.6714C7.5623 11.6714 7.77457 11.6714 7.98684 11.6714V11.6847Z" fill="#00AAB3"/>
</svg>
