<svg width="6" height="9" viewBox="0 0 6 9" fill="none" xmlns="http://www.w3.org/2000/svg">
<path d="M2.9826 4.46715C3.8025 4.46715 4.46715 3.8025 4.46715 2.9826C4.46715 2.1627 3.8025 1.49805 2.9826 1.49805C2.16271 1.49805 1.49805 2.1627 1.49805 2.9826C1.49805 3.8025 2.16271 4.46715 2.9826 4.46715Z" fill="#00F906"/>
<path opacity="0.5" d="M3.15805 0C3.34699 0.0269919 3.54943 0.0539836 3.73837 0.107967C4.26472 0.229431 4.72358 0.499349 5.10146 0.877235C5.53333 1.30911 5.81675 1.82195 5.92471 2.42927C6.05967 3.14455 5.9517 3.83284 5.60081 4.46715C4.79105 5.92471 3.99479 7.38227 3.18504 8.83984C3.15804 8.88032 3.14455 8.92081 3.11756 8.9478C3.02309 9.04227 2.88813 9.00179 2.82065 8.88032C2.63171 8.54293 2.44276 8.20553 2.25382 7.85463C1.63301 6.73447 1.02569 5.6278 0.404877 4.50764C0.148454 4.04878 0 3.56293 0 3.03659C0 2.17285 0.310405 1.44406 0.931218 0.836748C1.3361 0.445366 1.80845 0.202438 2.34829 0.0809749C2.51024 0.0404871 2.6587 0.0269922 2.82065 0.0134962C2.94211 0.0134962 3.05008 0.0134962 3.17154 0.0134962L3.15805 0ZM2.99609 1.49805C2.18634 1.48455 1.51154 2.14585 1.48455 2.9826C1.47105 3.80585 2.13236 4.48065 2.95561 4.50764C3.77886 4.52114 4.45366 3.85984 4.48065 3.02309C4.49415 2.19984 3.83284 1.52504 2.99609 1.51154V1.49805Z" fill="black"/>
</svg>
