<svg width="23" height="23" viewBox="0 0 23 23" fill="none" xmlns="http://www.w3.org/2000/svg">
<path fill-rule="evenodd" clip-rule="evenodd" d="M0.785645 11.2755C0.785645 5.18913 5.71965 0.255127 11.8061 0.255127C14.7288 0.255127 17.5319 1.4162 19.5987 3.48293C21.6654 5.54966 22.8265 8.35274 22.8265 11.2755C22.8265 17.3619 17.8925 22.2959 11.8061 22.2959C5.71965 22.2959 0.785645 17.3619 0.785645 11.2755ZM6.29585 12.3776H17.3163C17.9249 12.3776 18.4183 11.8842 18.4183 11.2755C18.4183 10.6669 17.9249 10.1735 17.3163 10.1735H6.29585C5.68721 10.1735 5.19381 10.6669 5.19381 11.2755C5.19381 11.8842 5.68721 12.3776 6.29585 12.3776Z" fill="#DBDDE1"/>
</svg>
