<svg width="23" height="23" viewBox="0 0 23 23" fill="none" xmlns="http://www.w3.org/2000/svg">
<path fill-rule="evenodd" clip-rule="evenodd" d="M0.510254 11.2755C0.510254 5.18913 5.44426 0.255127 11.5307 0.255127C14.4535 0.255127 17.2565 1.4162 19.3233 3.48293C21.39 5.54966 22.5511 8.35274 22.5511 11.2755C22.5511 17.3619 17.6171 22.2959 11.5307 22.2959C5.44426 22.2959 0.510254 17.3619 0.510254 11.2755ZM12.6327 12.3776H17.0409C17.6495 12.3776 18.1429 11.8842 18.1429 11.2755C18.1429 10.6669 17.6495 10.1735 17.0409 10.1735H12.6327V5.76533C12.6327 5.15669 12.1393 4.66329 11.5307 4.66329C10.922 4.66329 10.4286 5.15669 10.4286 5.76533V10.1735H6.02046C5.41182 10.1735 4.91842 10.6669 4.91842 11.2755C4.91842 11.8842 5.41182 12.3776 6.02046 12.3776H10.4286V16.7857C10.4286 17.3944 10.922 17.8878 11.5307 17.8878C12.1393 17.8878 12.6327 17.3944 12.6327 16.7857V12.3776Z" fill="#00AAB3"/>
</svg>
