<svg width="19" height="19" viewBox="0 0 19 19" fill="none" xmlns="http://www.w3.org/2000/svg">
<path d="M12.3179 0H12.7585C13.5111 0.110145 13.9333 0.605784 14.2821 1.2483C14.9797 2.51496 15.714 3.76327 16.43 5.02994C16.5034 5.15844 16.5952 5.21351 16.7237 5.23187C17.4213 5.34202 18.0454 5.98454 18.0821 6.70048C18.1189 7.15942 18.1005 7.61835 18.1189 8.07729C18.1189 8.48116 17.9536 8.64637 17.5498 8.64637C16.742 8.64637 15.9343 8.64637 15.1266 8.64637C14.7961 8.64637 14.4657 8.64638 14.1536 8.68309C12.2445 8.92174 10.8676 10.9227 11.3082 12.7952C11.6937 14.429 13.0338 15.5121 14.7227 15.5304C15.6773 15.5304 16.6319 15.5304 17.5865 15.5304C17.9536 15.5304 18.1189 15.6957 18.1189 16.0628C18.1189 16.4483 18.1189 16.8155 18.1189 17.201C18.1189 17.3662 18.1189 17.5314 18.0638 17.6783C17.8435 18.5043 17.201 18.9816 16.3565 19C11.4918 19 6.64541 19 1.78067 19C1.61546 19 1.45024 19 1.30338 18.9449C0.495651 18.7246 0 18.0821 0 17.2193C0 13.8048 0 10.3904 0 6.97586C0 6.81064 -2.23968e-06 6.6454 0.0550703 6.49854C0.27536 5.69081 0.91787 5.21353 1.78067 5.19518C2.18454 5.19518 2.58841 5.19518 2.99228 5.19518C3.13914 5.19518 3.28599 5.15847 3.4145 5.08504C5.30532 3.98359 7.19614 2.86377 9.10532 1.78068C10.1701 1.17488 11.1614 0.44057 12.3179 0.0183474V0ZM13.3092 1.28502C13.0338 0.84444 12.5749 0.734288 12.116 0.991293C9.78455 2.34975 7.45315 3.70821 5.12175 5.06666C5.08503 5.08502 5.04831 5.12173 4.99324 5.1768C5.50725 5.1768 5.98455 5.1768 6.46184 5.1768C6.57199 5.1768 6.70049 5.14011 6.81063 5.08504C8.92175 3.85508 11.0329 2.62511 13.144 1.39516C13.199 1.35845 13.2541 1.32173 13.3092 1.28502ZM11.8406 5.14011V5.1768H15.5304L14.5942 3.54298L11.8406 5.14011Z" fill="#00AAB3"/>
<path d="M16.1177 9.49072C16.6134 9.49072 17.1091 9.49072 17.6231 9.49072C18.4491 9.49072 18.9815 10.0414 18.9999 10.8675C18.9999 11.6753 18.9999 12.4646 18.9999 13.2724C18.9999 14.0801 18.5042 14.6308 17.6965 14.6492C16.6318 14.6675 15.5487 14.6859 14.4839 14.6492C13.1989 14.5941 12.1525 13.4927 12.1158 12.226C12.0791 10.8492 12.997 9.69265 14.3371 9.54579C14.9429 9.47236 15.5487 9.54579 16.1545 9.54579V9.50907L16.1177 9.49072ZM14.6675 11.2163C14.1902 11.2163 13.8047 11.6018 13.8047 12.0791C13.8047 12.5564 14.1902 12.9419 14.6675 12.9419C15.1448 12.9419 15.5303 12.5564 15.5303 12.0791C15.5303 11.6018 15.1448 11.2163 14.6675 11.2163Z" fill="#00AAB3"/>
</svg>
