<svg width="102" height="80" viewBox="0 0 102 80" fill="none" xmlns="http://www.w3.org/2000/svg">
<path fill-rule="evenodd" clip-rule="evenodd" d="M102 79.2761L0.805374 0H36.4794L102 51.329V79.2761Z" fill="#00AAB3"/>
<path d="M34.1056 19.0006L32.6988 17.8985L37.9816 11.155L41.8469 14.1831L40.9291 15.3547L38.4706 13.4287L37.1084 15.1676L39.3962 16.9599L38.482 18.1268L36.1942 16.3346L34.1056 19.0006ZM43.2192 17.8186L39.1793 22.9754L37.7725 21.8733L41.8124 16.7165L43.2192 17.8186ZM44.1008 15.2491C44.3099 15.4129 44.4512 15.603 44.5248 15.8195C44.6008 16.0328 44.5352 16.2717 44.328 16.5362C44.1233 16.7976 43.9058 16.92 43.6756 16.9034C43.4479 16.8838 43.2295 16.792 43.0204 16.6282C42.8082 16.462 42.6653 16.2707 42.5917 16.0542C42.5236 15.8371 42.5919 15.5979 42.7967 15.3365C43.0039 15.0721 43.2186 14.95 43.4409 14.9703C43.6686 14.9899 43.8886 15.0829 44.1008 15.2491ZM42.0668 25.2374L40.66 24.1353L46.2825 16.9582L47.6893 18.0604L42.0668 25.2374ZM44.9542 27.4994L43.5474 26.3973L49.1699 19.2203L50.5767 20.3224L44.9542 27.4994ZM51.8815 24.6047L47.8416 29.7615L46.4348 28.6594L50.4747 23.5026L51.8815 24.6047ZM52.7631 22.0351C52.9722 22.199 53.1135 22.3891 53.1871 22.6055C53.2631 22.8189 53.1975 23.0578 52.9903 23.3222C52.7856 23.5836 52.5681 23.706 52.3379 23.6895C52.1102 23.6698 51.8917 23.5781 51.6826 23.4143C51.4705 23.2481 51.3276 23.0567 51.254 22.8403C51.1859 22.6232 51.2542 22.384 51.459 22.1226C51.6662 21.8581 51.8809 21.7361 52.1032 21.7564C52.3309 21.776 52.5509 21.8689 52.7631 22.0351ZM56.3669 27.9623C56.9173 28.3935 57.2421 28.891 57.3412 29.455C57.4427 30.0158 57.2345 30.6268 56.7166 31.2879L54.0824 34.6505L52.6755 33.5484L55.0351 30.5364C55.3242 30.1674 55.4746 29.8361 55.4862 29.5425C55.5009 29.2514 55.3653 28.9938 55.0793 28.7697C54.6488 28.4325 54.2407 28.3485 53.8551 28.5178C53.4694 28.687 53.0609 29.0469 52.6297 29.5973L50.7291 32.0235L49.3222 30.9214L53.3621 25.7646L54.4368 26.6065L54.1092 27.4143L54.1876 27.4757C54.438 27.3841 54.6881 27.3467 54.9378 27.3637C55.1906 27.3831 55.4374 27.4449 55.6782 27.5493C55.9221 27.656 56.1517 27.7936 56.3669 27.9623ZM55.2612 39.236C54.5416 38.6723 54.0899 38.1151 53.9062 37.5642C53.7231 37.0188 53.8086 36.5201 54.1627 36.0681C54.406 35.7575 54.7064 35.5736 55.064 35.5162C55.4215 35.4589 55.8228 35.5326 56.2678 35.7373C56.1714 35.5626 56.1237 35.3639 56.1244 35.1412C56.1276 34.9154 56.1907 34.7241 56.3135 34.5673C56.4677 34.3705 56.6522 34.2521 56.8672 34.2121C57.0846 34.169 57.3502 34.1687 57.6643 34.2113C57.4852 33.8824 57.4169 33.5262 57.4594 33.1426C57.5049 32.7615 57.665 32.3956 57.9396 32.0451C58.2335 31.6699 58.5643 31.4155 58.932 31.2818C59.3052 31.1474 59.7029 31.1339 60.1249 31.2413C60.5501 31.351 60.9886 31.5829 61.4407 31.9371C61.536 32.0117 61.6419 32.1046 61.7583 32.2157C61.8748 32.3268 61.9792 32.4309 62.0717 32.5282C62.1673 32.6279 62.2299 32.6968 62.2596 32.7349L64.0585 34.1442L63.4984 34.8591L62.5286 34.4343C62.5133 34.6059 62.4735 34.7707 62.4092 34.9288C62.3449 35.0869 62.2562 35.2382 62.143 35.3827C61.7093 35.9362 61.1772 36.2165 60.5464 36.2235C59.9211 36.2299 59.2656 35.9645 58.5799 35.4273C58.4242 35.2904 58.28 35.1576 58.1476 35.029C58.0335 35.029 57.9339 35.0452 57.8488 35.0778C57.7637 35.1104 57.6947 35.1605 57.6417 35.2282C57.5887 35.2958 57.5718 35.3744 57.591 35.4639C57.6157 35.5527 57.6753 35.654 57.7698 35.7677C57.8698 35.8808 58.0059 36.0048 58.1781 36.1397L59.0545 36.8262C59.6203 37.2695 59.9556 37.7282 60.0605 38.2024C60.1685 38.679 60.0382 39.1525 59.6696 39.623C59.1975 40.2257 58.5791 40.4956 57.8147 40.4326C57.0533 40.372 56.2021 39.9732 55.2612 39.236ZM56.0402 38.3651C56.3754 38.6277 56.6882 38.8207 56.9786 38.944C57.2697 39.0728 57.5256 39.1294 57.7463 39.1137C57.9646 39.1011 58.1364 39.0148 58.2616 38.8549C58.3628 38.7258 58.4051 38.5927 58.3884 38.4556C58.3724 38.3239 58.2996 38.1825 58.17 38.0313C58.0434 37.8825 57.8617 37.7154 57.6249 37.5299L56.8961 36.959C56.7239 36.8241 56.547 36.7301 56.3652 36.6771C56.1866 36.6264 56.0187 36.619 55.8617 36.6547C55.7022 36.6936 55.5707 36.7791 55.4671 36.9113C55.3154 37.1051 55.2884 37.3295 55.3862 37.5848C55.487 37.8424 55.705 38.1025 56.0402 38.3651ZM59.3304 34.6308C59.5949 34.8379 59.8524 34.9082 60.1031 34.8416C60.3538 34.775 60.5887 34.6018 60.8079 34.3219C61.0513 34.0114 61.1686 33.7286 61.1599 33.4737C61.1566 33.2181 61.0274 32.9903 60.7722 32.7904C60.5139 32.588 60.2587 32.5147 60.0067 32.5703C59.7571 32.6229 59.5107 32.8045 59.2674 33.115C59.0482 33.3949 58.9377 33.6657 58.9361 33.9274C58.9376 34.1916 59.069 34.426 59.3304 34.6308ZM64.8433 43.0806L63.4365 41.9785L68.7194 35.2351L72.5847 38.2631L71.6669 39.4347L69.2084 37.5087L67.8461 39.2476L70.1339 41.0399L69.2197 42.2069L66.9319 40.4146L64.8433 43.0806ZM74.7458 42.3454C75.4376 42.8874 75.85 43.4537 75.983 44.0441C76.1159 44.6345 75.9414 45.2372 75.4597 45.8522L72.7676 49.2886L71.7852 48.5189L72.0623 47.6046L72.0254 47.5757C71.7332 47.6446 71.4645 47.6772 71.2192 47.6736C70.9739 47.67 70.7297 47.6176 70.4864 47.5163C70.2432 47.4151 69.9786 47.2525 69.6926 47.0284C69.3882 46.79 69.1603 46.5171 69.0089 46.21C68.8606 45.9052 68.8112 45.5787 68.8607 45.2305C68.9127 44.8791 69.0844 44.5174 69.3759 44.1454C69.8047 43.598 70.3124 43.3457 70.8991 43.3886C71.4883 43.4283 72.1781 43.7355 72.9685 44.31L73.885 44.9834L74.0621 44.7574C74.2741 44.4868 74.3587 44.233 74.316 43.9961C74.2733 43.7592 74.1259 43.542 73.8738 43.3445C73.6247 43.1494 73.3525 42.9932 73.0573 42.876C72.762 42.7589 72.4523 42.6601 72.1281 42.5799L72.4067 41.2647C72.7935 41.3346 73.1886 41.4605 73.5919 41.6425C73.9983 41.8269 74.3829 42.0612 74.7458 42.3454ZM73.2418 45.8044L72.6831 45.3965C72.2183 45.0522 71.8378 44.8856 71.5414 44.8966C71.2481 44.9099 71.0051 45.0396 70.8123 45.2856C70.6437 45.5008 70.5863 45.704 70.6401 45.895C70.6963 46.0829 70.8259 46.2564 71.0289 46.4154C71.3302 46.6515 71.6538 46.761 71.9995 46.7441C72.3483 46.7296 72.6516 46.5578 72.9094 46.2287L73.2418 45.8044ZM79.018 51.7139C78.7434 52.0645 78.4279 52.2962 78.0715 52.409C77.7206 52.5212 77.3329 52.5126 76.9081 52.3834C76.4858 52.251 76.0317 51.9945 75.5459 51.6139C75.1861 51.3321 74.8951 51.0669 74.673 50.8184C74.4539 50.5724 74.2558 50.2931 74.0788 49.9807L74.9893 48.8184C75.1704 49.1637 75.3883 49.5031 75.6431 49.8367C75.9033 50.1696 76.1549 50.4312 76.3978 50.6215C76.6715 50.8359 76.8981 50.9489 77.0776 50.9604C77.2625 50.9714 77.4068 50.9107 77.5104 50.7785C77.5778 50.6924 77.6135 50.5962 77.6173 50.4901C77.6265 50.3832 77.5865 50.2253 77.4971 50.0163C77.4102 49.8043 77.2545 49.4963 77.0301 49.0922C76.8132 48.704 76.6545 48.3588 76.5538 48.0566C76.4561 47.7568 76.4301 47.4734 76.4755 47.2063C76.5265 46.9386 76.6664 46.6587 76.8952 46.3665C77.2686 45.8899 77.7338 45.6762 78.2907 45.7254C78.8531 45.774 79.4448 46.0416 80.066 46.5282C80.3858 46.7787 80.6649 47.0495 80.9034 47.3405C81.1449 47.6339 81.364 47.9718 81.5607 48.3542L80.3414 49.0365C80.1729 48.7258 80.0026 48.446 79.8304 48.197C79.6614 47.9505 79.46 47.7356 79.2263 47.5525C79.0203 47.3911 78.8433 47.2972 78.6954 47.2706C78.5475 47.2441 78.4289 47.2877 78.3398 47.4014C78.2748 47.4845 78.2431 47.5787 78.2448 47.6843C78.2495 47.7922 78.2975 47.9464 78.3886 48.1468C78.4852 48.3465 78.636 48.6259 78.841 48.985C79.0392 49.3338 79.1941 49.6586 79.3057 49.9594C79.4198 50.2572 79.4594 50.5487 79.4245 50.834C79.392 51.1162 79.2565 51.4095 79.018 51.7139ZM81.8944 54.7786C82.0481 54.8991 82.2093 55.0005 82.3779 55.083C82.5496 55.1679 82.7258 55.2439 82.9065 55.311L82.0862 56.358C81.8825 56.3076 81.6516 56.216 81.3934 56.0832C81.1359 55.9559 80.8749 55.7887 80.6104 55.5815C80.3029 55.3406 80.0647 55.0746 79.8958 54.7835C79.7324 54.4917 79.6763 54.1674 79.7276 53.8106C79.7843 53.4531 79.9861 53.053 80.333 52.6102L82.2807 50.124L81.6073 49.5964L82.0734 49.0014L83.2169 49.138L84.4755 48.3674L85.375 49.0721L84.515 50.1698L85.9587 51.3009L85.1312 52.3571L83.6875 51.2261L81.7398 53.7123C81.5857 53.9091 81.5254 54.1 81.559 54.2851C81.5981 54.4696 81.7099 54.6341 81.8944 54.7786Z" fill="white"/>
</svg>
