<svg width="17" height="16" viewBox="0 0 17 16" fill="none" xmlns="http://www.w3.org/2000/svg">
<path d="M10.5337 5.24382L7.86426 8.41455L10.5337 5.24382Z" fill="#00AAB3"/>
<path d="M10.5337 5.24382L7.86426 8.41455" stroke="#CFDCFD" stroke-width="1.5" stroke-miterlimit="10" stroke-linecap="round" stroke-linejoin="round"/>
<path d="M14.7277 8.29268C14.6599 4.71195 11.6131 1.82927 7.8644 1.82927C4.07331 1.82927 1 4.77765 1 8.41463C1 12.0516 4.07331 15 7.8644 15C8.00312 15 8.14085 14.9961 8.27754 14.9883" stroke="#00AAB3" stroke-width="1.5" stroke-miterlimit="10" stroke-linecap="round" stroke-linejoin="round"/>
<path d="M7.229 8.41466C7.229 8.07789 7.51356 7.8049 7.8646 7.8049C8.21563 7.8049 8.50019 8.07789 8.50019 8.41466C8.50019 8.75143 8.21563 9.02441 7.8646 9.02441C7.51356 9.02441 7.229 8.75143 7.229 8.41466Z" stroke="#00AAB3" stroke-width="1.5" stroke-miterlimit="10"/>
<path d="M8.50019 1.82935H7.229V0.609833C7.229 0.273065 7.51356 7.73668e-05 7.8646 7.73668e-05C8.21563 7.73668e-05 8.50019 0.273065 8.50019 0.609833V1.82935Z" fill="#00AAB3"/>
<path d="M12.5996 1.03661L14.3142 2.40234" stroke="#00AAB3" stroke-width="1.5" stroke-miterlimit="10" stroke-linecap="round" stroke-linejoin="round"/>
<path d="M3.16097 1.03661L1.41455 2.40234" stroke="#00AAB3" stroke-width="1.5" stroke-miterlimit="10" stroke-linecap="round" stroke-linejoin="round"/>
<path d="M11.3529 14.9299L15.7614 12.3586C16.0798 12.1729 16.0798 11.7296 15.7614 11.5439L11.3529 8.97261C11.0217 8.77941 10.5977 9.0081 10.5977 9.3799V14.5225C10.5977 14.8943 11.0217 15.123 11.3529 14.9299Z" stroke="#00AAB3" stroke-width="1.5" stroke-miterlimit="10" stroke-linecap="round" stroke-linejoin="round"/>
</svg>
