<svg width="56" height="56" viewBox="0 0 56 56" fill="none" xmlns="http://www.w3.org/2000/svg">
<g clip-path="url(#clip0_735_1066)">
<path d="M45 29.0626V33.047L43.6254 34.7203H35.9752L35.0391 33.047V29.0626L37.4097 26.8911C37.3101 26.7915 38.5454 26.8911 40.0195 27.0304C41.9917 27.2297 44.3824 27.5085 44.3824 27.5085L45 29.0626Z" fill="#FF9F00"/>
<path d="M45 29.0624V33.0468L43.6254 34.7202H40.0195V27.0303C41.9917 27.2295 44.3824 27.5083 44.3824 27.5083L45 29.0624Z" fill="#FF7816"/>
<path d="M40.9492 11.9961V15.9805C40.9492 16.5382 40.5111 16.9766 39.9531 16.9766C39.3952 16.9766 38.957 16.5382 38.957 15.9805V14.4067L28.6973 24.7129C28.518 24.9121 28.2589 25.0117 28 25.0117C27.7411 25.0117 27.482 24.9121 27.3027 24.7129L24.0156 21.4458L16.7441 28.6973C16.5649 28.8965 16.3058 28.9961 16.0469 28.9961C15.788 28.9961 15.5289 28.8965 15.3496 28.6973C14.9512 28.3188 14.9512 27.6812 15.3496 27.3027L23.3184 19.334C23.6968 18.9355 24.3344 18.9355 24.7129 19.334L28 22.6011L37.5425 12.9922H35.9688C35.4108 12.9922 34.9727 12.5538 34.9727 11.9961C34.9727 11.4381 35.4108 11 35.9688 11H39.9531C40.5111 11 40.9492 11.4381 40.9492 11.9961Z" fill="#E63950"/>
<path d="M20.9609 38.0273V41.0156C20.9609 41.0156 17.355 42.8882 17.1558 42.8882C17.0762 42.8882 16.5582 42.9082 15.9805 42.9282C15.1439 42.9282 14.1675 42.9479 14.1675 42.9479L11 41.0156V38.0273C11 37.4694 11.4381 37.0312 11.9961 37.0312H19.9648C20.5228 37.0312 20.9609 37.4694 20.9609 38.0273Z" fill="#FF9F00"/>
<path d="M32.9805 37.0311V41.0155L31.4863 43.1273H25.191L23.0195 41.0155V37.0311L24.7726 35.9751H31.1675L32.9805 37.0311Z" fill="#FF9F00"/>
<path d="M45 37.0312V41.0155L43.8843 42.5693H36.9713L35.0391 41.0155V37.0312L36.354 35.7959H43.3266L45 37.0312Z" fill="#FF9F00"/>
<path d="M40.9492 11.9961V15.9805C40.9492 16.5382 40.5111 16.9766 39.9531 16.9766C39.3952 16.9766 38.957 16.5382 38.957 15.9805V14.4067L28.6973 24.7129C28.518 24.9121 28.2589 25.0117 28 25.0117V22.6011L37.5425 12.9922H35.9688C35.4108 12.9922 34.9727 12.5538 34.9727 11.9961C34.9727 11.4381 35.4108 11 35.9688 11H39.9531C40.5111 11 40.9492 11.4381 40.9492 11.9961Z" fill="#CC2E43"/>
<path d="M32.9805 37.0314V41.0157L31.4863 43.1275H28V35.9753H31.1675L32.9805 37.0314Z" fill="#FF7816"/>
<path d="M43.3266 35.7959L45 37.0312V41.0155L43.8843 42.5693H40.0195V35.7959H43.3266Z" fill="#FF7816"/>
<path d="M20.9609 38.0273V41.0156C20.9609 41.0156 17.355 42.8882 17.1558 42.8882C17.0762 42.8882 16.5582 42.9082 15.9805 42.9282V37.0312H19.9648C20.5228 37.0312 20.9609 37.4694 20.9609 38.0273Z" fill="#FF7816"/>
<path d="M45 41.0156V44.0039C45 44.5616 44.5619 45 44.0039 45H36.0352C35.4772 45 35.0391 44.5616 35.0391 44.0039V41.0156H45Z" fill="#FFD400"/>
<path d="M32.9805 41.0156V44.0039C32.9805 44.5616 32.5423 45 31.9844 45H24.0156C23.4577 45 23.0195 44.5616 23.0195 44.0039V41.0156H32.9805Z" fill="#FFD400"/>
<path d="M20.9609 41.0156V44.0039C20.9609 44.5616 20.5228 45 19.9648 45H11.9961C11.4381 45 11 44.5616 11 44.0039V41.0156H20.9609Z" fill="#FFD400"/>
<path d="M28 41.0156H32.9805V44.0039C32.9805 44.5616 32.5423 45 31.9844 45H28V41.0156Z" fill="#FDBF00"/>
<path d="M40.0195 41.0156H45V44.0039C45 44.5616 44.5619 45 44.0039 45H40.0195V41.0156Z" fill="#FDBF00"/>
<path d="M20.9609 41.0156V44.0039C20.9609 44.5616 20.5228 45 19.9648 45H15.9805V41.0156H20.9609Z" fill="#FDBF00"/>
<path d="M35.0391 33.0469H45V37.0312H35.0391V33.0469Z" fill="#FFD400"/>
<path d="M32.9805 34.043V37.0312H23.0195V34.043C23.0195 33.485 23.4577 33.0469 24.0156 33.0469H31.9844C32.5423 33.0469 32.9805 33.485 32.9805 34.043Z" fill="#FFD400"/>
<path d="M32.9805 34.043V37.0312H28V33.0469H31.9844C32.5423 33.0469 32.9805 33.485 32.9805 34.043Z" fill="#FDBF00"/>
<path d="M40.0195 33.0469H45V37.0312H40.0195V33.0469Z" fill="#FDBF00"/>
<path d="M45 25.0781V29.0625H35.0391V25.0781C35.0391 24.5202 35.4772 24.082 36.0352 24.082H44.0039C44.5619 24.082 45 24.5202 45 25.0781Z" fill="#FFD400"/>
<path d="M45 25.0781V29.0625H40.0195V24.082H44.0039C44.5619 24.082 45 24.5202 45 25.0781Z" fill="#FDBF00"/>
</g>
<circle cx="28" cy="28" r="27.5" stroke="#00AAB3"/>
<defs>
<clipPath id="clip0_735_1066">
<rect width="34" height="34" fill="white" transform="translate(11 11)"/>
</clipPath>
</defs>
</svg>
