<svg width="56" height="56" viewBox="0 0 56 56" fill="none" xmlns="http://www.w3.org/2000/svg">
<g clip-path="url(#clip0_735_1095)">
<path d="M42.6453 19.3711H13.3547C12.0803 19.724 11 20.8965 11 22.2793V39.8615C11 41.521 12.3577 42.8788 14.0173 42.8788H25.1678C25.5445 42.8788 25.8708 43.1221 25.9997 43.4761C26.2966 44.2913 27.0782 44.8734 27.9961 44.8734C28.9139 44.8734 29.6956 44.2913 29.9925 43.4761C30.1213 43.1221 30.4477 42.8788 30.8244 42.8788H41.9828C43.6423 42.8788 45.0001 41.521 45.0001 39.8615V22.2793C45 20.8965 43.9197 19.724 42.6453 19.3711Z" fill="#FF656F"/>
<path d="M13.6189 39.8616V22.2795C13.6189 20.8967 14.6992 19.7242 15.9736 19.3713H13.3547C12.0803 19.7242 11 20.8967 11 22.2795V39.8616C11 41.5211 12.3577 42.8789 14.0173 42.8789H16.6362C14.9767 42.8789 13.6189 41.5211 13.6189 39.8616Z" fill="#FF4756"/>
<path d="M28.6188 43.4762C28.4899 43.1222 28.1636 42.8789 27.7869 42.8789H25.168C25.5447 42.8789 25.871 43.1222 25.9999 43.4762C26.2968 44.2914 27.0784 44.8735 27.9963 44.8735C28.4907 44.8735 28.9448 44.7035 29.3057 44.4201C28.9968 44.1775 28.7558 43.8522 28.6188 43.4762Z" fill="#FF4756"/>
<path d="M41.4802 17.2556H31.5427C31.8919 17.8961 32.0912 18.63 32.0912 19.4109C32.0912 20.8292 31.4364 22.0944 30.4125 22.921C29.9912 23.2612 29.7482 23.7751 29.7482 24.3166V25.2575H29.9672C30.2027 25.2575 30.3936 25.4484 30.3936 25.6839V26.6981C30.3936 26.9336 30.2027 27.1245 29.9672 27.1245H29.5842V27.8789C29.5842 28.4704 29.1047 28.95 28.5131 28.95H27.9272V39.3223C27.9272 40.0415 28.579 40.6246 29.2982 40.6246H41.4802C42.1994 40.6246 42.7825 40.0415 42.7825 39.3223V18.558C42.7825 17.8387 42.1995 17.2556 41.4802 17.2556Z" fill="#DFEBFA"/>
<path d="M30.5462 39.3222V22.8069C30.5021 22.8454 30.4581 22.8841 30.4125 22.921C29.9912 23.2612 29.7482 23.7751 29.7482 24.3166V25.2574H29.9672C30.2027 25.2574 30.3936 25.4483 30.3936 25.6838V26.698C30.3936 26.9335 30.2027 27.1244 29.9672 27.1244H29.5842V27.8788C29.5842 28.4703 29.1047 28.9499 28.5131 28.9499H27.9272V39.3222C27.9272 40.0414 28.579 40.6245 29.2982 40.6245H31.8485C31.1292 40.6245 30.5462 40.0414 30.5462 39.3222Z" fill="#B4DBFF"/>
<path d="M27.4738 28.9498C26.8823 28.9498 26.4028 28.4703 26.4028 27.8788V27.1244H26.0198C25.7843 27.1244 25.5934 26.9335 25.5934 26.698V25.6838C25.5934 25.4484 25.7843 25.2574 26.0198 25.2574H26.2388V24.3171C26.2388 23.7671 25.9821 23.2537 25.556 22.9059C24.4928 22.0383 23.8328 20.6953 23.9005 19.2011C23.9323 18.5 24.1278 17.8395 24.4481 17.2556H14.5196C13.8003 17.2556 13.2173 17.8387 13.2173 18.558V39.3223C13.2173 40.0415 13.8003 40.6246 14.5196 40.6246H26.6936C27.4129 40.6246 27.9959 40.0415 27.9959 39.3223V28.9498H27.4738Z" fill="#DFEBFA"/>
<path d="M15.8363 39.3223V18.558C15.8363 17.8387 16.4193 17.2556 17.1386 17.2556H14.5196C13.8003 17.2556 13.2173 17.8387 13.2173 18.558V39.3223C13.2173 40.0415 13.8003 40.6246 14.5196 40.6246H17.1385C16.4193 40.6246 15.8363 40.0415 15.8363 39.3223Z" fill="#B4DBFF"/>
<path d="M27.7804 14.906C25.469 15.0124 23.5934 16.8895 23.4886 19.2009C23.4209 20.6952 24.0809 22.0381 25.1441 22.9058C25.5702 23.2536 25.8269 23.767 25.8269 24.317V25.532H30.1603V24.3165C30.1603 23.7749 30.4032 23.261 30.8245 22.9209C31.8483 22.0942 32.5033 20.8291 32.5033 19.4108C32.5032 16.8495 30.368 14.7869 27.7804 14.906Z" fill="#FEE55A"/>
<path d="M27.651 22.906C26.5878 22.0383 25.9278 20.6954 25.9955 19.2011C26.0841 17.2486 27.436 15.6063 29.2469 15.0791C28.7841 14.9454 28.2913 14.8827 27.7804 14.9062C25.469 15.0126 23.5934 16.8896 23.4886 19.2011C23.4209 20.6954 24.0809 22.0383 25.1441 22.906C25.5702 23.2537 25.8269 23.7672 25.8269 24.3172V25.5321H28.3338V24.3172C28.3338 23.7672 28.0771 23.2538 27.651 22.906Z" fill="#FFD301"/>
<path d="M27.9935 26.0909C27.7091 26.0909 27.4785 25.8604 27.4785 25.5759V22.3993C27.4785 22.1148 27.7091 21.8843 27.9935 21.8843C28.2779 21.8843 28.5085 22.1148 28.5085 22.3993V25.5759C28.5084 25.8604 28.2779 26.0909 27.9935 26.0909Z" fill="#FFC20C"/>
<path d="M27.9938 22.9141C27.1761 22.9141 26.5107 22.2488 26.5107 21.431C26.5107 20.6133 27.176 19.948 27.9938 19.948C28.8115 19.948 29.4768 20.6133 29.4768 21.431C29.4768 22.2488 28.8115 22.9141 27.9938 22.9141ZM27.9938 20.978C27.7439 20.978 27.5406 21.1812 27.5406 21.4311C27.5406 21.6809 27.7439 21.8843 27.9938 21.8843C28.2437 21.8843 28.4469 21.681 28.4469 21.4311C28.4469 21.1812 28.2437 20.978 27.9938 20.978Z" fill="#FFC20C"/>
<path d="M25.9912 26.9185V28.0848C25.9912 28.6764 26.4707 29.1559 27.0623 29.1559H28.9255C29.5171 29.1559 29.9966 28.6764 29.9966 28.0848V26.9185H25.9912V26.9185Z" fill="#23A8FE"/>
<path d="M28.2883 28.0848V26.9185H25.9912V28.0848C25.9912 28.6764 26.4707 29.1559 27.0623 29.1559H28.9255C28.9998 29.1559 29.0724 29.1482 29.1425 29.1338C28.6549 29.0335 28.2883 28.602 28.2883 28.0848Z" fill="#0193FA"/>
<path d="M39.7264 36.9155H31.1341C30.8497 36.9155 30.6191 36.685 30.6191 36.4005C30.6191 36.1161 30.8497 35.8855 31.1341 35.8855H39.7264C40.0108 35.8855 40.2413 36.116 40.2413 36.4005C40.2413 36.6849 40.0108 36.9155 39.7264 36.9155Z" fill="#B4DBFF"/>
<path d="M20.6066 21.7612H16.2738C15.9894 21.7612 15.7588 21.5307 15.7588 21.2462C15.7588 20.9618 15.9894 20.7312 16.2738 20.7312H20.6066C20.891 20.7312 21.1216 20.9617 21.1216 21.2462C21.1216 21.5307 20.891 21.7612 20.6066 21.7612Z" fill="#B4DBFF"/>
<path d="M20.6066 23.926H16.2738C15.9894 23.926 15.7588 23.6955 15.7588 23.411C15.7588 23.1265 15.9894 22.896 16.2738 22.896H20.6066C20.891 22.896 21.1216 23.1265 21.1216 23.411C21.1216 23.6955 20.891 23.926 20.6066 23.926Z" fill="#B4DBFF"/>
<path d="M20.6066 26.091H16.2738C15.9894 26.091 15.7588 25.8605 15.7588 25.576C15.7588 25.2916 15.9894 25.061 16.2738 25.061H20.6066C20.891 25.061 21.1216 25.2915 21.1216 25.576C21.1216 25.8605 20.891 26.091 20.6066 26.091Z" fill="#B4DBFF"/>
<path d="M22.6506 28.2558H16.2738C15.9894 28.2558 15.7588 28.0253 15.7588 27.7408C15.7588 27.4563 15.9894 27.2258 16.2738 27.2258H22.6506C22.935 27.2258 23.1656 27.4563 23.1656 27.7408C23.1656 28.0253 22.935 28.2558 22.6506 28.2558Z" fill="#B4DBFF"/>
<path d="M23.6564 30.4208H16.2738C15.9894 30.4208 15.7588 30.1903 15.7588 29.9058C15.7588 29.6214 15.9894 29.3909 16.2738 29.3909H23.6564C23.9408 29.3909 24.1713 29.6214 24.1713 29.9058C24.1713 30.1903 23.9408 30.4208 23.6564 30.4208Z" fill="#B4DBFF"/>
<path d="M24.8659 32.5856H16.2738C15.9894 32.5856 15.7588 32.3551 15.7588 32.0706C15.7588 31.7862 15.9894 31.5557 16.2738 31.5557H24.8659C25.1504 31.5557 25.3809 31.7862 25.3809 32.0706C25.3809 32.3551 25.1504 32.5856 24.8659 32.5856Z" fill="#B4DBFF"/>
<path d="M24.8659 34.7504H16.2738C15.9894 34.7504 15.7588 34.5199 15.7588 34.2354C15.7588 33.951 15.9894 33.7205 16.2738 33.7205H24.8659C25.1504 33.7205 25.3809 33.951 25.3809 34.2354C25.3809 34.5199 25.1504 34.7504 24.8659 34.7504Z" fill="#B4DBFF"/>
<path d="M24.8659 36.9155H16.2738C15.9894 36.9155 15.7588 36.685 15.7588 36.4005C15.7588 36.1161 15.9894 35.8855 16.2738 35.8855H24.8659C25.1504 35.8855 25.3809 36.116 25.3809 36.4005C25.3809 36.6849 25.1504 36.9155 24.8659 36.9155Z" fill="#B4DBFF"/>
<path d="M39.7263 21.7612H35.3934C35.109 21.7612 34.8784 21.5307 34.8784 21.2462C34.8784 20.9618 35.109 20.7312 35.3934 20.7312H39.7263C40.0107 20.7312 40.2413 20.9617 40.2413 21.2462C40.2412 21.5307 40.0107 21.7612 39.7263 21.7612Z" fill="#B4DBFF"/>
<path d="M39.7263 23.926H35.3934C35.109 23.926 34.8784 23.6955 34.8784 23.411C34.8784 23.1265 35.109 22.896 35.3934 22.896H39.7263C40.0107 22.896 40.2413 23.1265 40.2413 23.411C40.2413 23.6955 40.0107 23.926 39.7263 23.926Z" fill="#B4DBFF"/>
<path d="M39.7263 26.091H35.3934C35.109 26.091 34.8784 25.8605 34.8784 25.576C34.8784 25.2916 35.109 25.061 35.3934 25.061H39.7263C40.0107 25.061 40.2413 25.2915 40.2413 25.576C40.2412 25.8605 40.0107 26.091 39.7263 26.091Z" fill="#B4DBFF"/>
<path d="M39.7259 28.2558H33.3412C33.0567 28.2558 32.8262 28.0253 32.8262 27.7408C32.8262 27.4563 33.0567 27.2258 33.3412 27.2258H39.7259C40.0103 27.2258 40.2409 27.4563 40.2409 27.7408C40.2409 28.0253 40.0103 28.2558 39.7259 28.2558Z" fill="#B4DBFF"/>
<path d="M39.7263 30.4208H32.3358C32.0514 30.4208 31.8208 30.1903 31.8208 29.9058C31.8208 29.6214 32.0514 29.3909 32.3358 29.3909H39.7263C40.0107 29.3909 40.2412 29.6214 40.2412 29.9058C40.2412 30.1903 40.0107 30.4208 39.7263 30.4208Z" fill="#B4DBFF"/>
<path d="M39.7264 32.5856H31.1341C30.8497 32.5856 30.6191 32.3551 30.6191 32.0706C30.6191 31.7862 30.8497 31.5557 31.1341 31.5557H39.7264C40.0108 31.5557 40.2413 31.7862 40.2413 32.0706C40.2413 32.3551 40.0108 32.5856 39.7264 32.5856Z" fill="#B4DBFF"/>
<path d="M39.7264 34.7504H31.1341C30.8497 34.7504 30.6191 34.5199 30.6191 34.2354C30.6191 33.951 30.8497 33.7205 31.1341 33.7205H39.7264C40.0108 33.7205 40.2413 33.951 40.2413 34.2354C40.2413 34.5199 40.0108 34.7504 39.7264 34.7504Z" fill="#B4DBFF"/>
<path d="M21.8587 19.716H20.4364C20.1519 19.716 19.9214 19.4855 19.9214 19.201C19.9214 18.9165 20.1519 18.686 20.4364 18.686H21.8587C22.1431 18.686 22.3737 18.9165 22.3737 19.201C22.3737 19.4855 22.1431 19.716 21.8587 19.716Z" fill="#FEE55A"/>
<path d="M35.5555 19.716H34.1331C33.8487 19.716 33.6182 19.4855 33.6182 19.201C33.6182 18.9165 33.8487 18.686 34.1331 18.686H35.5555C35.8399 18.686 36.0705 18.9165 36.0705 19.201C36.0705 19.4855 35.8399 19.716 35.5555 19.716Z" fill="#FEE55A"/>
<path d="M22.2866 24.9105C22.0855 24.7094 22.0855 24.3834 22.2866 24.1823L23.2923 23.1765C23.4934 22.9753 23.8195 22.9754 24.0206 23.1764C24.2217 23.3776 24.2217 23.7035 24.0206 23.9047L23.0149 24.9105C22.8138 25.1116 22.4877 25.1116 22.2866 24.9105Z" fill="#FEE55A"/>
<path d="M31.9717 15.2256C31.7705 15.0245 31.7705 14.6985 31.9717 14.4973L32.9774 13.4916C33.1785 13.2905 33.5046 13.2906 33.7057 13.4917C33.9068 13.6927 33.9068 14.0187 33.7057 14.2199L32.6999 15.2257C32.4988 15.4267 32.1727 15.4267 31.9717 15.2256Z" fill="#FEE55A"/>
<path d="M27.9959 13.5789C27.7115 13.5789 27.481 13.3484 27.481 13.0639V11.6417C27.481 11.3573 27.7115 11.1267 27.9959 11.1267C28.2804 11.1267 28.5109 11.3572 28.5109 11.6417V13.064C28.5109 13.3484 28.2803 13.5789 27.9959 13.5789Z" fill="#FEE55A"/>
<path d="M32.9774 24.9105L31.9717 23.9047C31.7705 23.7036 31.7705 23.3776 31.9717 23.1764C32.1728 22.9754 32.4989 22.9753 32.6999 23.1765L33.7057 24.1823C33.9068 24.3833 33.9068 24.7093 33.7057 24.9105C33.5045 25.1116 33.1785 25.1117 32.9774 24.9105Z" fill="#FEE55A"/>
<path d="M23.2923 15.2257L22.2866 14.2199C22.0855 14.0188 22.0855 13.6928 22.2866 13.4917C22.4877 13.2905 22.8137 13.2906 23.0149 13.4916L24.0206 14.4973C24.2217 14.6985 24.2217 15.0245 24.0206 15.2256C23.8195 15.4267 23.4935 15.4267 23.2923 15.2257Z" fill="#FEE55A"/>
<path d="M30.1977 25H25.4264C25.1909 25 25 25.1909 25 25.4265V26.4407C25 26.6762 25.1909 26.8671 25.4264 26.8671H30.1977C30.4332 26.8671 30.6241 26.6762 30.6241 26.4407V25.4265C30.6241 25.1909 30.4332 25 30.1977 25Z" fill="#60B8FE"/>
<path d="M27.4788 26.6982V25.684C27.4788 25.4486 27.6697 25.2576 27.9052 25.2576H25.6081C25.3726 25.2576 25.1816 25.4485 25.1816 25.684V26.6982C25.1816 26.9337 25.3726 27.1246 25.6081 27.1246H27.9052C27.6697 27.1246 27.4788 26.9337 27.4788 26.6982Z" fill="#23A8FE"/>
</g>
<circle cx="28" cy="28" r="27.5" stroke="#00AAB3"/>
<defs>
<clipPath id="clip0_735_1095">
<rect width="34" height="34" fill="white" transform="translate(11 11)"/>
</clipPath>
</defs>
</svg>
