<svg width="56" height="56" viewBox="0 0 56 56" fill="none" xmlns="http://www.w3.org/2000/svg">
<path d="M43.7175 29.2721C43.7175 37.9583 36.6758 45 27.9896 45C19.3034 45 12.2617 37.9583 12.2617 29.2721C12.2617 20.5858 19.3034 13.5442 27.9896 13.5442C36.6758 13.5442 43.7175 20.5858 43.7175 29.2721Z" fill="#FF5252"/>
<path d="M38.1992 41.2354C37.8506 39.0935 37.4776 36.8082 37.4503 36.6705C37.1007 34.884 35.4631 34.3587 35.4631 34.3587C35.4631 34.3587 31.0128 33.0461 30.845 32.9966C30.6206 33.6251 30.0614 35.1919 29.6883 36.2375C29.5654 36.5823 29.1441 36.7101 28.8502 36.4922L27.5716 35.5436H25.1315L25.1214 35.5361L25.1247 35.5436L23.8459 36.4922C23.552 36.7101 23.131 36.5823 23.008 36.2375L21.8514 32.9966C21.6044 33.0695 17.2208 34.3587 17.2208 34.3587C16.6201 34.5828 15.5298 35.1864 15.2333 36.6705L14.9897 38.1259C20.33 45.9517 31.1633 47.2454 38.1992 41.2354Z" fill="#F6E6CB"/>
<path d="M15.2336 36.6705L14.9897 38.126C15.4359 38.7797 15.9303 39.3978 16.4673 39.9757L17.0761 36.0853C17.3259 34.8342 18.1399 34.209 18.7492 33.9092C17.9059 34.1572 17.2208 34.3587 17.2208 34.3587C16.6203 34.5828 15.5298 35.1865 15.2336 36.6705Z" fill="#EDD4B0"/>
<path d="M19.8855 21.2374V20.2966C19.8855 19.8901 20.3986 19.8587 20.3986 19.8587L20.398 19.8577C23.8172 19.722 27.6962 18.2966 29.2189 17.7081C29.6093 17.5566 30.05 17.6134 30.4277 17.9073L32.5351 19.6494C32.5351 19.6494 32.8175 19.9021 32.8175 20.3775V21.2665C33.3843 21.217 34.03 21.4003 34.3898 21.7181V19.0385C34.3898 14.6059 30.7839 11 26.3515 11C21.9192 11 18.313 14.6059 18.313 19.0383V21.7075C18.6723 21.3856 19.3174 21.1965 19.8855 21.2374Z" fill="#8C4F25"/>
<path d="M21.2198 19.8012V19.0385C21.2198 15.1021 24.0636 11.8179 27.8047 11.132C27.3333 11.0454 26.8475 11 26.3515 11C21.9192 11 18.313 14.6059 18.313 19.0383V21.7075C18.6723 21.3856 19.3174 21.1965 19.8855 21.2372V20.2966C19.8855 19.8899 20.3986 19.8585 20.3986 19.8585L20.398 19.8577C20.6694 19.8471 20.9441 19.8274 21.2198 19.8012Z" fill="#773C15"/>
<path d="M19.8202 20.8535C18.7475 20.7718 17.7974 21.5596 17.7974 22.5206C17.7974 23.4771 18.7424 24.27 19.8202 24.1878V20.8535Z" fill="#F59D6B"/>
<path d="M32.8823 20.8845V24.1571C33.957 24.257 34.9054 23.471 34.9054 22.5208C34.9054 21.5662 33.9518 20.7852 32.8823 20.8845Z" fill="#F59D6B"/>
<path d="M17.9979 21.7786C17.8703 22.0029 17.7974 22.2551 17.7974 22.5207C17.7974 23.4771 18.7424 24.2701 19.8202 24.1879V22.7038C19.0409 22.7635 18.3312 22.3653 17.9979 21.7786Z" fill="#F28B51"/>
<path d="M32.8823 22.673V24.157C33.957 24.2566 34.9054 23.4709 34.9054 22.5204C34.9054 22.2546 34.8312 22.0022 34.7012 21.7786C34.3658 22.3568 33.6569 22.7451 32.8823 22.673Z" fill="#F28B51"/>
<path d="M29.1238 31.8328L27.5713 35.5435L28.8499 36.4921C29.144 36.71 29.565 36.5821 29.688 36.2374L30.8446 32.9964L29.1238 31.8328Z" fill="#EDD4B0"/>
<path d="M26.6641 30.7316C25.5523 30.7835 24.4965 30.5529 23.5596 30.1057V31.8328L24.6898 34.5046L25.1315 35.5435H27.5714L29.1239 31.8328C29.1239 31.3718 29.1239 30.6821 29.1239 30.1296C28.3704 30.4792 27.5395 30.6907 26.6641 30.7316Z" fill="#F59D6B"/>
<path d="M25.5357 33.1225C25.1966 32.321 25.0125 31.4629 24.9922 30.5939C24.4916 30.4863 24.0117 30.3215 23.5596 30.1057V31.8328L24.6898 34.5046L25.1315 35.5435H26.5619C25.1557 32.2258 25.6407 33.37 25.5357 33.1225Z" fill="#F28B51"/>
<path d="M25.1317 35.5435L24.5076 36.0013L24.5068 36.0018L25.4503 37.6241H27.2165L28.1675 35.9855L27.5716 35.5435C26.1084 35.5435 26.6295 35.5435 25.1317 35.5435Z" fill="#E74242"/>
<path d="M28.3153 44.9959L27.2162 37.6243H25.45L24.3955 44.5871C25.6437 44.8789 26.9483 45.0236 28.3153 44.9959Z" fill="#FF5252"/>
<path d="M18.701 39.0542C18.4318 39.0542 18.2134 39.2724 18.2134 39.5419V41.5922C18.5291 41.843 18.8541 42.0824 19.1887 42.3089V39.5419C19.1887 39.2724 18.9706 39.0542 18.701 39.0542Z" fill="#EDD4B0"/>
<path d="M33.9484 39.0542C33.6789 39.0542 33.4604 39.2724 33.4604 39.5419V44.0217C33.7909 43.899 34.1162 43.7659 34.4358 43.6222V39.5419C34.436 39.2724 34.2176 39.0542 33.9484 39.0542Z" fill="#EDD4B0"/>
<path d="M32.6651 19.454L30.4276 17.7118C30.0501 17.4179 29.6092 17.3611 29.2188 17.5129V17.5126C27.6964 18.1015 23.6871 19.5269 20.2679 19.6625L20.2685 19.6633C20.2685 19.6633 19.7554 19.6947 19.7554 20.1014V24.2438C19.7554 28.0237 22.8881 31.1028 26.6639 30.9264C30.1617 30.7632 32.9474 27.8764 32.9474 24.3377V20.1821C32.9474 19.7069 32.6651 19.4542 32.6651 19.454Z" fill="#F9AE85"/>
<path d="M21.2181 24.2442V19.5945C20.898 19.6269 20.5805 19.6503 20.2679 19.6627L20.2685 19.6637C20.2685 19.6637 19.7554 19.6949 19.7554 20.1016V24.2442C19.7554 28.0239 22.8881 31.103 26.6639 30.9268C26.8066 30.9201 26.9477 30.9084 27.0875 30.8929C23.7932 30.5217 21.2181 27.6709 21.2181 24.2442Z" fill="#F59D6B"/>
<path d="M25.1317 35.5435L24.5076 36.0013L24.5068 36.0018L25.4503 37.6241H27.2165C26.0536 36.6822 26.5621 35.5435 26.5621 35.5435C26.2184 35.5435 26.0775 35.5435 25.1317 35.5435Z" fill="#CE3232"/>
<path d="M27.5724 40.01L27.2168 37.6243H25.4503L25.0874 40.0211C25.7509 40.7812 26.9182 40.7726 27.5724 40.01Z" fill="#E74242"/>
<path d="M28.5181 33.2805L27.5713 35.5435L28.8499 36.4919C29.144 36.71 29.565 36.5821 29.688 36.2374L30.3684 34.3311C29.5653 34.9223 28.4219 34.2901 28.5181 33.2805Z" fill="#E0C096"/>
<path d="M23.5595 31.8328L25.1244 35.5435L23.8459 36.4921C23.5517 36.71 23.1307 36.5821 23.0077 36.2374L21.8511 32.9964L23.5595 31.8328Z" fill="#E0C096"/>
<path d="M32.9082 34.1851V42.5725C32.9082 42.9157 33.3038 43.1076 33.5733 42.8954L36.6853 40.4441C36.8345 40.3266 37.0446 40.3266 37.1937 40.4441L40.3057 42.8954C40.5753 43.1076 40.9708 42.9157 40.9708 42.5725V34.1851C38.8892 36.736 34.9948 36.7417 32.9082 34.1851Z" fill="#5085FE"/>
<path d="M36.3906 36.0714C34.9891 35.9241 33.7533 35.2206 32.9082 34.1851V42.5725C32.9082 42.9157 33.304 43.1076 33.5736 42.8954L36.3906 40.6763V36.0714Z" fill="#3C78EF"/>
<path d="M39.2515 35.5588V42.0651L40.3057 42.8954C40.5752 43.1076 40.9708 42.9157 40.9708 42.5725V34.1851C40.5041 34.7568 39.9184 35.2271 39.2515 35.5588Z" fill="#7DA8FF"/>
<path d="M34.6278 35.5588V42.0651L33.5736 42.8954C33.304 43.1076 32.9082 42.9157 32.9082 42.5725V34.1851C33.3749 34.7568 33.9606 35.2271 34.6278 35.5588Z" fill="#7DA8FF"/>
<path d="M34.3387 26.8498C31.8511 28.2861 30.9987 31.4671 32.435 33.955C33.8713 36.4426 37.0526 37.295 39.5402 35.8587C42.0278 34.4224 42.8802 31.2414 41.4439 28.7535C40.0076 26.2659 36.8266 25.4135 34.3387 26.8498Z" fill="#FFDC67"/>
<path d="M35.4505 32.214C34.3195 30.2553 34.6083 27.867 35.9963 26.2388C35.4282 26.3436 34.8677 26.5443 34.3387 26.8499C31.8511 28.2862 30.9987 31.4672 32.435 33.9551C34.2303 37.0643 38.5698 37.4604 40.8982 34.7289C38.7939 35.1167 36.5812 34.1727 35.4505 32.214Z" fill="#FFB456"/>
<path d="M39.9544 29.6128C38.9928 27.9474 36.8634 27.377 35.1981 28.3383C33.5327 29.2999 32.9621 31.4293 33.9237 33.0947C34.8852 34.76 37.0147 35.3307 38.68 34.3691C40.3453 33.4078 40.916 31.2781 39.9544 29.6128Z" fill="#FFB456"/>
<path d="M38.3209 34.5501C35.8138 33.7216 34.3267 31.1463 34.8628 28.5603C33.461 29.5997 33.031 31.5475 33.9243 33.0951C34.818 34.6427 36.7199 35.2442 38.3209 34.5501Z" fill="#FC974D"/>
<path d="M36.4186 32.7495L35.3354 31.6659C35.1447 31.4755 35.1447 31.1669 35.3354 30.9765C35.5258 30.7858 35.8345 30.7858 36.0249 30.9765L36.7634 31.715L38.2144 30.2639C38.4048 30.0735 38.7135 30.0735 38.9039 30.2639C39.0943 30.4543 39.0943 30.7632 38.9039 30.9536L37.1081 32.7495C36.9177 32.9399 36.609 32.9399 36.4186 32.7495Z" fill="#FFDC67"/>
<circle cx="28" cy="28" r="27.5" stroke="#00AAB3"/>
</svg>
