<svg width="56" height="56" viewBox="0 0 56 56" fill="none" xmlns="http://www.w3.org/2000/svg">
<path d="M12.0708 25.6581C12.0708 32.3972 17.5534 37.8797 24.2924 37.8797L25.8621 25.7854L24.2924 13.4365C17.5534 13.4365 12.0708 18.9191 12.0708 25.6581Z" fill="#FFF7F7"/>
<path d="M24.2925 13.4365V37.8797C31.0315 37.8797 36.5141 32.3972 36.5141 25.6581C36.5141 18.9191 31.0315 13.4365 24.2925 13.4365Z" fill="#EFEBF4"/>
<path d="M12.9922 25.6581C12.9922 19.4271 18.0614 14.3579 24.2924 14.3579L25.1766 13.4365L24.2924 12.3657C16.9629 12.3657 11 18.3286 11 25.6581C11 32.9875 16.9629 38.9505 24.2924 38.9505L25.1766 37.8797L24.2924 36.9583C18.0614 36.9583 12.9922 31.889 12.9922 25.6581Z" fill="#FD7359"/>
<path d="M24.2925 12.3657V14.3579C30.5234 14.3579 35.5927 19.4272 35.5927 25.6581C35.5927 31.889 30.5234 36.9583 24.2925 36.9583V38.9505C31.6219 38.9505 37.5849 32.9875 37.5849 25.6581C37.5849 18.3287 31.6219 12.3657 24.2925 12.3657Z" fill="#FA5A5E"/>
<path d="M17.1206 25.6581C17.1206 21.7036 20.3378 18.4863 24.2923 18.4863L25.1765 17.49L24.2923 16.4941C19.2393 16.4941 15.1284 20.605 15.1284 25.6581C15.1284 30.7111 19.2393 34.822 24.2923 34.822L25.1765 33.8169L24.2923 32.8298C20.3378 32.8298 17.1206 29.6126 17.1206 25.6581Z" fill="#FD7359"/>
<path d="M33.4563 25.6581C33.4563 20.6051 29.3455 16.4941 24.2925 16.4941V18.4863C28.247 18.4863 31.4642 21.7035 31.4642 25.6581C31.4642 29.6126 28.247 32.8298 24.2925 32.8298V34.822C29.3455 34.822 33.4563 30.7111 33.4563 25.6581Z" fill="#FA5A5E"/>
<path d="M21.249 25.658C21.249 23.9799 22.6143 22.6147 24.2923 22.6147L25.035 21.4552L24.2923 20.6226C21.5157 20.6226 19.2568 22.8814 19.2568 25.658C19.2568 28.4346 21.5158 30.6935 24.2923 30.6935L25.035 29.7663L24.2923 28.7013C22.6142 28.7012 21.249 27.336 21.249 25.658Z" fill="#FD7359"/>
<path d="M29.3279 25.658C29.3279 22.8814 27.069 20.6226 24.2925 20.6226V22.6147C25.9706 22.6147 27.3357 23.9799 27.3357 25.658C27.3357 27.3361 25.9705 28.7013 24.2925 28.7013V30.6935C27.069 30.6934 29.3279 28.4345 29.3279 25.658Z" fill="#FA5A5E"/>
<path d="M26.0967 33.8528V43.6342H35.5483L37.3624 33.8528H26.0967Z" fill="#006094"/>
<path d="M35.5483 33.8528H45V43.6342H35.5483V33.8528Z" fill="#002C60"/>
<path d="M31.5717 25.647L31.02 25.9221V30.4419H33.0122V27.1787C33.863 26.8282 34.7056 26.653 35.5482 26.653L36.7059 25.658L35.5482 24.6604C34.2196 24.6604 32.891 24.9892 31.5717 25.647Z" fill="#FFA74C"/>
<path d="M39.5249 25.6469C38.2056 24.9892 36.8769 24.6604 35.5483 24.6604V26.653C36.391 26.653 37.2336 26.8282 38.0843 27.1787V30.4419H40.0765V25.9219L39.5249 25.6469Z" fill="#FE8A52"/>
<path d="M34.5522 39.4569H35.5483L36.2183 36.5618H34.5522V39.4569Z" fill="#FFA74C"/>
<path d="M35.5483 36.5618H36.5444V39.4569H35.5483V36.5618Z" fill="#FE8A52"/>
<path d="M26.0967 29.8518V33.8526L35.5483 37.1056L37.2228 33.2153L35.5483 29.8518H26.0967Z" fill="#009DB6"/>
<path d="M35.5483 29.8518V37.1056L45 33.8526V29.8518H35.5483Z" fill="#006094"/>
<path d="M24.2922 24.4597L18.8135 18.981L17.4048 20.3896L23.4828 26.4676L24.2922 25.6581L24.8914 25.0589L24.2922 24.4597Z" fill="#0095FF"/>
<path d="M16.1512 22.3325L11.0718 17.2531L14.3938 15.9695L15.6774 12.6475L20.7569 17.7269L19.4732 21.0488L16.1512 22.3325Z" fill="#00C0F1"/>
<circle cx="28" cy="28" r="27.5" stroke="#00AAB3"/>
</svg>
